SplineFontDB: 3.0
FontName: Roboto-GMM-Bold
FullName: Roboto-GMM Bold
FamilyName: Roboto-GMM
Weight: Bold
Copyright: Copyright 2011 Google Inc. All Rights Reserved.
Version: 2.138
ItalicAngle: 0
UnderlinePosition: -200
UnderlineWidth: 100
Ascent: 1638
Descent: 410
InvalidEm: 0
sfntRevision: 0x00022354
LayerCount: 2
Layer: 0 1 "Back" 1
Layer: 1 1 "Fore" 0
XUID: [1021 847 435918304 23820]
StyleMap: 0x0020
FSType: 0
OS2Version: 4
OS2_WeightWidthSlopeOnly: 0
OS2_UseTypoMetrics: 0
CreationTime: 1221247774
ModificationTime: 1628030633
PfmFamily: 17
TTFWeight: 700
TTFWidth: 5
LineGap: 0
VLineGap: 0
Panose: 2 0 0 0 0 0 0 0 0 0
OS2TypoAscent: 2146
OS2TypoAOffset: 0
OS2TypoDescent: -555
OS2TypoDOffset: 0
OS2TypoLinegap: 0
OS2WinAscent: 2146
OS2WinAOffset: 0
OS2WinDescent: 555
OS2WinDOffset: 0
HheadAscent: 1900
HheadAOffset: 0
HheadDescent: -500
HheadDOffset: 0
OS2SubXSize: 1434
OS2SubYSize: 1331
OS2SubXOff: 0
OS2SubYOff: 287
OS2SupXSize: 1434
OS2SupYSize: 1331
OS2SupXOff: 0
OS2SupYOff: 977
OS2StrikeYSize: 102
OS2StrikeYPos: 512
OS2CapHeight: 1456
OS2XHeight: 1082
OS2Vendor: 'GOOG'
OS2CodePages: 2000019f.00000000
OS2UnicodeRanges: e0000aff.5000217f.00000021.00000000
Lookup: 1 0 0 "'c2sc' Capitals to Small Capitals lookup 0" { "'c2sc' Capitals to Small Capitals lookup 0 subtable"  } ['c2sc' ('DFLT' <'dflt' > 'cyrl' <'dflt' > 'grek' <'dflt' > 'latn' <'AZE ' 'CRT ' 'FRA ' 'MOL ' 'NAV ' 'ROM ' 'TRK ' 'dflt' > ) ]
Lookup: 1 0 0 "'smcp' Lowercase to Small Capitals lookup 1" { "'smcp' Lowercase to Small Capitals lookup 1 subtable"  } ['smcp' ('DFLT' <'dflt' > 'cyrl' <'dflt' > 'grek' <'dflt' > 'latn' <'AZE ' 'CRT ' 'FRA ' 'MOL ' 'NAV ' 'ROM ' 'TRK ' 'dflt' > ) ]
Lookup: 1 0 0 "'unic' Unicase lookup 2" { "'unic' Unicase lookup 2 subtable"  } ['unic' ('DFLT' <'dflt' > 'cyrl' <'dflt' > 'grek' <'dflt' > 'latn' <'AZE ' 'CRT ' 'FRA ' 'MOL ' 'NAV ' 'ROM ' 'TRK ' 'dflt' > ) ]

StartChar: .notdef
Encoding: 1114112 -1 0
Width: 908
Flags: W
LayerCount: 2
Fore
SplineSet
100 0 m 1,0,-1
 100 1456 l 1,1,-1
 808 1456 l 1,2,-1
 808 0 l 1,3,-1
 100 0 l 1,0,-1
194 1402 m 1,4,-1
 452 796 l 1,5,-1
 709 1402 l 1,6,-1
 194 1402 l 1,4,-1
480 728 m 1,7,-1
 754 84 l 1,8,-1
 754 1372 l 1,9,-1
 480 728 l 1,7,-1
154 1360 m 1,10,-1
 154 96 l 1,11,-1
 422 728 l 1,12,-1
 154 1360 l 1,10,-1
194 54 m 1,13,-1
 709 54 l 1,14,-1
 452 660 l 1,15,-1
 194 54 l 1,13,-1
EndSplineSet
EndChar

StartChar: exclam
Encoding: 33 33 6
Width: 557
Flags: W
LayerCount: 2
Fore
SplineSet
439 1456 m 1,0,-1
 406 448 l 1,1,-1
 165 448 l 1,2,-1
 132 1456 l 1,3,-1
 439 1456 l 1,0,-1
124 136 m 0,4,5
 124 201 124 201 168 245.5 c 128,-1,6
 212 290 212 290 286 290 c 256,7,8
 360 290 360 290 404 245.5 c 128,-1,9
 448 201 448 201 448 136 c 0,10,11
 448 72 448 72 404 28 c 128,-1,12
 360 -16 360 -16 286 -16 c 256,13,14
 212 -16 212 -16 168 28 c 128,-1,15
 124 72 124 72 124 136 c 0,4,5
EndSplineSet
EndChar

StartChar: quotedbl
Encoding: 34 34 7
Width: 657
Flags: W
LayerCount: 2
Fore
SplineSet
266 1399 m 1,0,-1
 227 987 l 1,1,-1
 64 987 l 1,2,-1
 64 1537 l 1,3,-1
 266 1537 l 1,4,-1
 266 1399 l 1,0,-1
591 1399 m 1,5,-1
 552 987 l 1,6,-1
 390 987 l 1,7,-1
 390 1537 l 1,8,-1
 591 1537 l 1,9,-1
 591 1399 l 1,5,-1
EndSplineSet
EndChar

StartChar: numbersign
Encoding: 35 35 8
Width: 1221
Flags: W
LayerCount: 2
Fore
SplineSet
595 0 m 1,0,-1
 667 410 l 1,1,-1
 474 410 l 1,2,-1
 402 0 l 1,3,-1
 219 0 l 1,4,-1
 291 410 l 1,5,-1
 64 410 l 1,6,-1
 64 583 l 1,7,-1
 322 583 l 1,8,-1
 371 867 l 1,9,-1
 139 867 l 1,10,-1
 139 1040 l 1,11,-1
 402 1040 l 1,12,-1
 475 1456 l 1,13,-1
 657 1456 l 1,14,-1
 584 1040 l 1,15,-1
 778 1040 l 1,16,-1
 851 1456 l 1,17,-1
 1034 1456 l 1,18,-1
 961 1040 l 1,19,-1
 1180 1040 l 1,20,-1
 1180 867 l 1,21,-1
 930 867 l 1,22,-1
 881 583 l 1,23,-1
 1104 583 l 1,24,-1
 1104 410 l 1,25,-1
 850 410 l 1,26,-1
 778 0 l 1,27,-1
 595 0 l 1,0,-1
504 583 m 1,28,-1
 698 583 l 1,29,-1
 747 867 l 1,30,-1
 554 867 l 1,31,-1
 504 583 l 1,28,-1
EndSplineSet
EndChar

StartChar: dollar
Encoding: 36 36 9
Width: 1175
Flags: W
LayerCount: 2
Fore
SplineSet
1080 386 m 0,0,1
 1080 210 1080 210 971 106.5 c 128,-1,2
 862 3 862 3 682 -17 c 1,3,-1
 682 -215 l 1,4,-1
 523 -215 l 1,5,-1
 523 -17 l 1,6,7
 357 1 357 1 224.5 108.5 c 128,-1,8
 92 216 92 216 92 457 c 1,9,-1
 381 457 l 1,10,11
 381 315 381 315 449.5 263 c 128,-1,12
 518 211 518 211 600 211 c 0,13,14
 695 211 695 211 743 260 c 128,-1,15
 791 309 791 309 791 384 c 0,16,17
 791 466 791 466 743.5 514.5 c 128,-1,18
 696 563 696 563 583 606 c 0,19,20
 387 680 387 680 267 777 c 128,-1,21
 147 874 147 874 147 1070 c 0,22,23
 147 1240 147 1240 255.5 1347.5 c 128,-1,24
 364 1455 364 1455 543 1474 c 1,25,-1
 543 1688 l 1,26,-1
 702 1688 l 1,27,-1
 702 1471 l 1,28,29
 875 1446 875 1446 977.5 1325.5 c 128,-1,30
 1080 1205 1080 1205 1080 1006 c 1,31,-1
 791 1006 l 1,32,33
 791 1125 791 1125 741 1185 c 128,-1,34
 691 1245 691 1245 608 1245 c 0,35,36
 518 1245 518 1245 477 1194.5 c 128,-1,37
 436 1144 436 1144 436 1070 c 0,38,39
 436 995 436 995 481 947.5 c 128,-1,40
 526 900 526 900 646 853 c 0,41,42
 840 776 840 776 960 678.5 c 128,-1,43
 1080 581 1080 581 1080 386 c 0,0,1
EndSplineSet
Substitution2: "'c2sc' Capitals to Small Capitals lookup 0 subtable" dollar.smcp
Position2: "'cpsp' Capital Spacing lookup 0 subtable" dx=36 dy=0 dh=72 dv=0
EndChar

StartChar: percent
Encoding: 37 37 10
Width: 1512
Flags: W
LayerCount: 2
Fore
SplineSet
95 1099 m 2,0,-1
 95 1176 l 2,1,2
 95 1300 95 1300 176 1388.5 c 128,-1,3
 257 1477 257 1477 411 1477 c 0,4,5
 568 1477 568 1477 647.5 1388.5 c 128,-1,6
 727 1300 727 1300 727 1176 c 2,7,-1
 727 1099 l 2,8,9
 727 977 727 977 647.5 888.5 c 128,-1,10
 568 800 568 800 413 800 c 256,11,12
 258 800 258 800 176.5 888.5 c 128,-1,13
 95 977 95 977 95 1099 c 2,0,-1
1181 1247 m 1,14,-1
 470 109 l 1,15,-1
 329 185 l 1,16,-1
 1040 1323 l 1,17,-1
 1181 1247 l 1,14,-1
288 1176 m 2,18,-1
 288 1099 l 2,19,20
 288 1047 288 1047 318.5 1007 c 128,-1,21
 349 967 349 967 413 967 c 0,22,23
 475 967 475 967 505 1007 c 128,-1,24
 535 1047 535 1047 535 1099 c 2,25,-1
 535 1176 l 2,26,27
 535 1229 535 1229 504.5 1269.5 c 128,-1,28
 474 1310 474 1310 411 1310 c 0,29,30
 349 1310 349 1310 318.5 1269.5 c 128,-1,31
 288 1229 288 1229 288 1176 c 2,18,-1
791 280 m 2,32,-1
 791 357 l 2,33,34
 791 480 791 480 872.5 568.5 c 128,-1,35
 954 657 954 657 1108 657 c 0,36,37
 1264 657 1264 657 1344 568.5 c 128,-1,38
 1424 480 1424 480 1424 357 c 2,39,-1
 1424 280 l 2,40,41
 1424 157 1424 157 1344 68.5 c 128,-1,42
 1264 -20 1264 -20 1110 -20 c 0,43,44
 955 -20 955 -20 873 68.5 c 128,-1,45
 791 157 791 157 791 280 c 2,32,-1
984 357 m 2,46,-1
 984 280 l 2,47,48
 984 228 984 228 1018 187.5 c 128,-1,49
 1052 147 1052 147 1110 147 c 0,50,51
 1181 147 1181 147 1206.5 187.5 c 128,-1,52
 1232 228 1232 228 1232 280 c 2,53,-1
 1232 357 l 2,54,55
 1232 410 1232 410 1201 450 c 128,-1,56
 1170 490 1170 490 1108 490 c 0,57,58
 1045 490 1045 490 1014.5 450 c 128,-1,59
 984 410 984 410 984 357 c 2,46,-1
EndSplineSet
EndChar

StartChar: ampersand
Encoding: 38 38 11
Width: 1344
Flags: W
LayerCount: 2
Fore
SplineSet
992 0 m 1,0,-1
 917 86 l 1,1,2
 755 -21 755 -21 546 -21 c 0,3,4
 326 -21 326 -21 198.5 95 c 128,-1,5
 71 211 71 211 71 392 c 0,6,7
 71 519 71 519 144.5 603.5 c 128,-1,8
 218 688 218 688 334 771 c 1,9,10
 270 857 270 857 232.5 934 c 128,-1,11
 195 1011 195 1011 195 1093 c 0,12,13
 195 1266 195 1266 303.5 1371.5 c 128,-1,14
 412 1477 412 1477 593 1477 c 0,15,16
 763 1477 763 1477 863.5 1375.5 c 128,-1,17
 964 1274 964 1274 964 1137 c 0,18,19
 964 1036 964 1036 909.5 957 c 128,-1,20
 855 878 855 878 769 816 c 2,21,-1
 676 750 l 1,22,-1
 927 458 l 1,23,24
 987 574 987 574 987 714 c 1,25,-1
 1233 714 l 1,26,27
 1233 581 1233 581 1202.5 464 c 128,-1,28
 1172 347 1172 347 1102 254 c 1,29,-1
 1320 0 l 1,30,-1
 992 0 l 1,0,-1
454 1098 m 0,31,32
 454 1053 454 1053 478.5 1007 c 128,-1,33
 503 961 503 961 543 909 c 1,34,-1
 620 959 l 2,35,36
 682 1000 682 1000 703 1037.5 c 128,-1,37
 724 1075 724 1075 724 1120 c 256,38,39
 724 1165 724 1165 689.5 1204.5 c 128,-1,40
 655 1244 655 1244 592 1244 c 0,41,42
 524 1244 524 1244 489 1201 c 128,-1,43
 454 1158 454 1158 454 1098 c 0,31,32
360 409 m 0,44,45
 360 324 360 324 415 268 c 128,-1,46
 470 212 470 212 561 212 c 0,47,48
 664 212 664 212 758 270 c 1,49,-1
 470 603 l 1,50,-1
 449 588 l 1,51,52
 393 539 393 539 376.5 494.5 c 128,-1,53
 360 450 360 450 360 409 c 0,44,45
EndSplineSet
Substitution2: "'smcp' Lowercase to Small Capitals lookup 1 subtable" ampersand.smcp
Substitution2: "'c2sc' Capitals to Small Capitals lookup 0 subtable" ampersand.smcp
Position2: "'cpsp' Capital Spacing lookup 0 subtable" dx=36 dy=0 dh=72 dv=0
EndChar

StartChar: quotesingle
Encoding: 39 39 12
Width: 332
Flags: W
LayerCount: 2
Fore
SplineSet
275 1389 m 1,0,-1
 246 986 l 1,1,-1
 64 986 l 1,2,-1
 64 1536 l 1,3,-1
 275 1536 l 1,4,-1
 275 1389 l 1,0,-1
EndSplineSet
EndChar

StartChar: parenleft
Encoding: 40 40 13
Width: 719
Flags: W
LayerCount: 2
Fore
SplineSet
125 569 m 2,0,-1
 125 592 l 2,1,2
 125 874 125 874 202.5 1085.5 c 128,-1,3
 280 1297 280 1297 395 1431.5 c 128,-1,4
 510 1566 510 1566 623 1617 c 1,5,-1
 679 1461 l 1,6,7
 566 1376 566 1376 467.5 1168 c 128,-1,8
 369 960 369 960 369 594 c 2,9,-1
 369 567 l 2,10,11
 369 201 369 201 467.5 -7.5 c 128,-1,12
 566 -216 566 -216 679 -302 c 1,13,-1
 623 -455 l 1,14,15
 510 -405 510 -405 395 -270.5 c 128,-1,16
 280 -136 280 -136 202.5 76 c 128,-1,17
 125 288 125 288 125 569 c 2,0,-1
EndSplineSet
EndChar

StartChar: parenright
Encoding: 41 41 14
Width: 722
Flags: W
LayerCount: 2
Fore
SplineSet
610 592 m 2,0,-1
 610 569 l 2,1,2
 610 297 610 297 530 84.5 c 128,-1,3
 450 -128 450 -128 331 -266.5 c 128,-1,4
 212 -405 212 -405 96 -455 c 1,5,-1
 40 -302 l 1,6,7
 152 -218 152 -218 251 -8.5 c 128,-1,8
 350 201 350 201 350 567 c 2,9,-1
 350 594 l 2,10,11
 350 960 350 960 249.5 1170 c 128,-1,12
 149 1380 149 1380 40 1463 c 1,13,-1
 96 1617 l 1,14,15
 212 1566 212 1566 331 1427.5 c 128,-1,16
 450 1289 450 1289 530 1076.5 c 128,-1,17
 610 864 610 864 610 592 c 2,0,-1
EndSplineSet
EndChar

StartChar: asterisk
Encoding: 42 42 15
Width: 929
Flags: W
LayerCount: 2
Fore
SplineSet
125 691 m 1,0,-1
 342 963 l 1,1,-1
 27 1052 l 1,2,-1
 87 1233 l 1,3,-1
 397 1108 l 1,4,-1
 378 1456 l 1,5,-1
 573 1456 l 1,6,-1
 553 1101 l 1,7,-1
 857 1223 l 1,8,-1
 916 1040 l 1,9,-1
 596 951 l 1,10,-1
 805 686 l 1,11,-1
 647 573 l 1,12,-1
 465 864 l 1,13,-1
 284 582 l 1,14,-1
 125 691 l 1,0,-1
EndSplineSet
EndChar

StartChar: plus
Encoding: 43 43 16
Width: 1118
Flags: W
LayerCount: 2
Fore
SplineSet
1055 555 m 1,0,-1
 694 555 l 1,1,-1
 694 146 l 1,2,-1
 420 146 l 1,3,-1
 420 555 l 1,4,-1
 57 555 l 1,5,-1
 57 816 l 1,6,-1
 420 816 l 1,7,-1
 420 1206 l 1,8,-1
 694 1206 l 1,9,-1
 694 816 l 1,10,-1
 1055 816 l 1,11,-1
 1055 555 l 1,0,-1
EndSplineSet
EndChar

StartChar: comma
Encoding: 44 44 17
Width: 501
Flags: W
LayerCount: 2
Fore
SplineSet
384 246 m 1,0,-1
 383 49 l 2,1,2
 383 -64 383 -64 327.5 -178 c 128,-1,3
 272 -292 272 -292 186 -366 c 1,4,-1
 36 -287 l 1,5,6
 73 -219 73 -219 106.5 -146 c 128,-1,7
 140 -73 140 -73 140 35 c 2,8,-1
 140 246 l 1,9,-1
 384 246 l 1,0,-1
EndSplineSet
EndChar

StartChar: hyphen
Encoding: 45 45 18
Width: 795
Flags: W
LayerCount: 2
Fore
SplineSet
673 741 m 1,0,-1
 673 507 l 1,1,-1
 111 507 l 1,2,-1
 111 741 l 1,3,-1
 673 741 l 1,0,-1
EndSplineSet
EndChar

StartChar: period
Encoding: 46 46 19
Width: 596
Flags: W
LayerCount: 2
Fore
SplineSet
126 143 m 0,0,1
 126 209 126 209 170.5 253.5 c 128,-1,2
 215 298 215 298 290 298 c 256,3,4
 365 298 365 298 409 253.5 c 128,-1,5
 453 209 453 209 453 143 c 0,6,7
 453 78 453 78 409 33.5 c 128,-1,8
 365 -11 365 -11 290 -11 c 256,9,10
 215 -11 215 -11 170.5 33.5 c 128,-1,11
 126 78 126 78 126 143 c 0,0,1
EndSplineSet
EndChar

StartChar: slash
Encoding: 47 47 20
Width: 766
Flags: W
LayerCount: 2
Fore
SplineSet
738 1456 m 1,0,-1
 202 -125 l 1,1,-1
 -13 -125 l 1,2,-1
 523 1456 l 1,3,-1
 738 1456 l 1,0,-1
EndSplineSet
Substitution2: "'frac' Diagonal Fractions lookup 31 subtable" fraction
EndChar

StartChar: zero
Encoding: 48 48 21
Width: 1175
Flags: W
LayerCount: 2
Fore
SplineSet
1079 856 m 2,0,-1
 1079 603 l 2,1,2
 1079 274 1079 274 944 127 c 128,-1,3
 809 -20 809 -20 589 -20 c 256,4,5
 369 -20 369 -20 232.5 127 c 128,-1,6
 96 274 96 274 96 603 c 2,7,-1
 96 856 l 2,8,9
 96 1184 96 1184 231.5 1330 c 128,-1,10
 367 1476 367 1476 587 1476 c 256,11,12
 807 1476 807 1476 943 1330 c 128,-1,13
 1079 1184 1079 1184 1079 856 c 2,0,-1
790 564 m 2,14,-1
 790 896 l 2,15,16
 790 1090 790 1090 737 1166.5 c 128,-1,17
 684 1243 684 1243 587 1243 c 0,18,19
 491 1243 491 1243 438 1166.5 c 128,-1,20
 385 1090 385 1090 385 896 c 2,21,-1
 385 564 l 2,22,23
 385 369 385 369 438.5 291 c 128,-1,24
 492 213 492 213 589 213 c 0,25,26
 685 213 685 213 737.5 291 c 128,-1,27
 790 369 790 369 790 564 c 2,14,-1
EndSplineSet
Substitution2: "'numr' Numerators lookup 34 subtable" zero.frac
Substitution2: "'dnom' Denominators lookup 33 subtable" zero.sup
Substitution2: "'pnum' Proportional Numbers lookup 28 subtable" zero.pnum
Substitution2: "'onum' Oldstyle Figures lookup 27 subtable" zero.tnum
Substitution2: "'c2sc' Capitals to Small Capitals lookup 0 subtable" zero.smcp
Position2: "'cpsp' Capital Spacing lookup 0 subtable" dx=36 dy=0 dh=72 dv=0
EndChar

StartChar: one
Encoding: 49 49 22
Width: 1175
Flags: W
LayerCount: 2
Fore
SplineSet
801 1458 m 1,0,-1
 801 0 l 1,1,-1
 512 0 l 1,2,-1
 512 1115 l 1,3,-1
 168 1008 l 1,4,-1
 168 1242 l 1,5,-1
 770 1458 l 1,6,-1
 801 1458 l 1,0,-1
EndSplineSet
Substitution2: "'numr' Numerators lookup 34 subtable" onesuperior
Substitution2: "'dnom' Denominators lookup 33 subtable" one.sup
Substitution2: "'pnum' Proportional Numbers lookup 28 subtable" one.pnum
Substitution2: "'onum' Oldstyle Figures lookup 27 subtable" one.tnum
Substitution2: "'c2sc' Capitals to Small Capitals lookup 0 subtable" one.smcp
Position2: "'cpsp' Capital Spacing lookup 0 subtable" dx=36 dy=0 dh=72 dv=0
EndChar

StartChar: two
Encoding: 50 50 23
Width: 1175
Flags: W
LayerCount: 2
Fore
SplineSet
1097 233 m 1,0,-1
 1097 0 l 1,1,-1
 100 0 l 1,2,-1
 100 198 l 1,3,-1
 571 700 l 2,4,5
 678 818 678 818 719 894.5 c 128,-1,6
 760 971 760 971 760 1035 c 0,7,8
 760 1132 760 1132 711.5 1188 c 128,-1,9
 663 1244 663 1244 572 1244 c 0,10,11
 469 1244 469 1244 414.5 1174 c 128,-1,12
 360 1104 360 1104 360 998 c 1,13,-1
 71 998 l 1,14,15
 71 1195 71 1195 206.5 1336 c 128,-1,16
 342 1477 342 1477 577 1477 c 0,17,18
 806 1477 806 1477 928 1366.5 c 128,-1,19
 1050 1256 1050 1256 1050 1064 c 0,20,21
 1050 918 1050 918 962 786.5 c 128,-1,22
 874 655 874 655 729 504 c 2,23,-1
 471 233 l 1,24,-1
 1097 233 l 1,0,-1
EndSplineSet
Substitution2: "'numr' Numerators lookup 34 subtable" twosuperior
Substitution2: "'dnom' Denominators lookup 33 subtable" two.sup
Substitution2: "'pnum' Proportional Numbers lookup 28 subtable" two.pnum
Substitution2: "'onum' Oldstyle Figures lookup 27 subtable" two.tnum
Substitution2: "'c2sc' Capitals to Small Capitals lookup 0 subtable" two.smcp
Position2: "'cpsp' Capital Spacing lookup 0 subtable" dx=36 dy=0 dh=72 dv=0
EndChar

StartChar: three
Encoding: 51 51 24
Width: 1175
Flags: W
LayerCount: 2
Fore
SplineSet
548 630 m 2,0,-1
 394 630 l 1,1,-1
 394 857 l 1,2,-1
 548 857 l 2,3,4
 657 857 657 857 710.5 911.5 c 128,-1,5
 764 966 764 966 764 1058 c 0,6,7
 764 1139 764 1139 715.5 1191.5 c 128,-1,8
 667 1244 667 1244 567 1244 c 0,9,10
 488 1244 488 1244 429.5 1200 c 128,-1,11
 371 1156 371 1156 371 1079 c 1,12,-1
 82 1079 l 1,13,14
 82 1259 82 1259 221 1368 c 128,-1,15
 360 1477 360 1477 559 1477 c 0,16,17
 780 1477 780 1477 916.5 1371.5 c 128,-1,18
 1053 1266 1053 1266 1053 1062 c 0,19,20
 1053 968 1053 968 995 882.5 c 128,-1,21
 937 797 937 797 831 748 c 1,22,23
 953 705 953 705 1014 616.5 c 128,-1,24
 1075 528 1075 528 1075 409 c 0,25,26
 1075 204 1075 204 927.5 92 c 128,-1,27
 780 -20 780 -20 559 -20 c 0,28,29
 436 -20 436 -20 322.5 25 c 128,-1,30
 209 70 209 70 136.5 162.5 c 128,-1,31
 64 255 64 255 64 399 c 1,32,-1
 354 399 l 1,33,34
 354 318 354 318 414.5 265.5 c 128,-1,35
 475 213 475 213 567 213 c 0,36,37
 670 213 670 213 728 268 c 128,-1,38
 786 323 786 323 786 413 c 0,39,40
 786 529 786 529 722 579.5 c 128,-1,41
 658 630 658 630 548 630 c 2,0,-1
EndSplineSet
Substitution2: "'numr' Numerators lookup 34 subtable" threesuperior
Substitution2: "'dnom' Denominators lookup 33 subtable" three.sup
Substitution2: "'pnum' Proportional Numbers lookup 28 subtable" three.pnum
Substitution2: "'onum' Oldstyle Figures lookup 27 subtable" three.tnum
Substitution2: "'c2sc' Capitals to Small Capitals lookup 0 subtable" three.smcp
Position2: "'cpsp' Capital Spacing lookup 0 subtable" dx=36 dy=0 dh=72 dv=0
EndChar

StartChar: four
Encoding: 52 52 25
Width: 1175
Flags: W
LayerCount: 2
Fore
SplineSet
56 497 m 1,0,-1
 663 1456 l 1,1,-1
 955 1456 l 1,2,-1
 955 548 l 1,3,-1
 1120 548 l 1,4,-1
 1120 315 l 1,5,-1
 955 315 l 1,6,-1
 955 0 l 1,7,-1
 666 0 l 1,8,-1
 666 315 l 1,9,-1
 69 315 l 1,10,-1
 56 497 l 1,0,-1
343 548 m 1,11,-1
 666 548 l 1,12,-1
 666 1065 l 1,13,-1
 646 1030 l 1,14,-1
 343 548 l 1,11,-1
EndSplineSet
Substitution2: "'numr' Numerators lookup 34 subtable" four.frac
Substitution2: "'dnom' Denominators lookup 33 subtable" four.sup
Substitution2: "'pnum' Proportional Numbers lookup 28 subtable" four.pnum
Substitution2: "'onum' Oldstyle Figures lookup 27 subtable" four.tnum
Substitution2: "'c2sc' Capitals to Small Capitals lookup 0 subtable" four.smcp
Position2: "'cpsp' Capital Spacing lookup 0 subtable" dx=36 dy=0 dh=72 dv=0
EndChar

StartChar: five
Encoding: 53 53 26
Width: 1175
Flags: W
LayerCount: 2
Fore
SplineSet
373 660 m 1,0,-1
 143 716 l 1,1,-1
 226 1456 l 1,2,-1
 1042 1456 l 1,3,-1
 1042 1216 l 1,4,-1
 464 1216 l 1,5,-1
 428 902 l 1,6,7
 457 918 457 918 515 937.5 c 128,-1,8
 573 957 573 957 646 957 c 0,9,10
 858 957 858 957 974 828 c 128,-1,11
 1090 699 1090 699 1090 468 c 0,12,13
 1090 274 1090 274 970 127 c 128,-1,14
 850 -20 850 -20 599 -20 c 0,15,16
 410 -20 410 -20 260.5 92 c 128,-1,17
 111 204 111 204 106 406 c 1,18,-1
 392 406 l 1,19,20
 411 213 411 213 597 213 c 0,21,22
 706 213 706 213 753.5 291.5 c 128,-1,23
 801 370 801 370 801 484 c 0,24,25
 801 599 801 599 744 669.5 c 128,-1,26
 687 740 687 740 567 740 c 0,27,28
 488 740 488 740 445 714.5 c 128,-1,29
 402 689 402 689 373 660 c 1,0,-1
EndSplineSet
Substitution2: "'numr' Numerators lookup 34 subtable" five.frac
Substitution2: "'dnom' Denominators lookup 33 subtable" five.sup
Substitution2: "'pnum' Proportional Numbers lookup 28 subtable" five.pnum
Substitution2: "'onum' Oldstyle Figures lookup 27 subtable" five.tnum
Substitution2: "'c2sc' Capitals to Small Capitals lookup 0 subtable" five.smcp
Position2: "'cpsp' Capital Spacing lookup 0 subtable" dx=36 dy=0 dh=72 dv=0
EndChar

StartChar: six
Encoding: 54 54 27
Width: 1175
Flags: W
LayerCount: 2
Fore
SplineSet
1104 480 m 0,0,1
 1104 268 1104 268 970.5 124 c 128,-1,2
 837 -20 837 -20 613 -20 c 0,3,4
 380 -20 380 -20 240.5 142 c 128,-1,5
 101 304 101 304 101 560 c 2,6,-1
 101 671 l 2,7,8
 101 1024 101 1024 296 1247.5 c 128,-1,9
 491 1471 491 1471 843 1471 c 2,10,-1
 884 1471 l 1,11,-1
 884 1233 l 1,12,-1
 866 1233 l 2,13,14
 660 1233 660 1233 540 1131.5 c 128,-1,15
 420 1030 420 1030 396 856 c 1,16,17
 449 910 449 910 523 942.5 c 128,-1,18
 597 975 597 975 690 975 c 0,19,20
 896 975 896 975 1000 828.5 c 128,-1,21
 1104 682 1104 682 1104 480 c 0,0,1
390 522 m 2,22,23
 390 368 390 368 450.5 291 c 128,-1,24
 511 214 511 214 608 214 c 0,25,26
 702 214 702 214 758.5 288.5 c 128,-1,27
 815 363 815 363 815 477 c 0,28,29
 815 593 815 593 758.5 668 c 128,-1,30
 702 743 702 743 602 743 c 0,31,32
 525 743 525 743 470 703.5 c 128,-1,33
 415 664 415 664 390 609 c 1,34,-1
 390 522 l 2,22,23
EndSplineSet
Substitution2: "'numr' Numerators lookup 34 subtable" six.frac
Substitution2: "'dnom' Denominators lookup 33 subtable" six.sup
Substitution2: "'lnum' Lining Figures lookup 30 subtable" six.pnum
Substitution2: "'tnum' Tabular Numbers lookup 29 subtable" six.tnum
Substitution2: "'pnum' Proportional Numbers lookup 28 subtable" six.pnum
Substitution2: "'onum' Oldstyle Figures lookup 27 subtable" six.tnum
Substitution2: "'c2sc' Capitals to Small Capitals lookup 0 subtable" six.smcp
Position2: "'cpsp' Capital Spacing lookup 0 subtable" dx=36 dy=0 dh=72 dv=0
EndChar

StartChar: seven
Encoding: 55 55 28
Width: 1175
Flags: W
LayerCount: 2
Fore
SplineSet
1090 1456 m 1,0,-1
 1090 1295 l 1,1,-1
 527 0 l 1,2,-1
 222 0 l 1,3,-1
 785 1223 l 1,4,-1
 61 1223 l 1,5,-1
 61 1456 l 1,6,-1
 1090 1456 l 1,0,-1
EndSplineSet
Substitution2: "'numr' Numerators lookup 34 subtable" seven.frac
Substitution2: "'dnom' Denominators lookup 33 subtable" seven.sup
Substitution2: "'pnum' Proportional Numbers lookup 28 subtable" seven.pnum
Substitution2: "'onum' Oldstyle Figures lookup 27 subtable" seven.tnum
Substitution2: "'c2sc' Capitals to Small Capitals lookup 0 subtable" seven.smcp
Position2: "'cpsp' Capital Spacing lookup 0 subtable" dx=36 dy=0 dh=72 dv=0
EndChar

StartChar: eight
Encoding: 56 56 29
Width: 1175
Flags: W
LayerCount: 2
Fore
SplineSet
1078 399 m 0,0,1
 1078 193 1078 193 938.5 86.5 c 128,-1,2
 799 -20 799 -20 588 -20 c 256,3,4
 377 -20 377 -20 235.5 86.5 c 128,-1,5
 94 193 94 193 94 399 c 0,6,7
 94 520 94 520 156.5 610.5 c 128,-1,8
 219 701 219 701 324 751 c 1,9,10
 232 799 232 799 179 881.5 c 128,-1,11
 126 964 126 964 126 1069 c 0,12,13
 126 1267 126 1267 256 1372 c 128,-1,14
 386 1477 386 1477 586 1477 c 0,15,16
 789 1477 789 1477 918.5 1372 c 128,-1,17
 1048 1267 1048 1267 1048 1069 c 0,18,19
 1048 963 1048 963 994.5 881 c 128,-1,20
 941 799 941 799 849 750 c 1,21,22
 954 700 954 700 1016 610 c 128,-1,23
 1078 520 1078 520 1078 399 c 0,0,1
759 1055 m 0,24,25
 759 1140 759 1140 713.5 1192 c 128,-1,26
 668 1244 668 1244 586 1244 c 0,27,28
 506 1244 506 1244 460.5 1193.5 c 128,-1,29
 415 1143 415 1143 415 1055 c 0,30,31
 415 969 415 969 460.5 916 c 128,-1,32
 506 863 506 863 588 863 c 256,33,34
 670 863 670 863 714.5 916 c 128,-1,35
 759 969 759 969 759 1055 c 0,24,25
789 420 m 0,36,37
 789 518 789 518 733 574 c 128,-1,38
 677 630 677 630 586 630 c 256,39,40
 495 630 495 630 439.5 574 c 128,-1,41
 384 518 384 518 384 420 c 0,42,43
 384 323 384 323 439.5 268 c 128,-1,44
 495 213 495 213 588 213 c 0,45,46
 680 213 680 213 734.5 268 c 128,-1,47
 789 323 789 323 789 420 c 0,36,37
EndSplineSet
Substitution2: "'numr' Numerators lookup 34 subtable" eight.frac
Substitution2: "'dnom' Denominators lookup 33 subtable" eight.sup
Substitution2: "'lnum' Lining Figures lookup 30 subtable" eight.pnum
Substitution2: "'tnum' Tabular Numbers lookup 29 subtable" eight.tnum
Substitution2: "'pnum' Proportional Numbers lookup 28 subtable" eight.pnum
Substitution2: "'onum' Oldstyle Figures lookup 27 subtable" eight.tnum
Substitution2: "'c2sc' Capitals to Small Capitals lookup 0 subtable" eight.smcp
Position2: "'cpsp' Capital Spacing lookup 0 subtable" dx=36 dy=0 dh=72 dv=0
EndChar

StartChar: nine
Encoding: 57 57 30
Width: 1175
Flags: W
LayerCount: 2
Fore
SplineSet
1069 782 m 2,0,1
 1069 424 1069 424 884.5 204.5 c 128,-1,2
 700 -15 700 -15 327 -15 c 2,3,-1
 304 -15 l 1,4,-1
 304 227 l 1,5,-1
 323 227 l 2,6,7
 543 227 543 227 651.5 318.5 c 128,-1,8
 760 410 760 410 777 583 c 1,9,10
 725 533 725 533 656.5 502 c 128,-1,11
 588 471 588 471 511 471 c 0,12,13
 306 471 306 471 196.5 611.5 c 128,-1,14
 87 752 87 752 87 962 c 0,15,16
 87 1174 87 1174 219.5 1325.5 c 128,-1,17
 352 1477 352 1477 575 1477 c 0,18,19
 800 1477 800 1477 934.5 1313.5 c 128,-1,20
 1069 1150 1069 1150 1069 882 c 2,21,-1
 1069 782 l 2,0,1
375 965 m 0,22,23
 375 853 375 853 426 773 c 128,-1,24
 477 693 477 693 582 693 c 0,25,26
 653 693 653 693 704 729.5 c 128,-1,27
 755 766 755 766 780 818 c 1,28,-1
 780 935 l 2,29,30
 780 1090 780 1090 721 1166.5 c 128,-1,31
 662 1243 662 1243 574 1243 c 0,32,33
 479 1243 479 1243 427 1157.5 c 128,-1,34
 375 1072 375 1072 375 965 c 0,22,23
EndSplineSet
Substitution2: "'numr' Numerators lookup 34 subtable" nine.frac
Substitution2: "'dnom' Denominators lookup 33 subtable" nine.sup
Substitution2: "'pnum' Proportional Numbers lookup 28 subtable" nine.pnum
Substitution2: "'onum' Oldstyle Figures lookup 27 subtable" nine.tnum
Substitution2: "'c2sc' Capitals to Small Capitals lookup 0 subtable" nine.smcp
Position2: "'cpsp' Capital Spacing lookup 0 subtable" dx=36 dy=0 dh=72 dv=0
EndChar

StartChar: less
Encoding: 60 60 33
Width: 1043
Flags: W
LayerCount: 2
Fore
SplineSet
915 137 m 1,0,-1
 55 503 l 1,1,-1
 55 738 l 1,2,-1
 915 1103 l 1,3,-1
 915 824 l 1,4,-1
 347 619 l 1,5,-1
 915 418 l 1,6,-1
 915 137 l 1,0,-1
EndSplineSet
EndChar

StartChar: equal
Encoding: 61 61 34
Width: 1172
Flags: W
LayerCount: 2
Fore
SplineSet
1031 982 m 1,0,-1
 1031 746 l 1,1,-1
 137 746 l 1,2,-1
 137 982 l 1,3,-1
 1031 982 l 1,0,-1
1031 549 m 1,4,-1
 1031 314 l 1,5,-1
 137 314 l 1,6,-1
 137 549 l 1,7,-1
 1031 549 l 1,4,-1
EndSplineSet
EndChar

StartChar: greater
Encoding: 62 62 35
Width: 1058
Flags: W
LayerCount: 2
Fore
SplineSet
120 1103 m 1,0,-1
 992 738 l 1,1,-1
 992 502 l 1,2,-1
 120 137 l 1,3,-1
 120 415 l 1,4,-1
 701 623 l 1,5,-1
 120 825 l 1,6,-1
 120 1103 l 1,0,-1
EndSplineSet
EndChar

StartChar: question
Encoding: 63 63 36
Width: 1020
Flags: W
LayerCount: 2
Fore
SplineSet
603 448 m 1,0,-1
 347 448 l 1,1,2
 348 583 348 583 380.5 667 c 128,-1,3
 413 751 413 751 499 828 c 0,4,5
 568 889 568 889 612.5 944 c 128,-1,6
 657 999 657 999 657 1071 c 0,7,8
 657 1240 657 1240 500 1240 c 0,9,10
 438 1240 438 1240 388 1200 c 128,-1,11
 338 1160 338 1160 336 1070 c 1,12,-1
 46 1070 l 1,13,14
 49 1278 49 1278 179.5 1377 c 128,-1,15
 310 1476 310 1476 500 1476 c 0,16,17
 710 1476 710 1476 828 1374.5 c 128,-1,18
 946 1273 946 1273 946 1084 c 0,19,20
 946 953 946 953 872.5 865.5 c 128,-1,21
 799 778 799 778 701 686 c 0,22,23
 645 636 645 636 625 580 c 128,-1,24
 605 524 605 524 603 448 c 1,0,-1
319 141 m 256,25,26
 319 206 319 206 362.5 250 c 128,-1,27
 406 294 406 294 480 294 c 256,28,29
 554 294 554 294 598 250 c 128,-1,30
 642 206 642 206 642 141 c 256,31,32
 642 76 642 76 598 32 c 128,-1,33
 554 -12 554 -12 480 -12 c 256,34,35
 406 -12 406 -12 362.5 32 c 128,-1,36
 319 76 319 76 319 141 c 256,25,26
EndSplineSet
EndChar

StartChar: at
Encoding: 64 64 37
Width: 1833
Flags: W
LayerCount: 2
Fore
SplineSet
1263 -364 m 1,0,1
 1193 -409 1193 -409 1088 -431 c 128,-1,2
 983 -453 983 -453 890 -453 c 0,3,4
 494 -453 494 -453 280.5 -217.5 c 128,-1,5
 67 18 67 18 83 463 c 0,6,7
 95 736 95 736 205.5 951.5 c 128,-1,8
 316 1167 316 1167 509.5 1291.5 c 128,-1,9
 703 1416 703 1416 963 1416 c 0,10,11
 1354 1416 1354 1416 1558.5 1174 c 128,-1,12
 1763 932 1763 932 1746 537 c 0,13,14
 1741 400 1741 400 1695.5 272 c 128,-1,15
 1650 144 1650 144 1555.5 61.5 c 128,-1,16
 1461 -21 1461 -21 1309 -21 c 0,17,18
 1134 -21 1134 -21 1066 123 c 1,19,20
 966 -18 966 -18 805 -18 c 0,21,22
 659 -18 659 -18 579 105 c 128,-1,23
 499 228 499 228 518 431 c 0,24,25
 546 687 546 687 676.5 838.5 c 128,-1,26
 807 990 807 990 983 990 c 0,27,28
 1099 990 1099 990 1164.5 957 c 128,-1,29
 1230 924 1230 924 1291 881 c 1,30,-1
 1239 304 l 2,31,32
 1229 204 1229 204 1265 172.5 c 128,-1,33
 1301 141 1301 141 1345 141 c 0,34,35
 1443 141 1443 141 1502 253 c 128,-1,36
 1561 365 1561 365 1567 529 c 0,37,38
 1583 858 1583 858 1435 1055.5 c 128,-1,39
 1287 1253 1287 1253 959 1253 c 0,40,41
 755 1253 755 1253 606 1150 c 128,-1,42
 457 1047 457 1047 373.5 868.5 c 128,-1,43
 290 690 290 690 280 463 c 0,44,45
 263 99 263 99 425 -90 c 128,-1,46
 587 -279 587 -279 894 -279 c 0,47,48
 982 -279 982 -279 1072 -259.5 c 128,-1,49
 1162 -240 1162 -240 1225 -210 c 1,50,-1
 1263 -364 l 1,0,1
740 431 m 0,51,52
 717 162 717 162 873 162 c 0,53,54
 910 162 910 162 958 196.5 c 128,-1,55
 1006 231 1006 231 1040 332 c 1,56,-1
 1082 801 l 1,57,58
 1043 814 1043 814 1002 814 c 0,59,60
 778 814 778 814 740 431 c 0,51,52
EndSplineSet
EndChar

StartChar: A
Encoding: 65 65 38
Width: 1379
GlyphClass: 2
Flags: W
AnchorPoint: "Anchor-5" 1379 1600 basechar 0
AnchorPoint: "Anchor-3" 1379 -407 basechar 0
AnchorPoint: "Anchor-2" 1379 1600 basechar 0
AnchorPoint: "Anchor-1" 698 7 basechar 0
AnchorPoint: "Anchor-0" 692 1600 basechar 0
LayerCount: 2
Fore
SplineSet
8 0 m 1,0,-1
 550 1456 l 1,1,-1
 828 1456 l 1,2,-1
 1373 0 l 1,3,-1
 1053 0 l 1,4,-1
 953 300 l 1,5,-1
 426 300 l 1,6,-1
 326 0 l 1,7,-1
 8 0 l 1,0,-1
507 543 m 1,8,-1
 872 543 l 1,9,-1
 690 1090 l 1,10,-1
 507 543 l 1,8,-1
EndSplineSet
Substitution2: "'unic' Unicase lookup 2 subtable" A.unic
Substitution2: "'c2sc' Capitals to Small Capitals lookup 0 subtable" A.smcp
Position2: "'cpsp' Capital Spacing lookup 0 subtable" dx=36 dy=0 dh=72 dv=0
EndChar

StartChar: B
Encoding: 66 66 39
Width: 1307
GlyphClass: 2
Flags: W
AnchorPoint: "Anchor-5" 1307 1612 basechar 0
AnchorPoint: "Anchor-3" 1307 -407 basechar 0
AnchorPoint: "Anchor-2" 1307 1600 basechar 0
AnchorPoint: "Anchor-1" 601 10 basechar 0
AnchorPoint: "Anchor-0" 600 1612 basechar 0
LayerCount: 2
Fore
SplineSet
1212 429 m 0,0,1
 1212 217 1212 217 1075.5 108.5 c 128,-1,2
 939 0 939 0 687 0 c 2,3,-1
 130 0 l 1,4,-1
 130 1456 l 1,5,-1
 641 1456 l 2,6,7
 894 1456 894 1456 1037 1359 c 128,-1,8
 1180 1262 1180 1262 1180 1058 c 0,9,10
 1180 959 1180 959 1130 876 c 128,-1,11
 1080 793 1080 793 972 750 c 1,12,13
 1100 718 1100 718 1156 626 c 128,-1,14
 1212 534 1212 534 1212 429 c 0,0,1
431 1213 m 1,15,-1
 431 847 l 1,16,-1
 641 847 l 2,17,18
 879 847 879 847 879 1027 c 0,19,20
 879 1213 879 1213 641 1213 c 2,21,-1
 431 1213 l 1,15,-1
912 432 m 0,22,23
 912 526 912 526 862.5 580.5 c 128,-1,24
 813 635 813 635 699 635 c 2,25,-1
 431 635 l 1,26,-1
 431 242 l 1,27,-1
 687 242 l 2,28,29
 802 242 802 242 857 296 c 128,-1,30
 912 350 912 350 912 432 c 0,22,23
EndSplineSet
Substitution2: "'c2sc' Capitals to Small Capitals lookup 0 subtable" B.smcp
Position2: "'cpsp' Capital Spacing lookup 0 subtable" dx=36 dy=0 dh=72 dv=0
EndChar

StartChar: C
Encoding: 67 67 40
Width: 1341
GlyphClass: 2
Flags: W
AnchorPoint: "Anchor-5" 1341 1609 basechar 0
AnchorPoint: "Anchor-3" 1341 -407 basechar 0
AnchorPoint: "Anchor-2" 1341 1600 basechar 0
AnchorPoint: "Anchor-1" 685 -3 basechar 0
AnchorPoint: "Anchor-0" 688 1609 basechar 0
LayerCount: 2
Fore
SplineSet
974 485 m 1,0,-1
 1274 485 l 1,1,2
 1259 263 1259 263 1107.5 121.5 c 128,-1,3
 956 -20 956 -20 688 -20 c 0,4,5
 408 -20 408 -20 247 168.5 c 128,-1,6
 86 357 86 357 86 680 c 2,7,-1
 86 775 l 2,8,9
 86 1098 86 1098 251 1287.5 c 128,-1,10
 416 1477 416 1477 691 1477 c 0,11,12
 964 1477 964 1477 1109 1331.5 c 128,-1,13
 1254 1186 1254 1186 1275 962 c 1,14,-1
 975 962 l 1,15,16
 965 1092 965 1092 902.5 1161.5 c 128,-1,17
 840 1231 840 1231 691 1231 c 0,18,19
 391 1231 391 1231 391 777 c 2,20,-1
 391 680 l 2,21,22
 391 454 391 454 459.5 340 c 128,-1,23
 528 226 528 226 688 226 c 0,24,25
 830 226 830 226 896.5 290.5 c 128,-1,26
 963 355 963 355 974 485 c 1,0,-1
EndSplineSet
Substitution2: "'ss06' Style Set 6 lookup 25 subtable" C.ss06
Substitution2: "'c2sc' Capitals to Small Capitals lookup 0 subtable" C.smcp
Position2: "'cpsp' Capital Spacing lookup 0 subtable" dx=36 dy=0 dh=72 dv=0
EndChar

StartChar: D
Encoding: 68 68 41
Width: 1332
GlyphClass: 2
Flags: W
AnchorPoint: "Anchor-5" 1332 1603 basechar 0
AnchorPoint: "Anchor-3" 1332 -407 basechar 0
AnchorPoint: "Anchor-2" 1332 1600 basechar 0
AnchorPoint: "Anchor-1" 528 10 basechar 0
AnchorPoint: "Anchor-0" 527 1603 basechar 0
LayerCount: 2
Fore
SplineSet
130 0 m 1,0,-1
 130 1456 l 1,1,-1
 579 1456 l 2,2,3
 873 1456 873 1456 1058.5 1264 c 128,-1,4
 1244 1072 1244 1072 1244 760 c 2,5,-1
 1244 695 l 2,6,7
 1244 383 1244 383 1058.5 191.5 c 128,-1,8
 873 0 873 0 575 0 c 2,9,-1
 130 0 l 1,0,-1
579 1213 m 2,10,-1
 431 1213 l 1,11,-1
 431 242 l 1,12,-1
 575 242 l 2,13,14
 754 242 754 242 846.5 359.5 c 128,-1,15
 939 477 939 477 939 695 c 2,16,-1
 939 762 l 2,17,18
 939 1213 939 1213 579 1213 c 2,10,-1
EndSplineSet
Substitution2: "'ss06' Style Set 6 lookup 25 subtable" D.ss06
Substitution2: "'c2sc' Capitals to Small Capitals lookup 0 subtable" D.smcp
Position2: "'cpsp' Capital Spacing lookup 0 subtable" dx=36 dy=0 dh=72 dv=0
EndChar

StartChar: E
Encoding: 69 69 42
Width: 1152
GlyphClass: 2
Flags: W
AnchorPoint: "Anchor-5" 1152 1603 basechar 0
AnchorPoint: "Anchor-3" 1152 -407 basechar 0
AnchorPoint: "Anchor-2" 1152 1600 basechar 0
AnchorPoint: "Anchor-1" 638 10 basechar 0
AnchorPoint: "Anchor-0" 635 1603 basechar 0
LayerCount: 2
Fore
SplineSet
130 0 m 1,0,-1
 130 1456 l 1,1,-1
 1104 1456 l 1,2,-1
 1104 1213 l 1,3,-1
 431 1213 l 1,4,-1
 431 866 l 1,5,-1
 1006 866 l 1,6,-1
 1006 631 l 1,7,-1
 431 631 l 1,8,-1
 431 242 l 1,9,-1
 1107 242 l 1,10,-1
 1107 0 l 1,11,-1
 130 0 l 1,0,-1
EndSplineSet
Substitution2: "'unic' Unicase lookup 2 subtable" E.unic
Substitution2: "'c2sc' Capitals to Small Capitals lookup 0 subtable" E.smcp
Position2: "'cpsp' Capital Spacing lookup 0 subtable" dx=36 dy=0 dh=72 dv=0
EndChar

StartChar: F
Encoding: 70 70 43
Width: 1123
GlyphClass: 2
Flags: W
AnchorPoint: "Anchor-5" 1123 1612 basechar 0
AnchorPoint: "Anchor-3" 1123 -407 basechar 0
AnchorPoint: "Anchor-2" 1123 1600 basechar 0
AnchorPoint: "Anchor-1" 531 10 basechar 0
AnchorPoint: "Anchor-0" 635 1612 basechar 0
LayerCount: 2
Fore
SplineSet
130 0 m 1,0,-1
 130 1456 l 1,1,-1
 1079 1456 l 1,2,-1
 1079 1213 l 1,3,-1
 431 1213 l 1,4,-1
 431 837 l 1,5,-1
 1007 837 l 1,6,-1
 1007 595 l 1,7,-1
 431 595 l 1,8,-1
 431 0 l 1,9,-1
 130 0 l 1,0,-1
EndSplineSet
Substitution2: "'c2sc' Capitals to Small Capitals lookup 0 subtable" F.smcp
Position2: "'cpsp' Capital Spacing lookup 0 subtable" dx=36 dy=0 dh=72 dv=0
EndChar

StartChar: G
Encoding: 71 71 44
Width: 1395
GlyphClass: 2
Flags: W
AnchorPoint: "Anchor-5" 1395 1609 basechar 0
AnchorPoint: "Anchor-3" 1395 -407 basechar 0
AnchorPoint: "Anchor-2" 1395 1600 basechar 0
AnchorPoint: "Anchor-1" 727 -3 basechar 0
AnchorPoint: "Anchor-0" 695 1609 basechar 0
LayerCount: 2
Fore
SplineSet
1283 765 m 1,0,-1
 1283 184 l 1,1,2
 1231 122 1231 122 1098.5 51 c 128,-1,3
 966 -20 966 -20 726 -20 c 0,4,5
 443 -20 443 -20 268.5 163.5 c 128,-1,6
 94 347 94 347 94 684 c 2,7,-1
 94 771 l 2,8,9
 94 1108 94 1108 261 1292.5 c 128,-1,10
 428 1477 428 1477 705 1477 c 0,11,12
 988 1477 988 1477 1123 1341 c 128,-1,13
 1258 1205 1258 1205 1282 993 c 1,14,-1
 990 993 l 1,15,16
 973 1103 973 1103 911 1169 c 128,-1,17
 849 1235 849 1235 713 1235 c 0,18,19
 399 1235 399 1235 399 773 c 2,20,-1
 399 684 l 2,21,22
 399 222 399 222 742 222 c 0,23,24
 850 222 850 222 904 246.5 c 128,-1,25
 958 271 958 271 982 294 c 1,26,-1
 982 545 l 1,27,-1
 710 545 l 1,28,-1
 710 765 l 1,29,-1
 1283 765 l 1,0,-1
EndSplineSet
Substitution2: "'ss06' Style Set 6 lookup 25 subtable" G.ss06
Substitution2: "'c2sc' Capitals to Small Capitals lookup 0 subtable" G.smcp
Position2: "'cpsp' Capital Spacing lookup 0 subtable" dx=36 dy=0 dh=72 dv=0
EndChar

StartChar: H
Encoding: 72 72 45
Width: 1448
GlyphClass: 2
Flags: W
AnchorPoint: "Anchor-5" 1448 1603 basechar 0
AnchorPoint: "Anchor-3" 1448 -407 basechar 0
AnchorPoint: "Anchor-2" 1448 1600 basechar 0
AnchorPoint: "Anchor-1" 725 10 basechar 0
AnchorPoint: "Anchor-0" 722 1603 basechar 0
LayerCount: 2
Fore
SplineSet
1016 0 m 1,0,-1
 1016 624 l 1,1,-1
 431 624 l 1,2,-1
 431 0 l 1,3,-1
 130 0 l 1,4,-1
 130 1456 l 1,5,-1
 431 1456 l 1,6,-1
 431 866 l 1,7,-1
 1016 866 l 1,8,-1
 1016 1456 l 1,9,-1
 1316 1456 l 1,10,-1
 1316 0 l 1,11,-1
 1016 0 l 1,0,-1
EndSplineSet
Substitution2: "'c2sc' Capitals to Small Capitals lookup 0 subtable" H.smcp
Position2: "'cpsp' Capital Spacing lookup 0 subtable" dx=36 dy=0 dh=72 dv=0
EndChar

StartChar: I
Encoding: 73 73 46
Width: 598
GlyphClass: 2
Flags: W
AnchorPoint: "Anchor-5" 598 1603 basechar 0
AnchorPoint: "Anchor-3" 598 -407 basechar 0
AnchorPoint: "Anchor-2" 598 1600 basechar 0
AnchorPoint: "Anchor-1" 299 3 basechar 0
AnchorPoint: "Anchor-0" 298 1603 basechar 0
LayerCount: 2
Fore
SplineSet
449 1456 m 1,0,-1
 449 0 l 1,1,-1
 149 0 l 1,2,-1
 149 1456 l 1,3,-1
 449 1456 l 1,0,-1
EndSplineSet
Substitution2: "'c2sc' Capitals to Small Capitals lookup 0 subtable" I.smcp
Position2: "'cpsp' Capital Spacing lookup 0 subtable" dx=36 dy=0 dh=72 dv=0
EndChar

StartChar: J
Encoding: 74 74 47
Width: 1144
GlyphClass: 2
Flags: W
AnchorPoint: "Anchor-5" 1144 1600 basechar 0
AnchorPoint: "Anchor-3" 1144 -407 basechar 0
AnchorPoint: "Anchor-2" 1144 1600 basechar 0
AnchorPoint: "Anchor-1" 512 -10 basechar 0
AnchorPoint: "Anchor-0" 855 1600 basechar 0
LayerCount: 2
Fore
SplineSet
718 448 m 2,0,-1
 718 1456 l 1,1,-1
 1018 1456 l 1,2,-1
 1018 448 l 2,3,4
 1018 230 1018 230 878 105 c 128,-1,5
 738 -20 738 -20 530 -20 c 0,6,7
 316 -20 316 -20 178.5 89.5 c 128,-1,8
 41 199 41 199 41 430 c 1,9,-1
 342 430 l 1,10,11
 342 313 342 313 393 267.5 c 128,-1,12
 444 222 444 222 530 222 c 256,13,14
 616 222 616 222 667 281 c 128,-1,15
 718 340 718 340 718 448 c 2,0,-1
EndSplineSet
Substitution2: "'c2sc' Capitals to Small Capitals lookup 0 subtable" J.smcp
Position2: "'cpsp' Capital Spacing lookup 0 subtable" dx=36 dy=0 dh=72 dv=0
EndChar

StartChar: K
Encoding: 75 75 48
Width: 1301
GlyphClass: 2
Flags: W
AnchorPoint: "Anchor-5" 1301 1600 basechar 0
AnchorPoint: "Anchor-3" 1301 -407 basechar 0
AnchorPoint: "Anchor-2" 1301 1600 basechar 0
AnchorPoint: "Anchor-1" 652 62 basechar 0
AnchorPoint: "Anchor-0" 597 1600 basechar 0
LayerCount: 2
Fore
SplineSet
961 0 m 1,0,-1
 587 585 l 1,1,-1
 431 417 l 1,2,-1
 431 0 l 1,3,-1
 130 0 l 1,4,-1
 130 1456 l 1,5,-1
 431 1456 l 1,6,-1
 431 797 l 1,7,-1
 562 977 l 1,8,-1
 933 1456 l 1,9,-1
 1302 1456 l 1,10,-1
 786 810 l 1,11,-1
 1318 0 l 1,12,-1
 961 0 l 1,0,-1
EndSplineSet
Substitution2: "'ss05' Style Set 5 lookup 24 subtable" K.alt2
Substitution2: "'ss04' Style Set 4 lookup 23 subtable" K.alt
Substitution2: "'salt' Stylistic Alternatives lookup 19 subtable" K.alt
Substitution2: "'c2sc' Capitals to Small Capitals lookup 0 subtable" K.smcp
Position2: "'cpsp' Capital Spacing lookup 0 subtable" dx=36 dy=0 dh=72 dv=0
EndChar

StartChar: L
Encoding: 76 76 49
Width: 1109
GlyphClass: 2
Flags: W
AnchorPoint: "Anchor-5" 1109 1600 basechar 0
AnchorPoint: "Anchor-3" 1109 -407 basechar 0
AnchorPoint: "Anchor-2" 1109 1600 basechar 0
AnchorPoint: "Anchor-1" 601 10 basechar 0
AnchorPoint: "Anchor-0" 287 1600 basechar 0
LayerCount: 2
Fore
SplineSet
1067 242 m 1,0,-1
 1067 0 l 1,1,-1
 130 0 l 1,2,-1
 130 1456 l 1,3,-1
 431 1456 l 1,4,-1
 431 242 l 1,5,-1
 1067 242 l 1,0,-1
EndSplineSet
Substitution2: "'c2sc' Capitals to Small Capitals lookup 0 subtable" L.smcp
Position2: "'cpsp' Capital Spacing lookup 0 subtable" dx=36 dy=0 dh=72 dv=0
EndChar

StartChar: M
Encoding: 77 77 50
Width: 1794
GlyphClass: 2
Flags: W
AnchorPoint: "Anchor-5" 1794 1600 basechar 0
AnchorPoint: "Anchor-3" 1794 -407 basechar 0
AnchorPoint: "Anchor-2" 1794 1600 basechar 0
AnchorPoint: "Anchor-1" 896 10 basechar 0
AnchorPoint: "Anchor-0" 892 1600 basechar 0
LayerCount: 2
Fore
SplineSet
896 400 m 1,0,-1
 1269 1456 l 1,1,-1
 1662 1456 l 1,2,-1
 1662 0 l 1,3,-1
 1361 0 l 1,4,-1
 1361 398 l 1,5,-1
 1391 1082 l 1,6,-1
 999 0 l 1,7,-1
 793 0 l 1,8,-1
 401 1082 l 1,9,-1
 431 398 l 1,10,-1
 431 0 l 1,11,-1
 130 0 l 1,12,-1
 130 1456 l 1,13,-1
 523 1456 l 1,14,-1
 896 400 l 1,0,-1
EndSplineSet
Substitution2: "'unic' Unicase lookup 2 subtable" M.unic
Substitution2: "'c2sc' Capitals to Small Capitals lookup 0 subtable" M.smcp
Position2: "'cpsp' Capital Spacing lookup 0 subtable" dx=36 dy=0 dh=72 dv=0
EndChar

StartChar: N
Encoding: 78 78 51
Width: 1447
GlyphClass: 2
Flags: W
AnchorPoint: "Anchor-5" 1447 1600 basechar 0
AnchorPoint: "Anchor-3" 1447 -407 basechar 0
AnchorPoint: "Anchor-2" 1447 1600 basechar 0
AnchorPoint: "Anchor-1" 724 3 basechar 0
AnchorPoint: "Anchor-0" 726 1600 basechar 0
LayerCount: 2
Fore
SplineSet
1315 1456 m 1,0,-1
 1315 0 l 1,1,-1
 1015 0 l 1,2,-1
 431 959 l 1,3,-1
 431 0 l 1,4,-1
 130 0 l 1,5,-1
 130 1456 l 1,6,-1
 431 1456 l 1,7,-1
 1015 496 l 1,8,-1
 1015 1456 l 1,9,-1
 1315 1456 l 1,0,-1
EndSplineSet
Substitution2: "'unic' Unicase lookup 2 subtable" N.unic
Substitution2: "'c2sc' Capitals to Small Capitals lookup 0 subtable" N.smcp
Position2: "'cpsp' Capital Spacing lookup 0 subtable" dx=36 dy=0 dh=72 dv=0
EndChar

StartChar: O
Encoding: 79 79 52
Width: 1414
GlyphClass: 2
Flags: W
AnchorPoint: "Anchor-5" 1414 1600 basechar 0
AnchorPoint: "Anchor-3" 1414 -407 basechar 0
AnchorPoint: "Anchor-2" 1414 1600 basechar 0
AnchorPoint: "Anchor-1" 711 0 basechar 0
AnchorPoint: "Anchor-0" 706 1600 basechar 0
LayerCount: 2
Fore
SplineSet
1327 760 m 2,0,-1
 1327 695 l 2,1,2
 1327 362 1327 362 1154.5 171 c 128,-1,3
 982 -20 982 -20 708 -20 c 256,4,5
 434 -20 434 -20 260 171 c 128,-1,6
 86 362 86 362 86 695 c 2,7,-1
 86 760 l 2,8,9
 86 1093 86 1093 259 1284.5 c 128,-1,10
 432 1476 432 1476 706 1476 c 256,11,12
 980 1476 980 1476 1153.5 1284.5 c 128,-1,13
 1327 1093 1327 1093 1327 760 c 2,0,-1
1023 695 m 2,14,-1
 1023 762 l 2,15,16
 1023 990 1023 990 940 1109 c 128,-1,17
 857 1228 857 1228 706 1228 c 0,18,19
 554 1228 554 1228 472 1109 c 128,-1,20
 390 990 390 990 390 762 c 2,21,-1
 390 695 l 2,22,23
 390 468 390 468 473 347.5 c 128,-1,24
 556 227 556 227 708 227 c 256,25,26
 860 227 860 227 941.5 347.5 c 128,-1,27
 1023 468 1023 468 1023 695 c 2,14,-1
EndSplineSet
Substitution2: "'ss06' Style Set 6 lookup 25 subtable" O.ss06
Substitution2: "'c2sc' Capitals to Small Capitals lookup 0 subtable" O.smcp
Position2: "'cpsp' Capital Spacing lookup 0 subtable" dx=36 dy=0 dh=72 dv=0
EndChar

StartChar: P
Encoding: 80 80 53
Width: 1322
GlyphClass: 2
Flags: W
AnchorPoint: "Anchor-5" 1322 1612 basechar 0
AnchorPoint: "Anchor-3" 1322 -407 basechar 0
AnchorPoint: "Anchor-2" 1322 1600 basechar 0
AnchorPoint: "Anchor-1" 530 10 basechar 0
AnchorPoint: "Anchor-0" 600 1612 basechar 0
LayerCount: 2
Fore
SplineSet
699 514 m 2,0,-1
 431 514 l 1,1,-1
 431 0 l 1,2,-1
 130 0 l 1,3,-1
 130 1456 l 1,4,-1
 699 1456 l 2,5,6
 957 1456 957 1456 1101.5 1320 c 128,-1,7
 1246 1184 1246 1184 1246 975 c 0,8,9
 1246 764 1246 764 1101.5 639 c 128,-1,10
 957 514 957 514 699 514 c 2,0,-1
431 1213 m 1,11,-1
 431 756 l 1,12,-1
 699 756 l 2,13,14
 828 756 828 756 885 817 c 128,-1,15
 942 878 942 878 942 973 c 256,16,17
 942 1068 942 1068 885 1140.5 c 128,-1,18
 828 1213 828 1213 699 1213 c 2,19,-1
 431 1213 l 1,11,-1
EndSplineSet
Substitution2: "'c2sc' Capitals to Small Capitals lookup 0 subtable" P.smcp
Position2: "'cpsp' Capital Spacing lookup 0 subtable" dx=36 dy=0 dh=72 dv=0
EndChar

StartChar: Q
Encoding: 81 81 54
Width: 1414
GlyphClass: 2
Flags: W
AnchorPoint: "Anchor-5" 1414 1600 basechar 0
AnchorPoint: "Anchor-3" 1414 -407 basechar 0
AnchorPoint: "Anchor-2" 1414 1600 basechar 0
AnchorPoint: "Anchor-1" 698 -10 basechar 0
AnchorPoint: "Anchor-0" 700 1600 basechar 0
LayerCount: 2
Fore
SplineSet
1317 -91 m 1,0,-1
 1127 -260 l 1,1,-1
 818 -11 l 1,2,3
 764 -20 764 -20 706 -20 c 0,4,5
 432 -20 432 -20 258 171 c 128,-1,6
 84 362 84 362 84 695 c 2,7,-1
 84 760 l 2,8,9
 84 1093 84 1093 257 1284.5 c 128,-1,10
 430 1476 430 1476 704 1476 c 0,11,12
 979 1476 979 1476 1152 1284.5 c 128,-1,13
 1325 1093 1325 1093 1325 760 c 2,14,-1
 1325 695 l 2,15,16
 1325 493 1325 493 1259 341 c 128,-1,17
 1193 189 1193 189 1077 99 c 1,18,-1
 1317 -91 l 1,0,-1
1021 695 m 2,19,-1
 1021 762 l 2,20,21
 1021 990 1021 990 938 1109 c 128,-1,22
 855 1228 855 1228 704 1228 c 256,23,24
 553 1228 553 1228 470.5 1109 c 128,-1,25
 388 990 388 990 388 762 c 2,26,-1
 388 695 l 2,27,28
 388 468 388 468 471.5 347.5 c 128,-1,29
 555 227 555 227 706 227 c 0,30,31
 858 227 858 227 939.5 347.5 c 128,-1,32
 1021 468 1021 468 1021 695 c 2,19,-1
EndSplineSet
Substitution2: "'ss06' Style Set 6 lookup 25 subtable" Q.ss06
Substitution2: "'c2sc' Capitals to Small Capitals lookup 0 subtable" Q.smcp
Position2: "'cpsp' Capital Spacing lookup 0 subtable" dx=36 dy=0 dh=72 dv=0
EndChar

StartChar: R
Encoding: 82 82 55
Width: 1307
GlyphClass: 2
Flags: W
AnchorPoint: "Anchor-5" 1307 1600 basechar 0
AnchorPoint: "Anchor-3" 1307 -407 basechar 0
AnchorPoint: "Anchor-2" 1307 1600 basechar 0
AnchorPoint: "Anchor-1" 612 10 basechar 0
AnchorPoint: "Anchor-0" 598 1600 basechar 0
LayerCount: 2
Fore
SplineSet
942 0 m 1,0,-1
 670 534 l 1,1,-1
 431 534 l 1,2,-1
 431 0 l 1,3,-1
 130 0 l 1,4,-1
 130 1456 l 1,5,-1
 672 1456 l 2,6,7
 923 1456 923 1456 1066.5 1343.5 c 128,-1,8
 1210 1231 1210 1231 1210 1016 c 0,9,10
 1210 858 1210 858 1140 761 c 128,-1,11
 1070 664 1070 664 950 610 c 1,12,-1
 1265 14 l 1,13,-1
 1265 0 l 1,14,-1
 942 0 l 1,0,-1
431 1213 m 1,15,-1
 431 776 l 1,16,-1
 672 776 l 2,17,18
 790 776 790 776 849.5 835.5 c 128,-1,19
 909 895 909 895 909 993 c 0,20,21
 909 1094 909 1094 851 1153.5 c 128,-1,22
 793 1213 793 1213 672 1213 c 2,23,-1
 431 1213 l 1,15,-1
EndSplineSet
Substitution2: "'ss03' Style Set 3 lookup 22 subtable" R.alt
Substitution2: "'c2sc' Capitals to Small Capitals lookup 0 subtable" R.smcp
Position2: "'cpsp' Capital Spacing lookup 0 subtable" dx=36 dy=0 dh=72 dv=0
EndChar

StartChar: S
Encoding: 83 83 56
Width: 1259
GlyphClass: 2
Flags: W
AnchorPoint: "Anchor-5" 1259 1600 basechar 0
AnchorPoint: "Anchor-3" 1259 -407 basechar 0
AnchorPoint: "Anchor-2" 1259 1600 basechar 0
AnchorPoint: "Anchor-1" 650 0 basechar 0
AnchorPoint: "Anchor-0" 648 1600 basechar 0
LayerCount: 2
Fore
SplineSet
886 382 m 0,0,1
 886 458 886 458 832 507 c 128,-1,2
 778 556 778 556 601 612 c 0,3,4
 402 676 402 676 258 778 c 128,-1,5
 114 880 114 880 114 1069 c 0,6,7
 114 1252 114 1252 265 1364 c 128,-1,8
 416 1476 416 1476 652 1476 c 0,9,10
 894 1476 894 1476 1040 1349.5 c 128,-1,11
 1186 1223 1186 1223 1186 1027 c 1,12,-1
 886 1027 l 1,13,14
 886 1119 886 1119 827 1178 c 128,-1,15
 768 1237 768 1237 647 1237 c 0,16,17
 529 1237 529 1237 471.5 1187.5 c 128,-1,18
 414 1138 414 1138 414 1068 c 0,19,20
 414 996 414 996 488 948 c 128,-1,21
 562 900 562 900 703 857 c 0,22,23
 942 784 942 784 1064.5 674 c 128,-1,24
 1187 564 1187 564 1187 384 c 0,25,26
 1187 193 1187 193 1043 86.5 c 128,-1,27
 899 -20 899 -20 659 -20 c 0,28,29
 514 -20 514 -20 379 31 c 128,-1,30
 244 82 244 82 157 188 c 128,-1,31
 70 294 70 294 70 459 c 1,32,-1
 371 459 l 1,33,34
 371 326 371 326 450.5 272 c 128,-1,35
 530 218 530 218 659 218 c 0,36,37
 775 218 775 218 830.5 265 c 128,-1,38
 886 312 886 312 886 382 c 0,0,1
EndSplineSet
Substitution2: "'c2sc' Capitals to Small Capitals lookup 0 subtable" S.smcp
Position2: "'cpsp' Capital Spacing lookup 0 subtable" dx=36 dy=0 dh=72 dv=0
EndChar

StartChar: T
Encoding: 84 84 57
Width: 1267
GlyphClass: 2
Flags: W
AnchorPoint: "Anchor-5" 1267 1600 basechar 0
AnchorPoint: "Anchor-3" 1267 -407 basechar 0
AnchorPoint: "Anchor-2" 1267 1600 basechar 0
AnchorPoint: "Anchor-1" 629 7 basechar 0
AnchorPoint: "Anchor-0" 628 1600 basechar 0
LayerCount: 2
Fore
SplineSet
41 1213 m 1,0,-1
 41 1456 l 1,1,-1
 1226 1456 l 1,2,-1
 1226 1213 l 1,3,-1
 781 1213 l 1,4,-1
 781 0 l 1,5,-1
 481 0 l 1,6,-1
 481 1213 l 1,7,-1
 41 1213 l 1,0,-1
EndSplineSet
Substitution2: "'c2sc' Capitals to Small Capitals lookup 0 subtable" T.smcp
Position2: "'cpsp' Capital Spacing lookup 0 subtable" dx=36 dy=0 dh=72 dv=0
EndChar

StartChar: U
Encoding: 85 85 58
Width: 1348
GlyphClass: 2
Flags: W
AnchorPoint: "Anchor-5" 1348 1600 basechar 0
AnchorPoint: "Anchor-3" 1348 -407 basechar 0
AnchorPoint: "Anchor-2" 1348 1600 basechar 0
AnchorPoint: "Anchor-1" 671 0 basechar 0
AnchorPoint: "Anchor-0" 671 1600 basechar 0
LayerCount: 2
Fore
SplineSet
932 1456 m 1,0,-1
 1233 1456 l 1,1,-1
 1233 496 l 2,2,3
 1233 242 1233 242 1075 111 c 128,-1,4
 917 -20 917 -20 675 -20 c 0,5,6
 430 -20 430 -20 273 111 c 128,-1,7
 116 242 116 242 116 496 c 2,8,-1
 116 1456 l 1,9,-1
 417 1456 l 1,10,-1
 417 496 l 2,11,12
 417 352 417 352 485.5 287 c 128,-1,13
 554 222 554 222 675 222 c 256,14,15
 796 222 796 222 864 287 c 128,-1,16
 932 352 932 352 932 496 c 2,17,-1
 932 1456 l 1,0,-1
EndSplineSet
Substitution2: "'unic' Unicase lookup 2 subtable" U.unic
Substitution2: "'c2sc' Capitals to Small Capitals lookup 0 subtable" U.smcp
Position2: "'cpsp' Capital Spacing lookup 0 subtable" dx=36 dy=0 dh=72 dv=0
EndChar

StartChar: V
Encoding: 86 86 59
Width: 1339
GlyphClass: 2
Flags: W
AnchorPoint: "Anchor-5" 1339 1612 basechar 0
AnchorPoint: "Anchor-3" 1339 -407 basechar 0
AnchorPoint: "Anchor-2" 1339 1600 basechar 0
AnchorPoint: "Anchor-1" 669 10 basechar 0
AnchorPoint: "Anchor-0" 669 1612 basechar 0
LayerCount: 2
Fore
SplineSet
1333 1456 m 1,0,-1
 825 0 l 1,1,-1
 513 0 l 1,2,-1
 8 1456 l 1,3,-1
 340 1456 l 1,4,-1
 669 362 l 1,5,-1
 999 1456 l 1,6,-1
 1333 1456 l 1,0,-1
EndSplineSet
Substitution2: "'c2sc' Capitals to Small Capitals lookup 0 subtable" V.smcp
Position2: "'cpsp' Capital Spacing lookup 0 subtable" dx=36 dy=0 dh=72 dv=0
EndChar

StartChar: W
Encoding: 87 87 60
Width: 1792
GlyphClass: 2
Flags: W
AnchorPoint: "Anchor-5" 1792 1600 basechar 0
AnchorPoint: "Anchor-3" 1792 -407 basechar 0
AnchorPoint: "Anchor-2" 1792 1600 basechar 0
AnchorPoint: "Anchor-1" 899 10 basechar 0
AnchorPoint: "Anchor-0" 904 1600 basechar 0
LayerCount: 2
Fore
SplineSet
1759 1456 m 1,0,-1
 1437 0 l 1,1,-1
 1135 0 l 1,2,-1
 898 974 l 1,3,-1
 661 0 l 1,4,-1
 359 0 l 1,5,-1
 35 1456 l 1,6,-1
 334 1456 l 1,7,-1
 531 423 l 1,8,-1
 771 1456 l 1,9,-1
 1025 1456 l 1,10,-1
 1265 423 l 1,11,-1
 1461 1456 l 1,12,-1
 1759 1456 l 1,0,-1
EndSplineSet
Substitution2: "'c2sc' Capitals to Small Capitals lookup 0 subtable" W.smcp
Position2: "'cpsp' Capital Spacing lookup 0 subtable" dx=36 dy=0 dh=72 dv=0
EndChar

StartChar: X
Encoding: 88 88 61
Width: 1302
GlyphClass: 2
Flags: W
AnchorPoint: "Anchor-5" 1302 1612 basechar 0
AnchorPoint: "Anchor-3" 1302 -407 basechar 0
AnchorPoint: "Anchor-2" 1302 1600 basechar 0
AnchorPoint: "Anchor-1" 651 17 basechar 0
AnchorPoint: "Anchor-0" 642 1612 basechar 0
LayerCount: 2
Fore
SplineSet
379 1456 m 1,0,-1
 652 955 l 1,1,-1
 924 1456 l 1,2,-1
 1269 1456 l 1,3,-1
 846 734 l 1,4,-1
 1280 0 l 1,5,-1
 931 0 l 1,6,-1
 652 510 l 1,7,-1
 372 0 l 1,8,-1
 23 0 l 1,9,-1
 458 734 l 1,10,-1
 34 1456 l 1,11,-1
 379 1456 l 1,0,-1
EndSplineSet
Substitution2: "'c2sc' Capitals to Small Capitals lookup 0 subtable" X.smcp
Position2: "'cpsp' Capital Spacing lookup 0 subtable" dx=36 dy=0 dh=72 dv=0
EndChar

StartChar: Y
Encoding: 89 89 62
Width: 1267
GlyphClass: 2
Flags: W
AnchorPoint: "Anchor-5" 1267 1600 basechar 0
AnchorPoint: "Anchor-3" 1267 -407 basechar 0
AnchorPoint: "Anchor-2" 1267 1600 basechar 0
AnchorPoint: "Anchor-1" 632 34 basechar 0
AnchorPoint: "Anchor-0" 635 1600 basechar 0
LayerCount: 2
Fore
SplineSet
331 1456 m 1,0,-1
 633 800 l 1,1,-1
 935 1456 l 1,2,-1
 1264 1456 l 1,3,-1
 785 528 l 1,4,-1
 785 0 l 1,5,-1
 481 0 l 1,6,-1
 481 528 l 1,7,-1
 2 1456 l 1,8,-1
 331 1456 l 1,0,-1
EndSplineSet
Substitution2: "'c2sc' Capitals to Small Capitals lookup 0 subtable" Y.smcp
Position2: "'cpsp' Capital Spacing lookup 0 subtable" dx=36 dy=0 dh=72 dv=0
EndChar

StartChar: Z
Encoding: 90 90 63
Width: 1242
GlyphClass: 2
Flags: W
AnchorPoint: "Anchor-5" 1242 1600 basechar 0
AnchorPoint: "Anchor-3" 1242 -407 basechar 0
AnchorPoint: "Anchor-2" 1242 1600 basechar 0
AnchorPoint: "Anchor-1" 628 10 basechar 0
AnchorPoint: "Anchor-0" 629 1600 basechar 0
LayerCount: 2
Fore
SplineSet
74 1213 m 1,0,-1
 74 1456 l 1,1,-1
 1166 1456 l 1,2,-1
 1166 1284 l 1,3,-1
 449 242 l 1,4,-1
 1182 242 l 1,5,-1
 1182 0 l 1,6,-1
 74 0 l 1,7,-1
 74 176 l 1,8,-1
 794 1213 l 1,9,-1
 74 1213 l 1,0,-1
EndSplineSet
Substitution2: "'c2sc' Capitals to Small Capitals lookup 0 subtable" Z.smcp
Position2: "'cpsp' Capital Spacing lookup 0 subtable" dx=36 dy=0 dh=72 dv=0
EndChar

StartChar: bracketleft
Encoding: 91 91 64
Width: 570
Flags: W
LayerCount: 2
Fore
SplineSet
553 1695 m 1,0,-1
 553 1472 l 1,1,-1
 410 1472 l 1,2,-1
 410 -117 l 1,3,-1
 553 -117 l 1,4,-1
 553 -339 l 1,5,-1
 120 -339 l 1,6,-1
 120 1695 l 1,7,-1
 553 1695 l 1,0,-1
EndSplineSet
EndChar

StartChar: backslash
Encoding: 92 92 65
Width: 865
Flags: W
LayerCount: 2
Fore
SplineSet
608 -125 m 1,0,-1
 0 1456 l 1,1,-1
 295 1456 l 1,2,-1
 903 -125 l 1,3,-1
 608 -125 l 1,0,-1
EndSplineSet
EndChar

StartChar: bracketright
Encoding: 93 93 66
Width: 570
Flags: W
LayerCount: 2
Fore
SplineSet
13 1472 m 1,0,-1
 13 1695 l 1,1,-1
 446 1695 l 1,2,-1
 446 -339 l 1,3,-1
 13 -339 l 1,4,-1
 13 -117 l 1,5,-1
 157 -117 l 1,6,-1
 157 1472 l 1,7,-1
 13 1472 l 1,0,-1
EndSplineSet
EndChar

StartChar: asciicircum
Encoding: 94 94 67
Width: 896
Flags: W
LayerCount: 2
Fore
SplineSet
45 729 m 1,0,-1
 344 1456 l 1,1,-1
 554 1456 l 1,2,-1
 852 729 l 1,3,-1
 623 729 l 1,4,-1
 449 1185 l 1,5,-1
 274 729 l 1,6,-1
 45 729 l 1,0,-1
EndSplineSet
EndChar

StartChar: underscore
Encoding: 95 95 68
Width: 915
Flags: W
LayerCount: 2
Fore
SplineSet
912 0 m 1,0,-1
 912 -226 l 1,1,-1
 1 -226 l 1,2,-1
 1 0 l 1,3,-1
 912 0 l 1,0,-1
EndSplineSet
EndChar

StartChar: grave
Encoding: 96 96 69
Width: 678
Flags: W
LayerCount: 2
Fore
SplineSet
368 1536 m 1,0,-1
 565 1227 l 1,1,-1
 328 1227 l 1,2,-1
 52 1536 l 1,3,-1
 368 1536 l 1,0,-1
EndSplineSet
EndChar

StartChar: a
Encoding: 97 97 70
Width: 1098
GlyphClass: 2
Flags: W
AnchorPoint: "Anchor-5" 1098 1290 basechar 0
AnchorPoint: "Anchor-4" 862 654 basechar 0
AnchorPoint: "Anchor-3" 1098 -407 basechar 0
AnchorPoint: "Anchor-2" 1098 1600 basechar 0
AnchorPoint: "Anchor-1" 476 16 basechar 0
AnchorPoint: "Anchor-0" 551 1290 basechar 0
LayerCount: 2
Fore
SplineSet
738 0 m 1,0,1
 720 38 720 38 709 97 c 1,2,3
 666 49 666 49 599.5 14.5 c 128,-1,4
 533 -20 533 -20 436 -20 c 0,5,6
 281 -20 281 -20 175 71.5 c 128,-1,7
 69 163 69 163 69 304 c 0,8,9
 69 474 69 474 195 567.5 c 128,-1,10
 321 661 321 661 568 661 c 2,11,-1
 697 661 l 1,12,-1
 697 724 l 2,13,14
 697 799 697 799 658.5 843.5 c 128,-1,15
 620 888 620 888 537 888 c 0,16,17
 382 888 382 888 382 758 c 1,18,-1
 93 758 l 1,19,20
 93 899 93 899 218 1000.5 c 128,-1,21
 343 1102 343 1102 553 1102 c 0,22,23
 740 1102 740 1102 863.5 1007 c 128,-1,24
 987 912 987 912 987 722 c 2,25,-1
 987 264 l 2,26,27
 987 172 987 172 998 115 c 128,-1,28
 1009 58 1009 58 1030 17 c 1,29,-1
 1030 0 l 1,30,-1
 738 0 l 1,0,1
499 201 m 0,31,32
 572 201 572 201 623.5 233.5 c 128,-1,33
 675 266 675 266 697 305 c 1,34,-1
 697 493 l 1,35,-1
 579 493 l 2,36,37
 464 493 464 493 411 444.5 c 128,-1,38
 358 396 358 396 358 325 c 0,39,40
 358 271 358 271 395.5 236 c 128,-1,41
 433 201 433 201 499 201 c 0,31,32
EndSplineSet
Substitution2: "'unic' Unicase lookup 2 subtable" A.unic
Substitution2: "'smcp' Lowercase to Small Capitals lookup 1 subtable" A.smcp
EndChar

StartChar: b
Encoding: 98 98 71
Width: 1153
GlyphClass: 2
Flags: W
AnchorPoint: "Anchor-5" 1153 1603 basechar 0
AnchorPoint: "Anchor-3" 1153 -407 basechar 0
AnchorPoint: "Anchor-2" 1153 1600 basechar 0
AnchorPoint: "Anchor-1" 659 -10 basechar 0
AnchorPoint: "Anchor-0" 666 1603 basechar 0
LayerCount: 2
Fore
SplineSet
1086 531 m 2,0,1
 1086 288 1086 288 981.5 134 c 128,-1,2
 877 -20 877 -20 666 -20 c 0,3,4
 573 -20 573 -20 504 15.5 c 128,-1,5
 435 51 435 51 385 115 c 1,6,-1
 372 0 l 1,7,-1
 111 0 l 1,8,-1
 111 1536 l 1,9,-1
 401 1536 l 1,10,-1
 401 986 l 1,11,12
 502 1102 502 1102 664 1102 c 0,13,14
 877 1102 877 1102 981.5 947 c 128,-1,15
 1086 792 1086 792 1086 552 c 2,16,-1
 1086 531 l 2,0,1
591 868 m 0,17,18
 454 868 454 868 401 755 c 1,19,-1
 401 327 l 1,20,21
 454 214 454 214 593 214 c 0,22,23
 715 214 715 214 756 304 c 128,-1,24
 797 394 797 394 797 531 c 2,25,-1
 797 552 l 2,26,27
 797 680 797 680 755.5 774 c 128,-1,28
 714 868 714 868 591 868 c 0,17,18
EndSplineSet
Substitution2: "'ss06' Style Set 6 lookup 25 subtable" b.ss06
Substitution2: "'unic' Unicase lookup 2 subtable" B
Substitution2: "'smcp' Lowercase to Small Capitals lookup 1 subtable" B.smcp
EndChar

StartChar: c
Encoding: 99 99 72
Width: 1069
GlyphClass: 2
Flags: W
AnchorPoint: "Anchor-5" 1069 1290 basechar 0
AnchorPoint: "Anchor-3" 1069 -407 basechar 0
AnchorPoint: "Anchor-2" 1069 1600 basechar 0
AnchorPoint: "Anchor-1" 554 -3 basechar 0
AnchorPoint: "Anchor-0" 535 1290 basechar 0
LayerCount: 2
Fore
SplineSet
561 213 m 0,0,1
 640 213 640 213 691 256.5 c 128,-1,2
 742 300 742 300 743 374 c 1,3,-1
 1015 374 l 1,4,5
 1013 202 1013 202 883.5 91 c 128,-1,6
 754 -20 754 -20 566 -20 c 0,7,8
 315 -20 315 -20 190.5 138.5 c 128,-1,9
 66 297 66 297 66 527 c 2,10,-1
 66 555 l 2,11,12
 66 784 66 784 190 943 c 128,-1,13
 314 1102 314 1102 565 1102 c 0,14,15
 764 1102 764 1102 888.5 988 c 128,-1,16
 1013 874 1013 874 1015 679 c 1,17,-1
 743 679 l 1,18,19
 742 758 742 758 695 813.5 c 128,-1,20
 648 869 648 869 560 869 c 0,21,22
 433 869 433 869 394.5 772.5 c 128,-1,23
 356 676 356 676 356 555 c 2,24,-1
 356 527 l 2,25,26
 356 402 356 402 394.5 307.5 c 128,-1,27
 433 213 433 213 561 213 c 0,0,1
EndSplineSet
Substitution2: "'ss06' Style Set 6 lookup 25 subtable" c.ss06
Substitution2: "'unic' Unicase lookup 2 subtable" C
Substitution2: "'smcp' Lowercase to Small Capitals lookup 1 subtable" C.smcp
EndChar

StartChar: d
Encoding: 100 100 73
Width: 1155
GlyphClass: 2
Flags: W
AnchorPoint: "Anchor-5" 1155 1603 basechar 0
AnchorPoint: "Anchor-3" 1155 -407 basechar 0
AnchorPoint: "Anchor-2" 1155 1600 basechar 0
AnchorPoint: "Anchor-1" 590 0 basechar 0
AnchorPoint: "Anchor-0" 498 1603 basechar 0
LayerCount: 2
Fore
SplineSet
780 0 m 1,0,-1
 766 115 l 1,1,2
 716 52 716 52 647.5 16 c 128,-1,3
 579 -20 579 -20 489 -20 c 0,4,5
 288 -20 288 -20 177 136 c 128,-1,6
 66 292 66 292 66 528 c 2,7,-1
 66 549 l 2,8,9
 66 796 66 796 177 949 c 128,-1,10
 288 1102 288 1102 491 1102 c 0,11,12
 649 1102 649 1102 751 985 c 1,13,-1
 751 1536 l 1,14,-1
 1041 1536 l 1,15,-1
 1041 0 l 1,16,-1
 780 0 l 1,0,-1
356 528 m 2,17,18
 356 398 356 398 402 306.5 c 128,-1,19
 448 215 448 215 562 215 c 0,20,21
 694 215 694 215 751 327 c 1,22,-1
 751 756 l 1,23,24
 696 868 696 868 564 868 c 0,25,26
 451 868 451 868 403.5 775.5 c 128,-1,27
 356 683 356 683 356 549 c 2,28,-1
 356 528 l 2,17,18
EndSplineSet
Substitution2: "'ss06' Style Set 6 lookup 25 subtable" d.ss06
Substitution2: "'unic' Unicase lookup 2 subtable" D
Substitution2: "'smcp' Lowercase to Small Capitals lookup 1 subtable" D.smcp
EndChar

StartChar: e
Encoding: 101 101 74
Width: 1107
GlyphClass: 2
Flags: W
AnchorPoint: "Anchor-5" 1107 1291 basechar 0
AnchorPoint: "Anchor-4" 917 654 basechar 0
AnchorPoint: "Anchor-3" 1107 -407 basechar 0
AnchorPoint: "Anchor-2" 1107 1600 basechar 0
AnchorPoint: "Anchor-1" 569 0 basechar 0
AnchorPoint: "Anchor-0" 545 1291 basechar 0
LayerCount: 2
Fore
SplineSet
1032 176 m 1,0,1
 980 102 980 102 874 41 c 128,-1,2
 768 -20 768 -20 610 -20 c 0,3,4
 357 -20 357 -20 215 133.5 c 128,-1,5
 73 287 73 287 73 504 c 2,6,-1
 73 543 l 2,7,8
 73 788 73 788 209.5 945 c 128,-1,9
 346 1102 346 1102 578 1102 c 0,10,11
 811 1102 811 1102 933 956 c 128,-1,12
 1055 810 1055 810 1055 570 c 2,13,-1
 1055 447 l 1,14,-1
 366 447 l 1,15,16
 381 342 381 342 449 277.5 c 128,-1,17
 517 213 517 213 628 213 c 0,18,19
 793 213 793 213 889 334 c 1,20,-1
 1032 176 l 1,0,1
576 869 m 0,21,22
 484 869 484 869 434 807 c 128,-1,23
 384 745 384 745 369 645 c 1,24,-1
 771 645 l 1,25,-1
 771 667 l 2,26,27
 769 754 769 754 722.5 811.5 c 128,-1,28
 676 869 676 869 576 869 c 0,21,22
EndSplineSet
Substitution2: "'ss07' Style Set 7 lookup 26 subtable" e.ss07
Substitution2: "'unic' Unicase lookup 2 subtable" E.unic
Substitution2: "'smcp' Lowercase to Small Capitals lookup 1 subtable" E.smcp
EndChar

StartChar: f
Encoding: 102 102 75
Width: 734
GlyphClass: 2
Flags: W
AnchorPoint: "Anchor-5" 734 1688 basechar 0
AnchorPoint: "Anchor-3" 734 -407 basechar 0
AnchorPoint: "Anchor-2" 734 1600 basechar 0
AnchorPoint: "Anchor-1" 330 10 basechar 0
AnchorPoint: "Anchor-0" 459 1688 basechar 0
LayerCount: 2
Fore
SplineSet
695 871 m 1,0,-1
 480 871 l 1,1,-1
 480 0 l 1,2,-1
 190 0 l 1,3,-1
 190 871 l 1,4,-1
 29 871 l 1,5,-1
 29 1082 l 1,6,-1
 190 1082 l 1,7,-1
 190 1176 l 2,8,9
 190 1361 190 1361 297 1459 c 128,-1,10
 404 1557 404 1557 587 1557 c 0,11,12
 657 1557 657 1557 735 1537 c 1,13,-1
 732 1313 l 1,14,15
 694 1322 694 1322 643 1322 c 0,16,17
 480 1322 480 1322 480 1176 c 2,18,-1
 480 1082 l 1,19,-1
 695 1082 l 1,20,-1
 695 871 l 1,0,-1
EndSplineSet
Substitution2: "'unic' Unicase lookup 2 subtable" F
Substitution2: "'smcp' Lowercase to Small Capitals lookup 1 subtable" F.smcp
EndChar

StartChar: g
Encoding: 103 103 76
Width: 1170
GlyphClass: 2
Flags: W
AnchorPoint: "Anchor-5" 1170 1290 basechar 0
AnchorPoint: "Anchor-3" 1170 -407 basechar 0
AnchorPoint: "Anchor-2" 1170 1600 basechar 0
AnchorPoint: "Anchor-1" 554 -447 basechar 0
AnchorPoint: "Anchor-0" 554 1290 basechar 0
LayerCount: 2
Fore
SplineSet
1059 37 m 2,0,1
 1059 -186 1059 -186 914.5 -306 c 128,-1,2
 770 -426 770 -426 538 -426 c 0,3,4
 440 -426 440 -426 322.5 -385 c 128,-1,5
 205 -344 205 -344 135 -257 c 1,6,-1
 263 -81 l 1,7,8
 370 -201 370 -201 526 -201 c 0,9,10
 641 -201 641 -201 705 -139.5 c 128,-1,11
 769 -78 769 -78 769 36 c 2,12,-1
 769 94 l 1,13,14
 667 -20 667 -20 506 -20 c 0,15,16
 304 -20 304 -20 186.5 136 c 128,-1,17
 69 292 69 292 69 528 c 2,18,-1
 69 549 l 2,19,20
 69 796 69 796 186.5 949 c 128,-1,21
 304 1102 304 1102 508 1102 c 0,22,23
 603 1102 603 1102 671 1070 c 128,-1,24
 739 1038 739 1038 786 980 c 1,25,-1
 797 1082 l 1,26,-1
 1059 1082 l 1,27,-1
 1059 37 l 2,0,1
358 528 m 2,28,29
 358 398 358 398 411.5 306.5 c 128,-1,30
 465 215 465 215 579 215 c 0,31,32
 711 215 711 215 769 315 c 1,33,-1
 769 769 l 1,34,35
 712 868 712 868 581 868 c 0,36,37
 468 868 468 868 413 775.5 c 128,-1,38
 358 683 358 683 358 549 c 2,39,-1
 358 528 l 2,28,29
EndSplineSet
Substitution2: "'ss07' Style Set 7 lookup 26 subtable" g.ss07
Substitution2: "'ss06' Style Set 6 lookup 25 subtable" g.ss06
Substitution2: "'ss01' Style Set 1 lookup 20 subtable" g.alt
Substitution2: "'salt' Stylistic Alternatives lookup 19 subtable" g.alt
Substitution2: "'unic' Unicase lookup 2 subtable" G
Substitution2: "'smcp' Lowercase to Small Capitals lookup 1 subtable" G.smcp
EndChar

StartChar: h
Encoding: 104 104 77
Width: 1147
GlyphClass: 2
Flags: W
AnchorPoint: "Anchor-5" 1147 1671 basechar 0
AnchorPoint: "Anchor-3" 1147 -407 basechar 0
AnchorPoint: "Anchor-2" 1147 1600 basechar 0
AnchorPoint: "Anchor-1" 583 10 basechar 0
AnchorPoint: "Anchor-0" 524 1671 basechar 0
LayerCount: 2
Fore
SplineSet
577 868 m 0,0,1
 451 868 451 868 394 771 c 1,2,-1
 394 0 l 1,3,-1
 105 0 l 1,4,-1
 105 1536 l 1,5,-1
 394 1536 l 1,6,-1
 394 965 l 1,7,8
 507 1102 507 1102 683 1102 c 0,9,10
 843 1102 843 1102 941.5 1007 c 128,-1,11
 1040 912 1040 912 1040 682 c 2,12,-1
 1040 0 l 1,13,-1
 750 0 l 1,14,-1
 750 684 l 2,15,16
 750 789 750 789 705 828.5 c 128,-1,17
 660 868 660 868 577 868 c 0,0,1
EndSplineSet
Substitution2: "'unic' Unicase lookup 2 subtable" H
Substitution2: "'smcp' Lowercase to Small Capitals lookup 1 subtable" H.smcp
EndChar

StartChar: i
Encoding: 105 105 78
Width: 543
GlyphClass: 2
Flags: W
AnchorPoint: "Anchor-5" 543 1600 basechar 0
AnchorPoint: "Anchor-4" 334 654 basechar 0
AnchorPoint: "Anchor-3" 543 -407 basechar 0
AnchorPoint: "Anchor-2" 543 1600 basechar 0
AnchorPoint: "Anchor-1" 271 10 basechar 0
AnchorPoint: "Anchor-0" 271 1600 basechar 0
LayerCount: 2
Fore
SplineSet
109 1362 m 0,0,1
 109 1427 109 1427 153 1469.5 c 128,-1,2
 197 1512 197 1512 271 1512 c 256,3,4
 345 1512 345 1512 389 1469.5 c 128,-1,5
 433 1427 433 1427 433 1362 c 0,6,7
 433 1298 433 1298 389 1255.5 c 128,-1,8
 345 1213 345 1213 271 1213 c 256,9,10
 197 1213 197 1213 153 1255.5 c 128,-1,11
 109 1298 109 1298 109 1362 c 0,0,1
417 1082 m 1,12,-1
 417 0 l 1,13,-1
 127 0 l 1,14,-1
 127 1082 l 1,15,-1
 417 1082 l 1,12,-1
EndSplineSet
Substitution2: "Single Substitution lookup 5 subtable" uni0069.ccmp
Substitution2: "'unic' Unicase lookup 2 subtable" I
Substitution2: "'smcp' Lowercase to Small Capitals lookup 1 subtable" I.smcp
EndChar

StartChar: j
Encoding: 106 106 79
Width: 533
GlyphClass: 2
Flags: W
AnchorPoint: "Anchor-5" 533 1600 basechar 0
AnchorPoint: "Anchor-3" 533 -407 basechar 0
AnchorPoint: "Anchor-2" 533 1600 basechar 0
AnchorPoint: "Anchor-1" 190 -459 basechar 0
AnchorPoint: "Anchor-0" 223 1600 basechar 0
LayerCount: 2
Fore
SplineSet
105 1362 m 0,0,1
 105 1427 105 1427 148.5 1469.5 c 128,-1,2
 192 1512 192 1512 266 1512 c 256,3,4
 340 1512 340 1512 384 1469.5 c 128,-1,5
 428 1427 428 1427 428 1362 c 0,6,7
 428 1298 428 1298 384 1255.5 c 128,-1,8
 340 1213 340 1213 266 1213 c 256,9,10
 192 1213 192 1213 148.5 1255.5 c 128,-1,11
 105 1298 105 1298 105 1362 c 0,0,1
127 1082 m 1,12,-1
 417 1082 l 1,13,-1
 417 -60 l 2,14,15
 417 -243 417 -243 320.5 -340 c 128,-1,16
 224 -437 224 -437 49 -437 c 0,17,18
 -27 -437 -27 -437 -96 -420 c 1,19,-1
 -96 -191 l 1,20,21
 -50 -200 -50 -200 -4 -200 c 0,22,23
 127 -200 127 -200 127 -60 c 2,24,-1
 127 1082 l 1,12,-1
EndSplineSet
Substitution2: "Single Substitution lookup 5 subtable" uni006A.ccmp
Substitution2: "'unic' Unicase lookup 2 subtable" J
Substitution2: "'smcp' Lowercase to Small Capitals lookup 1 subtable" J.smcp
EndChar

StartChar: k
Encoding: 107 107 80
Width: 1094
GlyphClass: 2
Flags: W
AnchorPoint: "Anchor-5" 964 1603 basechar 0
AnchorPoint: "Anchor-3" 1094 -407 basechar 0
AnchorPoint: "Anchor-2" 1094 1600 basechar 0
AnchorPoint: "Anchor-1" 564 41 basechar 0
AnchorPoint: "Anchor-0" 651 1603 basechar 0
LayerCount: 2
Fore
SplineSet
782 0 m 1,0,-1
 504 434 l 1,1,-1
 401 331 l 1,2,-1
 401 0 l 1,3,-1
 112 0 l 1,4,-1
 112 1537 l 1,5,-1
 401 1537 l 1,6,-1
 401 686 l 1,7,-1
 457 758 l 1,8,-1
 733 1082 l 1,9,-1
 1080 1082 l 1,10,-1
 690 632 l 1,11,-1
 1115 0 l 1,12,-1
 782 0 l 1,0,-1
EndSplineSet
Substitution2: "'ss05' Style Set 5 lookup 24 subtable" k.alt2
Substitution2: "'ss04' Style Set 4 lookup 23 subtable" k.alt
Substitution2: "'unic' Unicase lookup 2 subtable" K
Substitution2: "'smcp' Lowercase to Small Capitals lookup 1 subtable" K.smcp
EndChar

StartChar: l
Encoding: 108 108 81
Width: 543
GlyphClass: 2
Flags: W
AnchorPoint: "Anchor-5" 543 1683 basechar 0
AnchorPoint: "Anchor-3" 543 -407 basechar 0
AnchorPoint: "Anchor-2" 543 1600 basechar 0
AnchorPoint: "Anchor-1" 271 10 basechar 0
AnchorPoint: "Anchor-0" 271 1683 basechar 0
LayerCount: 2
Fore
SplineSet
417 1536 m 1,0,-1
 417 0 l 1,1,-1
 127 0 l 1,2,-1
 127 1536 l 1,3,-1
 417 1536 l 1,0,-1
EndSplineSet
Substitution2: "'unic' Unicase lookup 2 subtable" L
Substitution2: "'smcp' Lowercase to Small Capitals lookup 1 subtable" L.smcp
EndChar

StartChar: m
Encoding: 109 109 82
Width: 1773
GlyphClass: 2
Flags: W
AnchorPoint: "Anchor-5" 1773 1290 basechar 0
AnchorPoint: "Anchor-3" 1773 -407 basechar 0
AnchorPoint: "Anchor-2" 1773 1600 basechar 0
AnchorPoint: "Anchor-1" 902 10 basechar 0
AnchorPoint: "Anchor-0" 906 1290 basechar 0
LayerCount: 2
Fore
SplineSet
578 868 m 0,0,1
 458 868 458 868 401 766 c 1,2,-1
 401 0 l 1,3,-1
 111 0 l 1,4,-1
 111 1082 l 1,5,-1
 383 1082 l 1,6,-1
 393 963 l 1,7,8
 506 1102 506 1102 703 1102 c 0,9,10
 800 1102 800 1102 874.5 1063 c 128,-1,11
 949 1024 949 1024 990 937 c 1,12,13
 1042 1014 1042 1014 1123.5 1058 c 128,-1,14
 1205 1102 1205 1102 1315 1102 c 0,15,16
 1472 1102 1472 1102 1567 1009 c 128,-1,17
 1662 916 1662 916 1662 689 c 2,18,-1
 1662 0 l 1,19,-1
 1372 0 l 1,20,-1
 1372 690 l 2,21,22
 1372 798 1372 798 1328.5 833 c 128,-1,23
 1285 868 1285 868 1210 868 c 0,24,25
 1082 868 1082 868 1031 747 c 1,26,27
 1031 735 1031 735 1031 722 c 2,28,-1
 1031 0 l 1,29,-1
 742 0 l 1,30,-1
 742 688 l 2,31,32
 742 795 742 795 698 831.5 c 128,-1,33
 654 868 654 868 578 868 c 0,0,1
EndSplineSet
Substitution2: "'unic' Unicase lookup 2 subtable" M.unic
Substitution2: "'smcp' Lowercase to Small Capitals lookup 1 subtable" M.smcp
EndChar

StartChar: n
Encoding: 110 110 83
Width: 1147
GlyphClass: 2
Flags: W
AnchorPoint: "Anchor-5" 1147 1290 basechar 0
AnchorPoint: "Anchor-3" 1147 -407 basechar 0
AnchorPoint: "Anchor-2" 1147 1600 basechar 0
AnchorPoint: "Anchor-1" 573 10 basechar 0
AnchorPoint: "Anchor-0" 576 1290 basechar 0
LayerCount: 2
Fore
SplineSet
578 868 m 0,0,1
 455 868 455 868 395 764 c 1,2,-1
 395 0 l 1,3,-1
 106 0 l 1,4,-1
 106 1082 l 1,5,-1
 377 1082 l 1,6,-1
 387 958 l 1,7,8
 503 1102 503 1102 698 1102 c 0,9,10
 852 1102 852 1102 946 1010 c 128,-1,11
 1040 918 1040 918 1040 689 c 2,12,-1
 1040 0 l 1,13,-1
 750 0 l 1,14,-1
 750 690 l 2,15,16
 750 794 750 794 705.5 831 c 128,-1,17
 661 868 661 868 578 868 c 0,0,1
EndSplineSet
Substitution2: "'unic' Unicase lookup 2 subtable" N.unic
Substitution2: "'smcp' Lowercase to Small Capitals lookup 1 subtable" N.smcp
EndChar

StartChar: o
Encoding: 111 111 84
Width: 1158
GlyphClass: 2
Flags: W
AnchorPoint: "Anchor-5" 1158 1290 basechar 0
AnchorPoint: "Anchor-4" 970 654 basechar 0
AnchorPoint: "Anchor-3" 1158 -407 basechar 0
AnchorPoint: "Anchor-2" 1158 1600 basechar 0
AnchorPoint: "Anchor-1" 579 -7 basechar 0
AnchorPoint: "Anchor-0" 576 1290 basechar 0
LayerCount: 2
Fore
SplineSet
66 530 m 2,0,-1
 66 551 l 2,1,2
 66 787 66 787 200 944.5 c 128,-1,3
 334 1102 334 1102 578 1102 c 0,4,5
 825 1102 825 1102 958 944.5 c 128,-1,6
 1091 787 1091 787 1091 551 c 2,7,-1
 1091 530 l 2,8,9
 1091 294 1091 294 958 137 c 128,-1,10
 825 -20 825 -20 580 -20 c 0,11,12
 334 -20 334 -20 200 137 c 128,-1,13
 66 294 66 294 66 530 c 2,0,-1
356 551 m 2,14,-1
 356 530 l 2,15,16
 356 398 356 398 406.5 305.5 c 128,-1,17
 457 213 457 213 580 213 c 0,18,19
 701 213 701 213 751.5 305.5 c 128,-1,20
 802 398 802 398 802 530 c 2,21,-1
 802 551 l 2,22,23
 802 680 802 680 751.5 774.5 c 128,-1,24
 701 869 701 869 578 869 c 0,25,26
 456 869 456 869 406 774.5 c 128,-1,27
 356 680 356 680 356 551 c 2,14,-1
EndSplineSet
Substitution2: "'ss06' Style Set 6 lookup 25 subtable" o.ss06
Substitution2: "'unic' Unicase lookup 2 subtable" O
Substitution2: "'smcp' Lowercase to Small Capitals lookup 1 subtable" O.smcp
EndChar

StartChar: p
Encoding: 112 112 85
Width: 1153
GlyphClass: 2
Flags: W
AnchorPoint: "Anchor-5" 1153 1280 basechar 0
AnchorPoint: "Anchor-3" 1153 -407 basechar 0
AnchorPoint: "Anchor-2" 1153 1600 basechar 0
AnchorPoint: "Anchor-1" 253 -407 basechar 0
AnchorPoint: "Anchor-0" 664 1280 basechar 0
LayerCount: 2
Fore
SplineSet
666 -20 m 0,0,1
 504 -20 504 -20 401 95 c 1,2,-1
 401 -416 l 1,3,-1
 111 -416 l 1,4,-1
 111 1082 l 1,5,-1
 380 1082 l 1,6,-1
 391 977 l 1,7,8
 494 1102 494 1102 663 1102 c 0,9,10
 869 1102 869 1102 977.5 951 c 128,-1,11
 1086 800 1086 800 1086 553 c 2,12,-1
 1086 532 l 2,13,14
 1086 296 1086 296 977.5 138 c 128,-1,15
 869 -20 869 -20 666 -20 c 0,0,1
588 868 m 0,16,17
 453 868 453 868 401 763 c 1,18,-1
 401 320 l 1,19,20
 455 213 455 213 590 213 c 0,21,22
 703 213 703 213 750 307 c 128,-1,23
 797 401 797 401 797 532 c 2,24,-1
 797 553 l 2,25,26
 797 687 797 687 748.5 777.5 c 128,-1,27
 700 868 700 868 588 868 c 0,16,17
EndSplineSet
Substitution2: "'ss06' Style Set 6 lookup 25 subtable" p.ss06
Substitution2: "'unic' Unicase lookup 2 subtable" P
Substitution2: "'smcp' Lowercase to Small Capitals lookup 1 subtable" P.smcp
EndChar

StartChar: q
Encoding: 113 113 86
Width: 1157
GlyphClass: 2
Flags: W
AnchorPoint: "Anchor-5" 1157 1290 basechar 0
AnchorPoint: "Anchor-3" 1157 -407 basechar 0
AnchorPoint: "Anchor-2" 1157 1600 basechar 0
AnchorPoint: "Anchor-1" 900 -407 basechar 0
AnchorPoint: "Anchor-0" 537 1290 basechar 0
LayerCount: 2
Fore
SplineSet
1041 1082 m 1,0,-1
 1041 -416 l 1,1,-1
 751 -416 l 1,2,-1
 751 92 l 1,3,4
 649 -20 649 -20 490 -20 c 0,5,6
 287 -20 287 -20 176.5 137 c 128,-1,7
 66 294 66 294 66 530 c 2,8,-1
 66 551 l 2,9,10
 66 798 66 798 176 950 c 128,-1,11
 286 1102 286 1102 492 1102 c 0,12,13
 665 1102 665 1102 769 971 c 1,14,-1
 787 1082 l 1,15,-1
 1041 1082 l 1,0,-1
356 530 m 2,16,17
 356 400 356 400 402.5 306.5 c 128,-1,18
 449 213 449 213 563 213 c 0,19,20
 695 213 695 213 751 319 c 1,21,-1
 751 767 l 1,22,23
 697 869 697 869 565 869 c 0,24,25
 452 869 452 869 404 777.5 c 128,-1,26
 356 686 356 686 356 551 c 2,27,-1
 356 530 l 2,16,17
EndSplineSet
Substitution2: "'ss06' Style Set 6 lookup 25 subtable" q.ss06
Substitution2: "'unic' Unicase lookup 2 subtable" Q
Substitution2: "'smcp' Lowercase to Small Capitals lookup 1 subtable" Q.smcp
EndChar

StartChar: r
Encoding: 114 114 87
Width: 748
GlyphClass: 2
Flags: W
AnchorPoint: "Anchor-5" 748 1290 basechar 0
AnchorPoint: "Anchor-3" 748 -407 basechar 0
AnchorPoint: "Anchor-2" 748 1600 basechar 0
AnchorPoint: "Anchor-1" 260 10 basechar 0
AnchorPoint: "Anchor-0" 411 1290 basechar 0
LayerCount: 2
Fore
SplineSet
615 820 m 0,0,1
 452 820 452 820 401 709 c 1,2,-1
 401 0 l 1,3,-1
 111 0 l 1,4,-1
 111 1082 l 1,5,-1
 384 1082 l 1,6,-1
 393 953 l 1,7,8
 478 1102 478 1102 634 1102 c 0,9,10
 689 1102 689 1102 723 1089 c 1,11,-1
 720 812 l 1,12,13
 698 814 698 814 668.5 817 c 128,-1,14
 639 820 639 820 615 820 c 0,0,1
EndSplineSet
Substitution2: "'unic' Unicase lookup 2 subtable" R
Substitution2: "'smcp' Lowercase to Small Capitals lookup 1 subtable" R.smcp
EndChar

StartChar: s
Encoding: 115 115 88
Width: 1054
GlyphClass: 2
Flags: W
AnchorPoint: "Anchor-5" 1054 1290 basechar 0
AnchorPoint: "Anchor-3" 1054 -407 basechar 0
AnchorPoint: "Anchor-2" 1054 1600 basechar 0
AnchorPoint: "Anchor-1" 529 -10 basechar 0
AnchorPoint: "Anchor-0" 529 1290 basechar 0
LayerCount: 2
Fore
SplineSet
697 300 m 0,0,1
 697 346 697 346 654.5 377.5 c 128,-1,2
 612 409 612 409 476 438 c 0,3,4
 310 473 310 473 200.5 549.5 c 128,-1,5
 91 626 91 626 91 766 c 0,6,7
 91 901 91 901 205.5 1001.5 c 128,-1,8
 320 1102 320 1102 522 1102 c 0,9,10
 733 1102 733 1102 854 1003 c 128,-1,11
 975 904 975 904 975 753 c 1,12,-1
 686 753 l 1,13,14
 686 815 686 815 646 856 c 128,-1,15
 606 897 606 897 521 897 c 0,16,17
 449 897 449 897 408.5 863.5 c 128,-1,18
 368 830 368 830 368 780 c 0,19,20
 368 733 368 733 412.5 703 c 128,-1,21
 457 673 457 673 570 651 c 0,22,23
 746 616 746 616 862 544 c 128,-1,24
 978 472 978 472 978 311 c 0,25,26
 978 168 978 168 855 74 c 128,-1,27
 732 -20 732 -20 523 -20 c 0,28,29
 296 -20 296 -20 176 96.5 c 128,-1,30
 56 213 56 213 56 345 c 1,31,-1
 331 345 l 1,32,33
 335 260 335 260 393.5 223 c 128,-1,34
 452 186 452 186 529 186 c 0,35,36
 697 186 697 186 697 300 c 0,0,1
EndSplineSet
Substitution2: "'unic' Unicase lookup 2 subtable" S
Substitution2: "'smcp' Lowercase to Small Capitals lookup 1 subtable" S.smcp
EndChar

StartChar: t
Encoding: 116 116 89
Width: 692
GlyphClass: 2
Flags: W
AnchorPoint: "Anchor-5" 692 1476 basechar 0
AnchorPoint: "Anchor-3" 692 -407 basechar 0
AnchorPoint: "Anchor-2" 692 1600 basechar 0
AnchorPoint: "Anchor-1" 434 0 basechar 0
AnchorPoint: "Anchor-0" 335 1476 basechar 0
LayerCount: 2
Fore
SplineSet
653 7 m 1,0,1
 617 -5 617 -5 574.5 -12.5 c 128,-1,2
 532 -20 532 -20 479 -20 c 0,3,4
 337 -20 337 -20 253 54 c 128,-1,5
 169 128 169 128 169 300 c 2,6,-1
 169 871 l 1,7,-1
 10 871 l 1,8,-1
 10 1082 l 1,9,-1
 169 1082 l 1,10,-1
 169 1349 l 1,11,-1
 458 1349 l 1,12,-1
 458 1082 l 1,13,-1
 642 1082 l 1,14,-1
 642 871 l 1,15,-1
 458 871 l 1,16,-1
 458 330 l 2,17,18
 458 262 458 262 486 240 c 128,-1,19
 514 218 514 218 569 218 c 0,20,21
 595 218 595 218 616.5 220.5 c 128,-1,22
 638 223 638 223 653 226 c 1,23,-1
 653 7 l 1,0,1
EndSplineSet
Substitution2: "'unic' Unicase lookup 2 subtable" T
Substitution2: "'smcp' Lowercase to Small Capitals lookup 1 subtable" T.smcp
EndChar

StartChar: u
Encoding: 117 117 90
Width: 1147
GlyphClass: 2
Flags: W
AnchorPoint: "Anchor-5" 1147 1290 basechar 0
AnchorPoint: "Anchor-4" 927 654 basechar 0
AnchorPoint: "Anchor-3" 1147 -407 basechar 0
AnchorPoint: "Anchor-2" 1147 1600 basechar 0
AnchorPoint: "Anchor-1" 572 0 basechar 0
AnchorPoint: "Anchor-0" 573 1290 basechar 0
LayerCount: 2
Fore
SplineSet
768 0 m 1,0,-1
 760 111 l 1,1,2
 654 -20 654 -20 464 -20 c 0,3,4
 304 -20 304 -20 204.5 74 c 128,-1,5
 105 168 105 168 105 382 c 2,6,-1
 105 1082 l 1,7,-1
 394 1082 l 1,8,-1
 394 380 l 2,9,10
 394 290 394 290 437 252.5 c 128,-1,11
 480 215 480 215 547 215 c 0,12,13
 626 215 626 215 675 242.5 c 128,-1,14
 724 270 724 270 750 318 c 1,15,-1
 750 1082 l 1,16,-1
 1040 1082 l 1,17,-1
 1040 0 l 1,18,-1
 768 0 l 1,0,-1
EndSplineSet
Substitution2: "'unic' Unicase lookup 2 subtable" U.unic
Substitution2: "'smcp' Lowercase to Small Capitals lookup 1 subtable" U.smcp
EndChar

StartChar: v
Encoding: 118 118 91
Width: 1036
GlyphClass: 2
Flags: W
AnchorPoint: "Anchor-5" 1036 1280 basechar 0
AnchorPoint: "Anchor-3" 1036 -407 basechar 0
AnchorPoint: "Anchor-2" 1036 1600 basechar 0
AnchorPoint: "Anchor-1" 520 10 basechar 0
AnchorPoint: "Anchor-0" 521 1280 basechar 0
LayerCount: 2
Fore
SplineSet
1019 1082 m 1,0,-1
 654 0 l 1,1,-1
 379 0 l 1,2,-1
 13 1082 l 1,3,-1
 316 1082 l 1,4,-1
 517 355 l 1,5,-1
 717 1082 l 1,6,-1
 1019 1082 l 1,0,-1
EndSplineSet
Substitution2: "'unic' Unicase lookup 2 subtable" V
Substitution2: "'smcp' Lowercase to Small Capitals lookup 1 subtable" V.smcp
EndChar

StartChar: w
Encoding: 119 119 92
Width: 1505
GlyphClass: 2
Flags: W
AnchorPoint: "Anchor-5" 1505 1290 basechar 0
AnchorPoint: "Anchor-3" 1505 -407 basechar 0
AnchorPoint: "Anchor-2" 1505 1600 basechar 0
AnchorPoint: "Anchor-1" 753 10 basechar 0
AnchorPoint: "Anchor-0" 750 1290 basechar 0
LayerCount: 2
Fore
SplineSet
1473 1082 m 1,0,-1
 1198 0 l 1,1,-1
 956 0 l 1,2,-1
 750 681 l 1,3,-1
 545 0 l 1,4,-1
 304 0 l 1,5,-1
 28 1082 l 1,6,-1
 307 1082 l 1,7,-1
 450 394 l 1,8,-1
 646 1082 l 1,9,-1
 855 1082 l 1,10,-1
 1053 395 l 1,11,-1
 1194 1082 l 1,12,-1
 1473 1082 l 1,0,-1
EndSplineSet
Substitution2: "'unic' Unicase lookup 2 subtable" W
Substitution2: "'smcp' Lowercase to Small Capitals lookup 1 subtable" W.smcp
EndChar

StartChar: x
Encoding: 120 120 93
Width: 1043
GlyphClass: 2
Flags: W
AnchorPoint: "Anchor-5" 1043 1280 basechar 0
AnchorPoint: "Anchor-3" 1043 -407 basechar 0
AnchorPoint: "Anchor-2" 1043 1600 basechar 0
AnchorPoint: "Anchor-1" 524 10 basechar 0
AnchorPoint: "Anchor-0" 524 1280 basechar 0
LayerCount: 2
Fore
SplineSet
346 1082 m 1,0,-1
 523 760 l 1,1,-1
 705 1082 l 1,2,-1
 1014 1082 l 1,3,-1
 706 553 l 1,4,-1
 1027 0 l 1,5,-1
 718 0 l 1,6,-1
 524 341 l 1,7,-1
 333 0 l 1,8,-1
 22 0 l 1,9,-1
 343 553 l 1,10,-1
 35 1082 l 1,11,-1
 346 1082 l 1,0,-1
EndSplineSet
Substitution2: "'unic' Unicase lookup 2 subtable" X
Substitution2: "'smcp' Lowercase to Small Capitals lookup 1 subtable" X.smcp
EndChar

StartChar: y
Encoding: 121 121 94
Width: 1029
GlyphClass: 2
Flags: W
AnchorPoint: "Anchor-5" 1029 1290 basechar 0
AnchorPoint: "Anchor-4" 796 654 basechar 0
AnchorPoint: "Anchor-3" 1029 -407 basechar 0
AnchorPoint: "Anchor-2" 1029 1600 basechar 0
AnchorPoint: "Anchor-1" 796 -110 basechar 0
AnchorPoint: "Anchor-0" 521 1290 basechar 0
LayerCount: 2
Fore
SplineSet
592 -162 m 2,0,1
 573 -216 573 -216 536 -280.5 c 128,-1,2
 499 -345 499 -345 429.5 -391 c 128,-1,3
 360 -437 360 -437 246 -437 c 0,4,5
 206 -437 206 -437 179 -432 c 128,-1,6
 152 -427 152 -427 118 -418 c 1,7,-1
 118 -199 l 1,8,9
 128 -200 128 -200 140 -200 c 128,-1,10
 152 -200 152 -200 163 -200 c 0,11,12
 248 -200 248 -200 289 -172.5 c 128,-1,13
 330 -145 330 -145 351 -85 c 2,14,-1
 383 -2 l 1,15,-1
 4 1082 l 1,16,-1
 315 1082 l 1,17,-1
 516 408 l 1,18,-1
 716 1082 l 1,19,-1
 1025 1082 l 1,20,-1
 592 -162 l 2,0,1
EndSplineSet
Substitution2: "'unic' Unicase lookup 2 subtable" Y
Substitution2: "'smcp' Lowercase to Small Capitals lookup 1 subtable" Y.smcp
EndChar

StartChar: z
Encoding: 122 122 95
Width: 1043
GlyphClass: 2
Flags: W
AnchorPoint: "Anchor-5" 1043 1290 basechar 0
AnchorPoint: "Anchor-3" 1043 -407 basechar 0
AnchorPoint: "Anchor-2" 1043 1600 basechar 0
AnchorPoint: "Anchor-1" 525 10 basechar 0
AnchorPoint: "Anchor-0" 522 1290 basechar 0
LayerCount: 2
Fore
SplineSet
90 849 m 1,0,-1
 90 1082 l 1,1,-1
 957 1082 l 1,2,-1
 957 912 l 1,3,-1
 443 233 l 1,4,-1
 972 233 l 1,5,-1
 972 0 l 1,6,-1
 74 0 l 1,7,-1
 74 176 l 1,8,-1
 585 849 l 1,9,-1
 90 849 l 1,0,-1
EndSplineSet
Substitution2: "'unic' Unicase lookup 2 subtable" Z
Substitution2: "'smcp' Lowercase to Small Capitals lookup 1 subtable" Z.smcp
EndChar

StartChar: braceleft
Encoding: 123 123 96
Width: 677
Flags: W
LayerCount: 2
Fore
SplineSet
226 309 m 2,0,1
 226 403 226 403 184 459 c 128,-1,2
 142 515 142 515 48 515 c 1,3,-1
 48 722 l 1,4,5
 142 722 142 722 184 778 c 128,-1,6
 226 834 226 834 226 929 c 2,7,-1
 226 1132 l 2,8,9
 226 1290 226 1290 303 1414.5 c 128,-1,10
 380 1539 380 1539 586 1597 c 1,11,-1
 642 1436 l 1,12,13
 551 1404 551 1404 518.5 1321.5 c 128,-1,14
 486 1239 486 1239 486 1132 c 2,15,-1
 486 929 l 2,16,17
 486 830 486 830 443.5 748 c 128,-1,18
 401 666 401 666 308 619 c 1,19,20
 401 572 401 572 443.5 490 c 128,-1,21
 486 408 486 408 486 309 c 2,22,-1
 486 106 l 2,23,24
 486 -1 486 -1 518.5 -83.5 c 128,-1,25
 551 -166 551 -166 642 -198 c 1,26,-1
 586 -360 l 1,27,28
 380 -302 380 -302 303 -177 c 128,-1,29
 226 -52 226 -52 226 106 c 2,30,-1
 226 309 l 2,0,1
EndSplineSet
EndChar

StartChar: bar
Encoding: 124 124 97
Width: 519
Flags: W
LayerCount: 2
Fore
SplineSet
349 1456 m 1,0,-1
 349 -270 l 1,1,-1
 174 -270 l 1,2,-1
 174 1456 l 1,3,-1
 349 1456 l 1,0,-1
EndSplineSet
EndChar

StartChar: braceright
Encoding: 125 125 98
Width: 677
Flags: W
LayerCount: 2
Fore
SplineSet
450 929 m 2,0,1
 450 834 450 834 492 778 c 128,-1,2
 534 722 534 722 628 722 c 1,3,-1
 628 515 l 1,4,5
 534 515 534 515 492 459 c 128,-1,6
 450 403 450 403 450 309 c 2,7,-1
 450 106 l 2,8,9
 450 -52 450 -52 373 -177 c 128,-1,10
 296 -302 296 -302 90 -360 c 1,11,-1
 34 -198 l 1,12,13
 126 -166 126 -166 158 -83.5 c 128,-1,14
 190 -1 190 -1 190 106 c 2,15,-1
 190 309 l 2,16,17
 190 410 190 410 234 491 c 128,-1,18
 278 572 278 572 374 619 c 1,19,20
 278 665 278 665 234 746.5 c 128,-1,21
 190 828 190 828 190 929 c 2,22,-1
 190 1132 l 2,23,24
 190 1239 190 1239 158 1321.5 c 128,-1,25
 126 1404 126 1404 34 1436 c 1,26,-1
 90 1597 l 1,27,28
 296 1539 296 1539 373 1414.5 c 128,-1,29
 450 1290 450 1290 450 1132 c 2,30,-1
 450 929 l 2,0,1
EndSplineSet
EndChar

StartChar: asciitilde
Encoding: 126 126 99
Width: 1329
Flags: W
LayerCount: 2
Fore
SplineSet
1008 794 m 1,0,-1
 1221 794 l 1,1,2
 1221 604 1221 604 1127.5 490 c 128,-1,3
 1034 376 1034 376 888 376 c 0,4,5
 807 376 807 376 744 408 c 128,-1,6
 681 440 681 440 609 508 c 0,7,8
 523 591 523 591 452 591 c 0,9,10
 393 591 393 591 357 540.5 c 128,-1,11
 321 490 321 490 321 413 c 1,12,-1
 106 416 l 1,13,14
 106 608 106 608 199 718 c 128,-1,15
 292 828 292 828 437 828 c 0,16,17
 518 828 518 828 585 794.5 c 128,-1,18
 652 761 652 761 719 696 c 0,19,20
 804 613 804 613 874 613 c 0,21,22
 933 613 933 613 970.5 665 c 128,-1,23
 1008 717 1008 717 1008 794 c 1,0,-1
EndSplineSet
EndChar

StartChar: exclamdown
Encoding: 161 161 100
Width: 579
Flags: W
LayerCount: 2
Fore
SplineSet
452 949 m 256,0,1
 452 884 452 884 408 840 c 128,-1,2
 364 796 364 796 291 796 c 0,3,4
 217 796 217 796 173 840 c 128,-1,5
 129 884 129 884 129 949 c 256,6,7
 129 1014 129 1014 173 1058 c 128,-1,8
 217 1102 217 1102 291 1102 c 0,9,10
 364 1102 364 1102 408 1058 c 128,-1,11
 452 1014 452 1014 452 949 c 256,0,1
137 -369 m 1,12,-1
 171 639 l 1,13,-1
 411 639 l 1,14,-1
 445 -369 l 1,15,-1
 137 -369 l 1,12,-1
EndSplineSet
EndChar

StartChar: cent
Encoding: 162 162 101
Width: 1179
Flags: W
LayerCount: 2
Fore
SplineSet
1048 374 m 1,0,1
 1047 226 1047 226 948.5 121.5 c 128,-1,2
 850 17 850 17 699 -11 c 1,3,-1
 699 -245 l 1,4,-1
 499 -245 l 1,5,-1
 499 -12 l 1,6,7
 298 21 298 21 199 171 c 128,-1,8
 100 321 100 321 100 527 c 2,9,-1
 100 555 l 2,10,11
 100 760 100 760 199.5 911 c 128,-1,12
 299 1062 299 1062 499 1094 c 1,13,-1
 499 1318 l 1,14,-1
 699 1318 l 1,15,-1
 699 1094 l 1,16,17
 857 1066 857 1066 952 957 c 128,-1,18
 1047 848 1047 848 1048 679 c 1,19,-1
 777 679 l 1,20,21
 775 758 775 758 728.5 813.5 c 128,-1,22
 682 869 682 869 593 869 c 0,23,24
 467 869 467 869 428 772.5 c 128,-1,25
 389 676 389 676 389 555 c 2,26,-1
 389 527 l 2,27,28
 389 402 389 402 427.5 307.5 c 128,-1,29
 466 213 466 213 595 213 c 0,30,31
 674 213 674 213 724.5 256.5 c 128,-1,32
 775 300 775 300 777 374 c 1,33,-1
 1048 374 l 1,0,1
EndSplineSet
EndChar

StartChar: sterling
Encoding: 163 163 102
Width: 1218
Flags: W
LayerCount: 2
Fore
SplineSet
102 0 m 1,0,-1
 102 242 l 1,1,-1
 195 242 l 1,2,3
 242 253 242 253 254 308 c 128,-1,4
 266 363 266 363 266 421 c 2,5,-1
 261 577 l 1,6,-1
 99 577 l 1,7,-1
 99 812 l 1,8,-1
 253 812 l 1,9,-1
 246 1039 l 1,10,11
 246 1246 246 1246 372 1360.5 c 128,-1,12
 498 1475 498 1475 700 1475 c 0,13,14
 919 1475 919 1475 1036.5 1360.5 c 128,-1,15
 1154 1246 1154 1246 1154 1059 c 1,16,-1
 868 1059 l 1,17,18
 868 1156 868 1156 818 1194.5 c 128,-1,19
 768 1233 768 1233 700 1233 c 0,20,21
 633 1233 633 1233 589.5 1184.5 c 128,-1,22
 546 1136 546 1136 546 1039 c 2,23,-1
 555 812 l 1,24,-1
 865 812 l 1,25,-1
 865 577 l 1,26,-1
 565 577 l 1,27,-1
 571 438 l 1,28,29
 571 315 571 315 510 242 c 1,30,-1
 1162 242 l 1,31,-1
 1161 0 l 1,32,-1
 102 0 l 1,0,-1
EndSplineSet
Substitution2: "'c2sc' Capitals to Small Capitals lookup 0 subtable" sterling.smcp
Position2: "'cpsp' Capital Spacing lookup 0 subtable" dx=36 dy=0 dh=72 dv=0
EndChar

StartChar: currency
Encoding: 164 164 103
Width: 1418
Flags: W
LayerCount: 2
Fore
SplineSet
1347 118 m 1,0,-1
 1205 -27 l 1,1,-1
 1074 108 l 1,2,3
 915 -20 915 -20 712 -20 c 0,4,5
 510 -20 510 -20 351 106 c 1,6,-1
 222 -26 l 1,7,-1
 81 118 l 1,8,-1
 217 256 l 1,9,10
 116 413 116 413 116 608 c 0,11,12
 116 812 116 812 225 973 c 1,13,-1
 81 1120 l 1,14,-1
 222 1264 l 1,15,-1
 364 1119 l 1,16,17
 519 1234 519 1234 712 1234 c 0,18,19
 906 1234 906 1234 1061 1117 c 1,20,-1
 1205 1265 l 1,21,-1
 1347 1120 l 1,22,-1
 1200 970 l 1,23,24
 1306 809 1306 809 1306 608 c 0,25,26
 1306 416 1306 416 1208 259 c 1,27,-1
 1347 118 l 1,0,-1
302 608 m 256,28,29
 302 424 302 424 421.5 297 c 128,-1,30
 541 170 541 170 712 170 c 0,31,32
 882 170 882 170 1001.5 297 c 128,-1,33
 1121 424 1121 424 1121 608 c 256,34,35
 1121 792 1121 792 1001.5 918.5 c 128,-1,36
 882 1045 882 1045 712 1045 c 0,37,38
 541 1045 541 1045 421.5 918.5 c 128,-1,39
 302 792 302 792 302 608 c 256,28,29
EndSplineSet
EndChar

StartChar: yen
Encoding: 165 165 104
Width: 1098
Flags: W
LayerCount: 2
Fore
SplineSet
983 279 m 1,0,-1
 695 279 l 1,1,-1
 695 0 l 1,2,-1
 396 0 l 1,3,-1
 396 279 l 1,4,-1
 90 279 l 1,5,-1
 90 452 l 1,6,-1
 396 452 l 1,7,-1
 396 568 l 1,8,-1
 90 568 l 1,9,-1
 90 742 l 1,10,-1
 334 742 l 1,11,-1
 11 1456 l 1,12,-1
 325 1456 l 1,13,-1
 550 892 l 1,14,-1
 775 1456 l 1,15,-1
 1087 1456 l 1,16,-1
 765 742 l 1,17,-1
 983 742 l 1,18,-1
 983 568 l 1,19,-1
 695 568 l 1,20,-1
 695 452 l 1,21,-1
 983 452 l 1,22,-1
 983 279 l 1,0,-1
EndSplineSet
Substitution2: "'c2sc' Capitals to Small Capitals lookup 0 subtable" yen.smcp
Position2: "'cpsp' Capital Spacing lookup 0 subtable" dx=36 dy=0 dh=72 dv=0
EndChar

StartChar: brokenbar
Encoding: 166 166 105
Width: 517
Flags: W
LayerCount: 2
Fore
SplineSet
388 1456 m 1,0,-1
 388 698 l 1,1,-1
 128 698 l 1,2,-1
 128 1456 l 1,3,-1
 388 1456 l 1,0,-1
388 -270 m 1,4,-1
 128 -270 l 1,5,-1
 128 525 l 1,6,-1
 388 525 l 1,7,-1
 388 -270 l 1,4,-1
EndSplineSet
EndChar

StartChar: section
Encoding: 167 167 106
Width: 1287
Flags: W
LayerCount: 2
Fore
SplineSet
1153 -79 m 0,0,1
 1153 -260 1153 -260 1012 -356.5 c 128,-1,2
 871 -453 871 -453 637 -453 c 0,3,4
 501 -453 501 -453 376.5 -415.5 c 128,-1,5
 252 -378 252 -378 172 -287 c 128,-1,6
 92 -196 92 -196 92 -36 c 1,7,-1
 381 -35 l 1,8,9
 381 -147 381 -147 462.5 -183 c 128,-1,10
 544 -219 544 -219 637 -219 c 0,11,12
 864 -219 864 -219 864 -80 c 0,13,14
 864 -15 864 -15 803 25 c 128,-1,15
 742 65 742 65 572 113 c 0,16,17
 348 172 348 172 221 262.5 c 128,-1,18
 94 353 94 353 94 534 c 256,19,20
 94 715 94 715 257 807 c 1,21,22
 191 857 191 857 156 926.5 c 128,-1,23
 121 996 121 996 121 1095 c 0,24,25
 121 1268 121 1268 262.5 1372 c 128,-1,26
 404 1476 404 1476 640 1476 c 0,27,28
 882 1476 882 1476 1020.5 1366 c 128,-1,29
 1159 1256 1159 1256 1159 1050 c 1,30,-1
 870 1050 l 1,31,32
 870 1131 870 1131 812 1187 c 128,-1,33
 754 1243 754 1243 640 1243 c 0,34,35
 519 1243 519 1243 465 1200.5 c 128,-1,36
 411 1158 411 1158 411 1097 c 0,37,38
 411 1024 411 1024 467 987 c 128,-1,39
 523 950 523 950 700 904 c 0,40,41
 930 845 930 845 1055 753.5 c 128,-1,42
 1180 662 1180 662 1180 481 c 256,43,44
 1180 300 1180 300 1019 210 c 1,45,46
 1153 108 1153 108 1153 -79 c 0,0,1
672 354 m 0,47,48
 752 333 752 333 812 312 c 1,49,50
 895 358 895 358 895 453 c 0,51,52
 895 523 895 523 832.5 566.5 c 128,-1,53
 770 610 770 610 600 661 c 0,54,55
 519 684 519 684 459 705 c 1,56,57
 383 663 383 663 383 564 c 0,58,59
 383 486 383 486 439 446 c 128,-1,60
 495 406 495 406 672 354 c 0,47,48
EndSplineSet
EndChar

StartChar: dieresis
Encoding: 168 168 107
Width: 956
Flags: W
LayerCount: 2
Fore
SplineSet
94 1366 m 0,0,1
 94 1419 94 1419 133 1456 c 128,-1,2
 172 1493 172 1493 233 1493 c 0,3,4
 293 1493 293 1493 332 1456 c 128,-1,5
 371 1419 371 1419 371 1366 c 0,6,7
 371 1312 371 1312 332 1275.5 c 128,-1,8
 293 1239 293 1239 233 1239 c 0,9,10
 172 1239 172 1239 133 1275.5 c 128,-1,11
 94 1312 94 1312 94 1366 c 0,0,1
582 1365 m 256,12,13
 582 1418 582 1418 621 1455 c 128,-1,14
 660 1492 660 1492 720 1492 c 0,15,16
 781 1492 781 1492 820 1455 c 128,-1,17
 859 1418 859 1418 859 1365 c 256,18,19
 859 1312 859 1312 820 1275 c 128,-1,20
 781 1238 781 1238 720 1238 c 0,21,22
 660 1238 660 1238 621 1275 c 128,-1,23
 582 1312 582 1312 582 1365 c 256,12,13
EndSplineSet
EndChar

StartChar: copyright
Encoding: 169 169 108
Width: 1607
Flags: W
LayerCount: 2
Fore
SplineSet
87 729 m 256,0,1
 87 940 87 940 183 1109.5 c 128,-1,2
 279 1279 279 1279 440 1377.5 c 128,-1,3
 601 1476 601 1476 797 1476 c 0,4,5
 992 1476 992 1476 1153 1377.5 c 128,-1,6
 1314 1279 1314 1279 1410 1109.5 c 128,-1,7
 1506 940 1506 940 1506 729 c 256,8,9
 1506 518 1506 518 1410 348 c 128,-1,10
 1314 178 1314 178 1153 79 c 128,-1,11
 992 -20 992 -20 797 -20 c 0,12,13
 601 -20 601 -20 440 79 c 128,-1,14
 279 178 279 178 183 348 c 128,-1,15
 87 518 87 518 87 729 c 256,0,1
209 729 m 256,16,17
 209 552 209 552 288.5 411 c 128,-1,18
 368 270 368 270 501 187.5 c 128,-1,19
 634 105 634 105 797 105 c 0,20,21
 959 105 959 105 1092.5 187.5 c 128,-1,22
 1226 270 1226 270 1305 411 c 128,-1,23
 1384 552 1384 552 1384 729 c 256,24,25
 1384 906 1384 906 1305 1046.5 c 128,-1,26
 1226 1187 1226 1187 1092.5 1269 c 128,-1,27
 959 1351 959 1351 797 1351 c 0,28,29
 634 1351 634 1351 501 1269 c 128,-1,30
 368 1187 368 1187 288.5 1046.5 c 128,-1,31
 209 906 209 906 209 729 c 256,16,17
962 596 m 1,32,-1
 1118 596 l 1,33,34
 1118 438 1118 438 1028 360 c 128,-1,35
 938 282 938 282 783 282 c 0,36,37
 622 282 622 282 528 389 c 128,-1,38
 434 496 434 496 434 669 c 2,39,-1
 434 788 l 2,40,41
 434 960 434 960 528 1067.5 c 128,-1,42
 622 1175 622 1175 783 1175 c 0,43,44
 938 1175 938 1175 1028.5 1096.5 c 128,-1,45
 1119 1018 1119 1018 1119 861 c 1,46,-1
 963 861 l 1,47,48
 963 1040 963 1040 783 1040 c 0,49,50
 687 1040 687 1040 637.5 969.5 c 128,-1,51
 588 899 588 899 588 789 c 2,52,-1
 588 669 l 2,53,54
 588 557 588 557 637.5 487 c 128,-1,55
 687 417 687 417 783 417 c 0,56,57
 872 417 872 417 917 457.5 c 128,-1,58
 962 498 962 498 962 596 c 1,32,-1
EndSplineSet
EndChar

StartChar: ordfeminine
Encoding: 170 170 109
Width: 909
Flags: W
LayerCount: 2
Fore
SplineSet
605 705 m 1,0,1
 594 737 594 737 588 773 c 1,2,3
 557 740 557 740 507.5 715.5 c 128,-1,4
 458 691 458 691 387 691 c 0,5,6
 267 691 267 691 202.5 753.5 c 128,-1,7
 138 816 138 816 138 919 c 0,8,9
 138 1150 138 1150 479 1150 c 2,10,-1
 581 1150 l 1,11,-1
 581 1201 l 2,12,13
 581 1328 581 1328 465 1328 c 0,14,15
 327 1328 327 1328 327 1229 c 1,16,-1
 154 1243 l 1,17,18
 154 1344 154 1344 239 1410 c 128,-1,19
 324 1476 324 1476 465 1476 c 0,20,21
 596 1476 596 1476 676 1406.5 c 128,-1,22
 756 1337 756 1337 756 1200 c 2,23,-1
 756 886 l 2,24,25
 756 784 756 784 782 705 c 1,26,-1
 605 705 l 1,0,1
430 835 m 0,27,28
 470 835 470 835 512 853.5 c 128,-1,29
 554 872 554 872 581 897 c 1,30,-1
 581 1033 l 1,31,-1
 480 1033 l 2,32,33
 393 1033 393 1033 353 999.5 c 128,-1,34
 313 966 313 966 313 923 c 0,35,36
 313 835 313 835 430 835 c 0,27,28
EndSplineSet
EndChar

StartChar: logicalnot
Encoding: 172 172 111
Width: 1129
Flags: W
LayerCount: 2
Fore
SplineSet
127 805 m 1,0,-1
 962 805 l 1,1,-1
 962 374 l 1,2,-1
 762 374 l 1,3,-1
 762 634 l 1,4,-1
 127 634 l 1,5,-1
 127 805 l 1,0,-1
EndSplineSet
EndChar

StartChar: registered
Encoding: 174 174 112
Width: 1607
Flags: W
LayerCount: 2
Fore
SplineSet
87 729 m 256,0,1
 87 940 87 940 183 1109.5 c 128,-1,2
 279 1279 279 1279 440 1377.5 c 128,-1,3
 601 1476 601 1476 797 1476 c 0,4,5
 992 1476 992 1476 1153 1377.5 c 128,-1,6
 1314 1279 1314 1279 1410 1109.5 c 128,-1,7
 1506 940 1506 940 1506 729 c 256,8,9
 1506 518 1506 518 1410 348 c 128,-1,10
 1314 178 1314 178 1153 79 c 128,-1,11
 992 -20 992 -20 797 -20 c 0,12,13
 601 -20 601 -20 440 79 c 128,-1,14
 279 178 279 178 183 348 c 128,-1,15
 87 518 87 518 87 729 c 256,0,1
209 729 m 256,16,17
 209 552 209 552 288.5 411 c 128,-1,18
 368 270 368 270 501 187.5 c 128,-1,19
 634 105 634 105 797 105 c 0,20,21
 959 105 959 105 1092.5 187.5 c 128,-1,22
 1226 270 1226 270 1305 411 c 128,-1,23
 1384 552 1384 552 1384 729 c 256,24,25
 1384 906 1384 906 1305 1046.5 c 128,-1,26
 1226 1187 1226 1187 1092.5 1269 c 128,-1,27
 959 1351 959 1351 797 1351 c 0,28,29
 634 1351 634 1351 501 1269 c 128,-1,30
 368 1187 368 1187 288.5 1046.5 c 128,-1,31
 209 906 209 906 209 729 c 256,16,17
811 653 m 2,32,-1
 653 653 l 1,33,-1
 653 316 l 1,34,-1
 502 316 l 1,35,-1
 502 1166 l 1,36,-1
 783 1166 l 2,37,38
 932 1166 932 1166 1020 1099.5 c 128,-1,39
 1108 1033 1108 1033 1108 904 c 0,40,41
 1108 792 1108 792 996 730 c 1,42,43
 1056 699 1056 699 1080.5 642.5 c 128,-1,44
 1105 586 1105 586 1105 515 c 2,45,-1
 1105 459 l 2,46,47
 1105 422 1105 422 1108.5 388 c 128,-1,48
 1112 354 1112 354 1122 332 c 1,49,-1
 1122 316 l 1,50,-1
 967 316 l 1,51,52
 957 342 957 342 955.5 390 c 128,-1,53
 954 438 954 438 954 460 c 2,54,-1
 954 514 l 2,55,56
 954 653 954 653 811 653 c 2,32,-1
653 1033 m 1,57,-1
 653 787 l 1,58,-1
 788 787 l 2,59,60
 856 788 856 788 907 817 c 128,-1,61
 958 846 958 846 958 903 c 0,62,63
 958 976 958 976 919 1004.5 c 128,-1,64
 880 1033 880 1033 783 1033 c 2,65,-1
 653 1033 l 1,57,-1
EndSplineSet
EndChar

StartChar: macron
Encoding: 175 175 113
Width: 1026
Flags: W
LayerCount: 2
Fore
SplineSet
858 1455 m 1,0,-1
 858 1288 l 1,1,-1
 168 1288 l 1,2,-1
 168 1455 l 1,3,-1
 858 1455 l 1,0,-1
EndSplineSet
EndChar

StartChar: degree
Encoding: 176 176 114
Width: 796
Flags: W
LayerCount: 2
Fore
SplineSet
127 1200 m 256,0,1
 127 1313 127 1313 207 1394.5 c 128,-1,2
 287 1476 287 1476 399 1476 c 0,3,4
 509 1476 509 1476 587.5 1394.5 c 128,-1,5
 666 1313 666 1313 666 1200 c 256,6,7
 666 1087 666 1087 587.5 1008 c 128,-1,8
 509 929 509 929 399 929 c 0,9,10
 287 929 287 929 207 1008 c 128,-1,11
 127 1087 127 1087 127 1200 c 256,0,1
273 1200 m 0,12,13
 273 1147 273 1147 310.5 1111.5 c 128,-1,14
 348 1076 348 1076 399 1076 c 256,15,16
 450 1076 450 1076 485 1111.5 c 128,-1,17
 520 1147 520 1147 520 1200 c 0,18,19
 520 1255 520 1255 485 1291.5 c 128,-1,20
 450 1328 450 1328 399 1328 c 256,21,22
 348 1328 348 1328 310.5 1291.5 c 128,-1,23
 273 1255 273 1255 273 1200 c 0,12,13
EndSplineSet
EndChar

StartChar: plusminus
Encoding: 177 177 115
Width: 1101
Flags: W
LayerCount: 2
Fore
SplineSet
1006 702 m 1,0,-1
 678 702 l 1,1,-1
 678 337 l 1,2,-1
 424 337 l 1,3,-1
 424 702 l 1,4,-1
 90 702 l 1,5,-1
 90 943 l 1,6,-1
 424 943 l 1,7,-1
 424 1286 l 1,8,-1
 678 1286 l 1,9,-1
 678 943 l 1,10,-1
 1006 943 l 1,11,-1
 1006 702 l 1,0,-1
977 237 m 1,12,-1
 977 1 l 1,13,-1
 114 1 l 1,14,-1
 114 237 l 1,15,-1
 977 237 l 1,12,-1
EndSplineSet
EndChar

StartChar: twosuperior
Encoding: 178 178 116
Width: 763
Flags: W
LayerCount: 2
Fore
SplineSet
694 831 m 1,0,-1
 694 667 l 1,1,-1
 74 667 l 1,2,-1
 74 805 l 1,3,-1
 361 1062 l 2,4,5
 416 1111 416 1111 441 1153.5 c 128,-1,6
 466 1196 466 1196 466 1219 c 0,7,8
 466 1303 466 1303 370 1303 c 0,9,10
 315 1303 315 1303 288 1269.5 c 128,-1,11
 261 1236 261 1236 261 1193 c 1,12,-1
 56 1193 l 1,13,14
 56 1306 56 1306 138 1387 c 128,-1,15
 220 1468 220 1468 361 1468 c 0,16,17
 509 1468 509 1468 590 1403 c 128,-1,18
 671 1338 671 1338 671 1220 c 0,19,20
 671 1132 671 1132 617.5 1068 c 128,-1,21
 564 1004 564 1004 454 918 c 2,22,-1
 343 831 l 1,23,-1
 694 831 l 1,0,-1
EndSplineSet
EndChar

StartChar: threesuperior
Encoding: 179 179 117
Width: 763
Flags: W
LayerCount: 2
Fore
SplineSet
362 1001 m 2,0,-1
 273 1001 l 1,1,-1
 273 1138 l 1,2,-1
 362 1138 l 2,3,4
 474 1138 474 1138 474 1226 c 0,5,6
 474 1254 474 1254 450 1278.5 c 128,-1,7
 426 1303 426 1303 368 1303 c 0,8,9
 326 1303 326 1303 296.5 1287 c 128,-1,10
 267 1271 267 1271 267 1242 c 1,11,-1
 62 1242 l 1,12,13
 62 1353 62 1353 152.5 1410.5 c 128,-1,14
 243 1468 243 1468 362 1468 c 0,15,16
 503 1468 503 1468 591 1410 c 128,-1,17
 679 1352 679 1352 679 1241 c 0,18,19
 679 1122 679 1122 543 1072 c 1,20,21
 613 1053 613 1053 653 1009.5 c 128,-1,22
 693 966 693 966 693 889 c 0,23,24
 693 778 693 778 598 717 c 128,-1,25
 503 656 503 656 362 656 c 0,26,27
 251 656 251 656 150 712 c 128,-1,28
 49 768 49 768 49 903 c 1,29,-1
 255 903 l 1,30,31
 255 871 255 871 287.5 846 c 128,-1,32
 320 821 320 821 375 821 c 0,33,34
 434 821 434 821 461 847.5 c 128,-1,35
 488 874 488 874 488 909 c 0,36,37
 488 1001 488 1001 362 1001 c 2,0,-1
EndSplineSet
EndChar

StartChar: acute
Encoding: 180 180 118
Width: 680
Flags: W
LayerCount: 2
Fore
SplineSet
102 1227 m 1,0,-1
 298 1536 l 1,1,-1
 613 1536 l 1,2,-1
 336 1227 l 1,3,-1
 102 1227 l 1,0,-1
EndSplineSet
EndChar

StartChar: mu
Encoding: 181 181 119
Width: 1261
Flags: W
LayerCount: 2
Fore
SplineSet
602 -21 m 0,0,1
 500 -21 500 -21 429 24 c 1,2,-1
 429 -416 l 1,3,-1
 140 -416 l 1,4,-1
 140 1082 l 1,5,-1
 429 1082 l 1,6,-1
 429 462 l 2,7,8
 429 309 429 309 478 262 c 128,-1,9
 527 215 527 215 609 215 c 0,10,11
 688 215 688 215 737.5 243 c 128,-1,12
 787 271 787 271 813 319 c 1,13,-1
 813 1082 l 1,14,-1
 1103 1082 l 1,15,-1
 1103 0 l 1,16,-1
 833 0 l 1,17,-1
 828 68 l 1,18,19
 738 -21 738 -21 602 -21 c 0,0,1
EndSplineSet
EndChar

StartChar: paragraph
Encoding: 182 182 120
Width: 1004
Flags: W
LayerCount: 2
Fore
SplineSet
870 0 m 1,0,-1
 651 0 l 1,1,-1
 651 520 l 1,2,-1
 568 520 l 2,3,4
 330 520 330 520 203 653 c 128,-1,5
 76 786 76 786 76 988 c 0,6,7
 76 1189 76 1189 203 1322.5 c 128,-1,8
 330 1456 330 1456 568 1456 c 2,9,-1
 870 1456 l 1,10,-1
 870 0 l 1,0,-1
EndSplineSet
EndChar

StartChar: periodcentered
Encoding: 183 183 121
Width: 617
Flags: W
LayerCount: 2
Fore
SplineSet
140 697 m 0,0,1
 140 763 140 763 184.5 807.5 c 128,-1,2
 229 852 229 852 304 852 c 0,3,4
 378 852 378 852 422.5 807.5 c 128,-1,5
 467 763 467 763 467 697 c 0,6,7
 467 632 467 632 422.5 587.5 c 128,-1,8
 378 543 378 543 304 543 c 0,9,10
 229 543 229 543 184.5 587.5 c 128,-1,11
 140 632 140 632 140 697 c 0,0,1
EndSplineSet
EndChar

StartChar: cedilla
Encoding: 184 184 122
Width: 549
GlyphClass: 2
Flags: W
AnchorPoint: "Anchor-11" 234 -463 basemark 0
LayerCount: 2
Fore
SplineSet
129 7 m 1,0,-1
 346 7 l 1,1,-1
 335 -51 l 1,2,3
 390 -61 390 -61 437.5 -99.5 c 128,-1,4
 485 -138 485 -138 485 -224 c 0,5,6
 485 -331 485 -331 396.5 -396.5 c 128,-1,7
 308 -462 308 -462 135 -462 c 1,8,-1
 128 -296 l 1,9,10
 177 -296 177 -296 209 -277 c 128,-1,11
 241 -258 241 -258 241 -214 c 0,12,13
 241 -173 241 -173 207.5 -157 c 128,-1,14
 174 -141 174 -141 98 -136 c 1,15,-1
 129 7 l 1,0,-1
EndSplineSet
EndChar

StartChar: onesuperior
Encoding: 185 185 123
Width: 763
Flags: W
LayerCount: 2
Fore
SplineSet
528 1454 m 1,0,-1
 528 667 l 1,1,-1
 325 667 l 1,2,-1
 325 1216 l 1,3,-1
 136 1175 l 1,4,-1
 136 1333 l 1,5,-1
 509 1454 l 1,6,-1
 528 1454 l 1,0,-1
EndSplineSet
EndChar

StartChar: ordmasculine
Encoding: 186 186 124
Width: 937
Flags: W
LayerCount: 2
Fore
SplineSet
119 1044 m 2,0,-1
 119 1121 l 2,1,2
 119 1276 119 1276 212.5 1376 c 128,-1,3
 306 1476 306 1476 465 1476 c 0,4,5
 626 1476 626 1476 719 1376 c 128,-1,6
 812 1276 812 1276 812 1121 c 2,7,-1
 812 1044 l 2,8,9
 812 889 812 889 719.5 789.5 c 128,-1,10
 627 690 627 690 467 690 c 0,11,12
 306 690 306 690 212.5 789.5 c 128,-1,13
 119 889 119 889 119 1044 c 2,0,-1
294 1121 m 2,14,-1
 294 1044 l 2,15,16
 294 955 294 955 336.5 895.5 c 128,-1,17
 379 836 379 836 467 836 c 0,18,19
 552 836 552 836 594.5 895.5 c 128,-1,20
 637 955 637 955 637 1044 c 2,21,-1
 637 1121 l 2,22,23
 637 1209 637 1209 594.5 1268.5 c 128,-1,24
 552 1328 552 1328 465 1328 c 0,25,26
 379 1328 379 1328 336.5 1268.5 c 128,-1,27
 294 1209 294 1209 294 1121 c 2,14,-1
EndSplineSet
EndChar

StartChar: questiondown
Encoding: 191 191 129
Width: 1020
Flags: W
LayerCount: 2
Fore
SplineSet
702 950 m 0,0,1
 702 885 702 885 658 841 c 128,-1,2
 614 797 614 797 541 797 c 0,3,4
 467 797 467 797 423 841 c 128,-1,5
 379 885 379 885 379 950 c 0,6,7
 379 1014 379 1014 423 1058.5 c 128,-1,8
 467 1103 467 1103 541 1103 c 0,9,10
 614 1103 614 1103 658 1058.5 c 128,-1,11
 702 1014 702 1014 702 950 c 0,0,1
410 643 m 1,12,-1
 666 643 l 1,13,14
 666 508 666 508 635 426 c 128,-1,15
 604 344 604 344 519 266 c 0,16,17
 452 202 452 202 406 146 c 128,-1,18
 360 90 360 90 360 8 c 0,19,20
 360 -149 360 -149 514 -149 c 0,21,22
 582 -149 582 -149 632 -108.5 c 128,-1,23
 682 -68 682 -68 683 22 c 1,24,-1
 973 22 l 1,25,26
 970 -186 970 -186 840 -285.5 c 128,-1,27
 710 -385 710 -385 519 -385 c 0,28,29
 308 -385 308 -385 189 -284.5 c 128,-1,30
 70 -184 70 -184 70 7 c 0,31,32
 70 138 70 138 146.5 229.5 c 128,-1,33
 223 321 223 321 320 412 c 0,34,35
 376 463 376 463 392 514.5 c 128,-1,36
 408 566 408 566 410 643 c 1,12,-1
EndSplineSet
EndChar

StartChar: AE
Encoding: 198 198 130
Width: 1926
GlyphClass: 2
Flags: W
AnchorPoint: "Anchor-5" 1926 1612 basechar 0
AnchorPoint: "Anchor-2" 1926 1600 basechar 0
AnchorPoint: "Anchor-0" 934 1612 basechar 0
LayerCount: 2
Fore
SplineSet
1866 236 m 1,0,-1
 1866 0 l 1,1,-1
 968 0 l 1,2,-1
 954 334 l 1,3,-1
 510 334 l 1,4,-1
 342 0 l 1,5,-1
 3 0 l 1,6,-1
 789 1456 l 1,7,-1
 1804 1456 l 1,8,-1
 1804 1220 l 1,9,-1
 1207 1220 l 1,10,-1
 1222 866 l 1,11,-1
 1723 866 l 1,12,-1
 1723 630 l 1,13,-1
 1232 630 l 1,14,-1
 1248 236 l 1,15,-1
 1866 236 l 1,0,-1
634 581 m 1,16,-1
 944 581 l 1,17,-1
 920 1150 l 1,18,-1
 634 581 l 1,16,-1
EndSplineSet
Substitution2: "'c2sc' Capitals to Small Capitals lookup 0 subtable" AE.smcp
Position2: "'cpsp' Capital Spacing lookup 0 subtable" dx=36 dy=0 dh=72 dv=0
EndChar

StartChar: multiply
Encoding: 215 215 131
Width: 1088
Flags: W
LayerCount: 2
Fore
SplineSet
1015 374 m 1,0,-1
 844 205 l 1,1,-1
 540 515 l 1,2,-1
 236 205 l 1,3,-1
 65 374 l 1,4,-1
 372 686 l 1,5,-1
 65 999 l 1,6,-1
 236 1168 l 1,7,-1
 540 858 l 1,8,-1
 844 1168 l 1,9,-1
 1015 999 l 1,10,-1
 708 686 l 1,11,-1
 1015 374 l 1,0,-1
EndSplineSet
EndChar

StartChar: Oslash
Encoding: 216 216 132
Width: 1411
GlyphClass: 2
Flags: W
AnchorPoint: "Anchor-5" 1411 1674 basechar 0
AnchorPoint: "Anchor-2" 1411 1600 basechar 0
AnchorPoint: "Anchor-0" 716 1674 basechar 0
LayerCount: 2
Fore
SplineSet
715 -20 m 0,0,1
 552 -20 552 -20 421 50 c 1,2,-1
 335 -95 l 1,3,-1
 148 -95 l 1,4,-1
 291 146 l 1,5,6
 198 239 198 239 146 378 c 128,-1,7
 94 517 94 517 94 695 c 2,8,-1
 94 760 l 2,9,10
 94 1093 94 1093 266.5 1284.5 c 128,-1,11
 439 1476 439 1476 713 1476 c 0,12,13
 890 1476 890 1476 1029 1394 c 1,14,-1
 1102 1518 l 1,15,-1
 1289 1518 l 1,16,-1
 1155 1291 l 1,17,18
 1240 1199 1240 1199 1287 1064.5 c 128,-1,19
 1334 930 1334 930 1334 760 c 2,20,-1
 1334 695 l 2,21,22
 1334 362 1334 362 1162 171 c 128,-1,23
 990 -20 990 -20 715 -20 c 0,0,1
397 695 m 2,24,25
 397 523 397 523 447 410 c 1,26,-1
 894 1167 l 1,27,28
 821 1228 821 1228 713 1228 c 0,29,30
 562 1228 562 1228 479.5 1109 c 128,-1,31
 397 990 397 990 397 762 c 2,32,-1
 397 695 l 2,24,25
1030 762 m 2,33,34
 1030 912 1030 912 993 1017 c 1,35,-1
 553 274 l 1,36,37
 622 227 622 227 715 227 c 0,38,39
 866 227 866 227 948 347.5 c 128,-1,40
 1030 468 1030 468 1030 695 c 2,41,-1
 1030 762 l 2,33,34
EndSplineSet
Substitution2: "'c2sc' Capitals to Small Capitals lookup 0 subtable" Oslash.smcp
Position2: "'cpsp' Capital Spacing lookup 0 subtable" dx=36 dy=0 dh=72 dv=0
EndChar

StartChar: Thorn
Encoding: 222 222 133
Width: 1246
Flags: W
LayerCount: 2
Fore
SplineSet
645 287 m 2,0,-1
 423 287 l 1,1,-1
 423 0 l 1,2,-1
 133 0 l 1,3,-1
 133 1456 l 1,4,-1
 423 1456 l 1,5,-1
 423 1189 l 1,6,-1
 645 1189 l 2,7,8
 906 1189 906 1189 1044 1062 c 128,-1,9
 1182 935 1182 935 1182 738 c 0,10,11
 1182 542 1182 542 1044 414.5 c 128,-1,12
 906 287 906 287 645 287 c 2,0,-1
423 956 m 1,13,-1
 423 520 l 1,14,-1
 645 520 l 2,15,16
 778 520 778 520 835 586 c 128,-1,17
 892 652 892 652 892 736 c 0,18,19
 892 822 892 822 835 889 c 128,-1,20
 778 956 778 956 645 956 c 2,21,-1
 423 956 l 1,13,-1
EndSplineSet
Substitution2: "'c2sc' Capitals to Small Capitals lookup 0 subtable" Thorn.smcp
Position2: "'cpsp' Capital Spacing lookup 0 subtable" dx=36 dy=0 dh=72 dv=0
EndChar

StartChar: germandbls
Encoding: 223 223 134
Width: 1292
Flags: W
LayerCount: 2
Fore
SplineSet
424 1097 m 2,0,-1
 424 0 l 1,1,-1
 136 0 l 1,2,-1
 136 1102 l 2,3,4
 136 1328 136 1328 264 1444 c 128,-1,5
 392 1560 392 1560 609 1560 c 0,6,7
 784 1560 784 1560 907.5 1467 c 128,-1,8
 1031 1374 1031 1374 1031 1190 c 0,9,10
 1031 1091 1031 1091 1004.5 1042 c 128,-1,11
 978 993 978 993 951 951 c 128,-1,12
 924 909 924 909 924 831 c 0,13,14
 924 780 924 780 969.5 734 c 128,-1,15
 1015 688 1015 688 1074.5 636.5 c 128,-1,16
 1134 585 1134 585 1179.5 517 c 128,-1,17
 1225 449 1225 449 1225 355 c 0,18,19
 1225 176 1225 176 1109.5 78 c 128,-1,20
 994 -20 994 -20 779 -20 c 0,21,22
 702 -20 702 -20 621 -4.5 c 128,-1,23
 540 11 540 11 500 36 c 1,24,-1
 555 265 l 1,25,26
 586 248 586 248 644 230.5 c 128,-1,27
 702 213 702 213 773 213 c 0,28,29
 937 213 937 213 937 350 c 0,30,31
 937 411 937 411 891.5 456.5 c 128,-1,32
 846 502 846 502 786 548.5 c 128,-1,33
 726 595 726 595 680.5 658 c 128,-1,34
 635 721 635 721 635 818 c 0,35,36
 635 907 635 907 662.5 956.5 c 128,-1,37
 690 1006 690 1006 717.5 1052 c 128,-1,38
 745 1098 745 1098 745 1175 c 0,39,40
 745 1245 745 1245 701 1286 c 128,-1,41
 657 1327 657 1327 589 1327 c 0,42,43
 512 1327 512 1327 468 1276 c 128,-1,44
 424 1225 424 1225 424 1097 c 2,0,-1
EndSplineSet
Substitution2: "'smcp' Lowercase to Small Capitals lookup 1 subtable" Germandbls.smcp
EndChar

StartChar: ae
Encoding: 230 230 135
Width: 1730
GlyphClass: 2
Flags: W
AnchorPoint: "Anchor-5" 1730 1291 basechar 0
AnchorPoint: "Anchor-2" 1730 1600 basechar 0
AnchorPoint: "Anchor-0" 862 1291 basechar 0
LayerCount: 2
Fore
SplineSet
1648 101 m 1,0,1
 1597 60 1597 60 1491.5 20 c 128,-1,2
 1386 -20 1386 -20 1247 -20 c 0,3,4
 1120 -20 1120 -20 1023 19 c 128,-1,5
 926 58 926 58 860 127 c 1,6,7
 806 70 806 70 708.5 25 c 128,-1,8
 611 -20 611 -20 466 -20 c 0,9,10
 272 -20 272 -20 169.5 72 c 128,-1,11
 67 164 67 164 67 319 c 0,12,13
 67 477 67 477 192.5 563.5 c 128,-1,14
 318 650 318 650 562 650 c 2,15,-1
 726 650 l 1,16,-1
 726 706 l 2,17,18
 726 869 726 869 568 869 c 0,19,20
 484 869 484 869 437 832.5 c 128,-1,21
 390 796 390 796 390 745 c 1,22,-1
 101 764 l 1,23,24
 101 911 101 911 229.5 1006.5 c 128,-1,25
 358 1102 358 1102 571 1102 c 256,26,27
 784 1102 784 1102 898 992 c 1,28,29
 1026 1103 1026 1103 1223 1102 c 0,30,31
 1437 1102 1437 1102 1557 970 c 128,-1,32
 1677 838 1677 838 1677 612 c 2,33,-1
 1677 450 l 1,34,-1
 1009 450 l 1,35,36
 1020 347 1020 347 1083.5 280 c 128,-1,37
 1147 213 1147 213 1277 213 c 0,38,39
 1382 213 1382 213 1448 237 c 128,-1,40
 1514 261 1514 261 1572 290 c 1,41,-1
 1648 101 l 1,0,1
1223 869 m 0,42,43
 1124 869 1124 869 1074.5 806.5 c 128,-1,44
 1025 744 1025 744 1012 645 c 1,45,-1
 1393 645 l 1,46,-1
 1393 672 l 2,47,48
 1393 760 1393 760 1352.5 814.5 c 128,-1,49
 1312 869 1312 869 1223 869 c 0,42,43
522 192 m 0,50,51
 576 192 576 192 632 216 c 128,-1,52
 688 240 688 240 726 272 c 1,53,-1
 726 461 l 1,54,-1
 564 461 l 2,55,56
 462 461 462 461 409 417 c 128,-1,57
 356 373 356 373 356 315 c 0,58,59
 356 192 356 192 522 192 c 0,50,51
EndSplineSet
Substitution2: "'unic' Unicase lookup 2 subtable" AE
Substitution2: "'smcp' Lowercase to Small Capitals lookup 1 subtable" AE.smcp
EndChar

StartChar: eth
Encoding: 240 240 136
Width: 1179
Flags: W
LayerCount: 2
Fore
SplineSet
1106 577 m 2,0,1
 1106 312 1106 312 958.5 146 c 128,-1,2
 811 -20 811 -20 587 -20 c 0,3,4
 362 -20 362 -20 223.5 122 c 128,-1,5
 85 264 85 264 85 468 c 0,6,7
 85 692 85 692 204.5 829 c 128,-1,8
 324 966 324 966 537 966 c 0,9,10
 674 966 674 966 780 891 c 1,11,12
 754 972 754 972 711.5 1037.5 c 128,-1,13
 669 1103 669 1103 614 1155 c 1,14,-1
 424 1034 l 1,15,-1
 346 1148 l 1,16,-1
 498 1245 l 1,17,18
 437 1283 437 1283 370 1310.5 c 128,-1,19
 303 1338 303 1338 234 1356 c 1,20,-1
 325 1580 l 1,21,22
 562 1531 562 1531 740 1400 c 1,23,-1
 911 1509 l 1,24,-1
 989 1394 l 1,25,-1
 850 1305 l 1,26,27
 970 1183 970 1183 1038 1017 c 128,-1,28
 1106 851 1106 851 1106 650 c 2,29,-1
 1106 577 l 2,0,1
374 468 m 0,30,31
 374 363 374 363 431 288 c 128,-1,32
 488 213 488 213 591 213 c 0,33,34
 702 213 702 213 759 309 c 128,-1,35
 816 405 816 405 816 548 c 2,36,-1
 816 652 l 2,37,38
 816 659 816 659 816 665 c 0,39,40
 788 699 788 699 735 723 c 128,-1,41
 682 747 682 747 602 747 c 0,42,43
 489 747 489 747 431.5 672.5 c 128,-1,44
 374 598 374 598 374 468 c 0,30,31
EndSplineSet
Substitution2: "'unic' Unicase lookup 2 subtable" Eth
Substitution2: "'smcp' Lowercase to Small Capitals lookup 1 subtable" Eth.smcp
EndChar

StartChar: divide
Encoding: 247 247 137
Width: 1168
Flags: W
LayerCount: 2
Fore
SplineSet
415 1090 m 256,0,1
 415 1156 415 1156 459.5 1198.5 c 128,-1,2
 504 1241 504 1241 579 1241 c 0,3,4
 653 1241 653 1241 697.5 1198.5 c 128,-1,5
 742 1156 742 1156 742 1090 c 256,6,7
 742 1024 742 1024 697.5 981.5 c 128,-1,8
 653 939 653 939 579 939 c 0,9,10
 504 939 504 939 459.5 981.5 c 128,-1,11
 415 1024 415 1024 415 1090 c 256,0,1
1092 802 m 1,12,-1
 1092 571 l 1,13,-1
 64 571 l 1,14,-1
 64 802 l 1,15,-1
 1092 802 l 1,12,-1
415 278 m 256,16,17
 415 344 415 344 459.5 386.5 c 128,-1,18
 504 429 504 429 579 429 c 0,19,20
 653 429 653 429 697.5 386.5 c 128,-1,21
 742 344 742 344 742 278 c 256,22,23
 742 212 742 212 697.5 169.5 c 128,-1,24
 653 127 653 127 579 127 c 0,25,26
 504 127 504 127 459.5 169.5 c 128,-1,27
 415 212 415 212 415 278 c 256,16,17
EndSplineSet
EndChar

StartChar: oslash
Encoding: 248 248 138
Width: 1156
GlyphClass: 2
Flags: W
AnchorPoint: "Anchor-5" 1156 1285 basechar 0
AnchorPoint: "Anchor-2" 1156 1600 basechar 0
AnchorPoint: "Anchor-0" 539 1285 basechar 0
LayerCount: 2
Fore
SplineSet
580 -20 m 0,0,1
 485 -20 485 -20 403 6 c 1,2,-1
 331 -142 l 1,3,-1
 170 -142 l 1,4,-1
 274 71 l 1,5,6
 66 219 66 219 66 530 c 2,7,-1
 66 551 l 2,8,9
 66 787 66 787 200 944.5 c 128,-1,10
 334 1102 334 1102 578 1102 c 0,11,12
 678 1102 678 1102 763 1073 c 1,13,-1
 833 1216 l 1,14,-1
 994 1216 l 1,15,-1
 891 1006 l 1,16,17
 1091 856 1091 856 1091 551 c 2,18,-1
 1091 530 l 2,19,20
 1091 294 1091 294 958 137 c 128,-1,21
 825 -20 825 -20 580 -20 c 0,0,1
356 530 m 2,22,23
 356 402 356 402 397 323 c 1,24,-1
 657 855 l 1,25,26
 621 869 621 869 578 869 c 0,27,28
 456 869 456 869 406 774.5 c 128,-1,29
 356 680 356 680 356 551 c 2,30,-1
 356 530 l 2,22,23
802 551 m 2,31,32
 802 670 802 670 766 748 c 1,33,-1
 509 223 l 1,34,35
 542 213 542 213 580 213 c 0,36,37
 701 213 701 213 751.5 305.5 c 128,-1,38
 802 398 802 398 802 530 c 2,39,-1
 802 551 l 2,31,32
EndSplineSet
Substitution2: "'unic' Unicase lookup 2 subtable" Oslash
Substitution2: "'smcp' Lowercase to Small Capitals lookup 1 subtable" Oslash.smcp
EndChar

StartChar: thorn
Encoding: 254 254 139
Width: 1162
Flags: W
LayerCount: 2
Fore
SplineSet
668 -20 m 0,0,1
 506 -20 506 -20 403 94 c 1,2,-1
 403 -416 l 1,3,-1
 113 -416 l 1,4,-1
 113 1536 l 1,5,-1
 403 1536 l 1,6,-1
 403 989 l 1,7,8
 504 1102 504 1102 665 1102 c 0,9,10
 871 1102 871 1102 979.5 951 c 128,-1,11
 1088 800 1088 800 1088 553 c 2,12,-1
 1088 532 l 2,13,14
 1088 296 1088 296 979.5 138 c 128,-1,15
 871 -20 871 -20 668 -20 c 0,0,1
590 868 m 0,16,17
 455 868 455 868 403 763 c 1,18,-1
 403 320 l 1,19,20
 457 213 457 213 592 213 c 0,21,22
 705 213 705 213 752 307 c 128,-1,23
 799 401 799 401 799 532 c 2,24,-1
 799 553 l 2,25,26
 799 687 799 687 750.5 777.5 c 128,-1,27
 702 868 702 868 590 868 c 0,16,17
EndSplineSet
Substitution2: "'unic' Unicase lookup 2 subtable" Thorn
Substitution2: "'smcp' Lowercase to Small Capitals lookup 1 subtable" Thorn.smcp
EndChar

StartChar: dcroat
Encoding: 273 273 140
Width: 1291
GlyphClass: 2
Flags: W
AnchorPoint: "Anchor-8" 851 1312 basechar 0
AnchorPoint: "Anchor-5" 1291 1603 basechar 0
AnchorPoint: "Anchor-3" 1155 -407 basechar 0
AnchorPoint: "Anchor-2" 1155 1600 basechar 0
AnchorPoint: "Anchor-1" 590 0 basechar 0
AnchorPoint: "Anchor-0" 498 1603 basechar 0
LayerCount: 2
Fore
SplineSet
780 0 m 1,0,-1
 766 115 l 1,1,2
 716 52 716 52 647.5 16 c 128,-1,3
 579 -20 579 -20 489 -20 c 0,4,5
 288 -20 288 -20 177 136 c 128,-1,6
 66 292 66 292 66 528 c 2,7,-1
 66 549 l 2,8,9
 66 796 66 796 177 949 c 128,-1,10
 288 1102 288 1102 491 1102 c 0,11,12
 649 1102 649 1102 751 985 c 1,13,-1
 751 1219 l 1,14,-1
 500 1219 l 1,15,-1
 500 1401 l 1,16,-1
 751 1401 l 1,17,-1
 751 1536 l 1,18,-1
 1041 1536 l 1,19,-1
 1041 1401 l 1,20,-1
 1199 1401 l 1,21,-1
 1199 1219 l 1,22,-1
 1041 1219 l 1,23,-1
 1041 0 l 1,24,-1
 780 0 l 1,0,-1
356 528 m 2,25,26
 356 398 356 398 402 306.5 c 128,-1,27
 448 215 448 215 562 215 c 0,28,29
 694 215 694 215 751 327 c 1,30,-1
 751 756 l 1,31,32
 696 868 696 868 564 868 c 0,33,34
 451 868 451 868 403.5 775.5 c 128,-1,35
 356 683 356 683 356 549 c 2,36,-1
 356 528 l 2,25,26
EndSplineSet
Substitution2: "'unic' Unicase lookup 2 subtable" Dcroat
Substitution2: "'smcp' Lowercase to Small Capitals lookup 1 subtable" Dcroat.smcp
EndChar

StartChar: Hbar
Encoding: 294 294 141
Width: 1474
GlyphClass: 2
Flags: W
AnchorPoint: "Anchor-5" 1474 1603 basechar 0
AnchorPoint: "Anchor-1" 743 10 basechar 0
AnchorPoint: "Anchor-0" 743 1603 basechar 0
LayerCount: 2
Fore
SplineSet
1031 0 m 1,0,-1
 1031 624 l 1,1,-1
 446 624 l 1,2,-1
 446 0 l 1,3,-1
 146 0 l 1,4,-1
 146 1050 l 1,5,-1
 32 1050 l 1,6,-1
 32 1224 l 1,7,-1
 146 1224 l 1,8,-1
 146 1456 l 1,9,-1
 446 1456 l 1,10,-1
 446 1224 l 1,11,-1
 1031 1224 l 1,12,-1
 1031 1456 l 1,13,-1
 1331 1456 l 1,14,-1
 1331 1224 l 1,15,-1
 1453 1224 l 1,16,-1
 1453 1050 l 1,17,-1
 1331 1050 l 1,18,-1
 1331 0 l 1,19,-1
 1031 0 l 1,0,-1
446 866 m 1,20,-1
 1031 866 l 1,21,-1
 1031 1050 l 1,22,-1
 446 1050 l 1,23,-1
 446 866 l 1,20,-1
EndSplineSet
Substitution2: "'c2sc' Capitals to Small Capitals lookup 0 subtable" Hbar.smcp
Position2: "'cpsp' Capital Spacing lookup 0 subtable" dx=36 dy=0 dh=72 dv=0
EndChar

StartChar: dotlessi
Encoding: 305 305 142
Width: 561
GlyphClass: 2
Flags: W
AnchorPoint: "Anchor-5" 561 1275 basechar 0
AnchorPoint: "Anchor-4" 334 654 basechar 0
AnchorPoint: "Anchor-1" 271 10 basechar 0
AnchorPoint: "Anchor-0" 280 1275 basechar 0
LayerCount: 2
Fore
SplineSet
424 1082 m 1,0,-1
 424 0 l 1,1,-1
 134 0 l 1,2,-1
 134 1082 l 1,3,-1
 424 1082 l 1,0,-1
EndSplineSet
Substitution2: "'smcp' Lowercase to Small Capitals lookup 1 subtable" I.smcp
EndChar

StartChar: kgreenlandic
Encoding: 312 312 143
Width: 1209
GlyphClass: 2
Flags: W
AnchorPoint: "Anchor-5" 1209 1290 basechar 0
AnchorPoint: "Anchor-1" 598 10 basechar 0
AnchorPoint: "Anchor-0" 598 1290 basechar 0
LayerCount: 2
Fore
SplineSet
800 0 m 1,0,-1
 538 399 l 1,1,-1
 419 399 l 1,2,-1
 419 0 l 1,3,-1
 130 0 l 1,4,-1
 130 1082 l 1,5,-1
 419 1082 l 1,6,-1
 419 675 l 1,7,-1
 507 675 l 1,8,-1
 788 1082 l 1,9,-1
 1153 1082 l 1,10,-1
 774 561 l 1,11,-1
 1170 0 l 1,12,-1
 800 0 l 1,0,-1
EndSplineSet
EndChar

StartChar: Lslash
Encoding: 321 321 144
Width: 1142
GlyphClass: 2
Flags: W
AnchorPoint: "Anchor-5" 1142 1600 basechar 0
AnchorPoint: "Anchor-1" 601 10 basechar 0
AnchorPoint: "Anchor-0" 309 1600 basechar 0
LayerCount: 2
Fore
SplineSet
1100 242 m 1,0,-1
 1100 0 l 1,1,-1
 163 0 l 1,2,-1
 163 643 l 1,3,-1
 30 605 l 1,4,-1
 30 770 l 1,5,-1
 163 808 l 1,6,-1
 163 1456 l 1,7,-1
 464 1456 l 1,8,-1
 464 895 l 1,9,-1
 679 957 l 1,10,-1
 679 792 l 1,11,-1
 464 730 l 1,12,-1
 464 242 l 1,13,-1
 1100 242 l 1,0,-1
EndSplineSet
Substitution2: "'c2sc' Capitals to Small Capitals lookup 0 subtable" Lslash.smcp
Position2: "'cpsp' Capital Spacing lookup 0 subtable" dx=36 dy=0 dh=72 dv=0
EndChar

StartChar: lslash
Encoding: 322 322 145
Width: 626
GlyphClass: 2
Flags: W
AnchorPoint: "Anchor-5" 626 1683 basechar 0
AnchorPoint: "Anchor-1" 312 10 basechar 0
AnchorPoint: "Anchor-0" 312 1683 basechar 0
LayerCount: 2
Fore
SplineSet
593 791 m 1,0,-1
 452 744 l 1,1,-1
 452 0 l 1,2,-1
 162 0 l 1,3,-1
 162 648 l 1,4,-1
 30 604 l 1,5,-1
 30 770 l 1,6,-1
 162 814 l 1,7,-1
 162 1536 l 1,8,-1
 452 1536 l 1,9,-1
 452 910 l 1,10,-1
 593 957 l 1,11,-1
 593 791 l 1,0,-1
EndSplineSet
Substitution2: "'smcp' Lowercase to Small Capitals lookup 1 subtable" Lslash.smcp
EndChar

StartChar: Eng
Encoding: 330 330 146
Width: 1440
GlyphClass: 2
Flags: W
AnchorPoint: "Anchor-5" 1440 1600 basechar 0
AnchorPoint: "Anchor-1" 724 3 basechar 0
AnchorPoint: "Anchor-0" 726 1600 basechar 0
LayerCount: 2
Fore
SplineSet
129 0 m 1,0,-1
 129 1456 l 1,1,-1
 430 1456 l 1,2,-1
 1012 477 l 1,3,-1
 1012 1456 l 1,4,-1
 1313 1456 l 1,5,-1
 1313 -28 l 2,6,7
 1313 -226 1313 -226 1210 -331.5 c 128,-1,8
 1107 -437 1107 -437 926 -437 c 0,9,10
 847 -437 847 -437 778 -420 c 1,11,-1
 792 -183 l 1,12,13
 835 -194 835 -194 892 -194 c 0,14,15
 1012 -194 1012 -194 1012 -28 c 2,16,-1
 1012 0 l 1,17,-1
 430 979 l 1,18,-1
 430 0 l 1,19,-1
 129 0 l 1,0,-1
EndSplineSet
Substitution2: "'c2sc' Capitals to Small Capitals lookup 0 subtable" Eng.smcp
Position2: "'cpsp' Capital Spacing lookup 0 subtable" dx=36 dy=0 dh=72 dv=0
EndChar

StartChar: eng
Encoding: 331 331 147
Width: 1156
GlyphClass: 2
Flags: W
AnchorPoint: "Anchor-7" 786 -308 basechar 0
AnchorPoint: "Anchor-5" 1156 1290 basechar 0
AnchorPoint: "Anchor-1" 573 10 basechar 0
AnchorPoint: "Anchor-0" 576 1290 basechar 0
LayerCount: 2
Fore
SplineSet
1047 -35 m 2,0,1
 1047 -230 1047 -230 946 -333.5 c 128,-1,2
 845 -437 845 -437 667 -437 c 0,3,4
 590 -437 590 -437 523 -420 c 1,5,-1
 537 -189 l 1,6,7
 582 -201 582 -201 637 -201 c 0,8,9
 757 -201 757 -201 757 -35 c 2,10,-1
 757 660 l 2,11,12
 757 778 757 778 714.5 823 c 128,-1,13
 672 868 672 868 593 868 c 0,14,15
 467 868 467 868 398 782 c 1,16,-1
 398 0 l 1,17,-1
 109 0 l 1,18,-1
 109 1082 l 1,19,-1
 377 1082 l 1,20,-1
 391 930 l 1,21,22
 504 1102 504 1102 699 1102 c 0,23,24
 855 1102 855 1102 951 1001 c 128,-1,25
 1047 900 1047 900 1047 660 c 2,26,-1
 1047 -35 l 2,0,1
EndSplineSet
Substitution2: "'unic' Unicase lookup 2 subtable" Eng
Substitution2: "'smcp' Lowercase to Small Capitals lookup 1 subtable" Eng.smcp
EndChar

StartChar: OE
Encoding: 338 338 148
Width: 1983
GlyphClass: 2
Flags: W
AnchorPoint: "Anchor-5" 1983 1600 basechar 0
AnchorPoint: "Anchor-3" 1983 -407 basechar 0
AnchorPoint: "Anchor-2" 1983 1600 basechar 0
AnchorPoint: "Anchor-1" 987 0 basechar 0
AnchorPoint: "Anchor-0" 987 1600 basechar 0
LayerCount: 2
Fore
SplineSet
1877 242 m 1,0,-1
 1877 0 l 1,1,-1
 990 0 l 1,2,3
 923 -8 923 -8 850.5 -14 c 128,-1,4
 778 -20 778 -20 702 -20 c 0,5,6
 433 -20 433 -20 265 145.5 c 128,-1,7
 97 311 97 311 97 576 c 2,8,-1
 97 880 l 2,9,10
 97 1145 97 1145 264 1310.5 c 128,-1,11
 431 1476 431 1476 700 1476 c 0,12,13
 776 1476 776 1476 849.5 1470 c 128,-1,14
 923 1464 923 1464 990 1456 c 1,15,-1
 1875 1456 l 1,16,-1
 1875 1213 l 1,17,-1
 1201 1213 l 1,18,-1
 1201 866 l 1,19,-1
 1776 866 l 1,20,-1
 1776 631 l 1,21,-1
 1201 631 l 1,22,-1
 1201 242 l 1,23,-1
 1877 242 l 1,0,-1
386 576 m 2,24,25
 386 394 386 394 471.5 303.5 c 128,-1,26
 557 213 557 213 702 213 c 0,27,28
 799 213 799 213 900 226 c 1,29,-1
 900 1230 l 1,30,31
 853 1236 853 1236 802.5 1239.5 c 128,-1,32
 752 1243 752 1243 700 1243 c 0,33,34
 555 1243 555 1243 470.5 1153 c 128,-1,35
 386 1063 386 1063 386 882 c 2,36,-1
 386 576 l 2,24,25
EndSplineSet
Substitution2: "'c2sc' Capitals to Small Capitals lookup 0 subtable" OE.smcp
Position2: "'cpsp' Capital Spacing lookup 0 subtable" dx=36 dy=0 dh=72 dv=0
EndChar

StartChar: oe
Encoding: 339 339 149
Width: 1848
GlyphClass: 2
Flags: W
AnchorPoint: "Anchor-5" 1848 1290 basechar 0
AnchorPoint: "Anchor-3" 1848 -407 basechar 0
AnchorPoint: "Anchor-2" 1848 1600 basechar 0
AnchorPoint: "Anchor-1" 928 -7 basechar 0
AnchorPoint: "Anchor-0" 928 1290 basechar 0
LayerCount: 2
Fore
SplineSet
1748 104 m 1,0,1
 1690 57 1690 57 1584.5 18.5 c 128,-1,2
 1479 -20 1479 -20 1338 -20 c 0,3,4
 1220 -20 1220 -20 1125.5 20 c 128,-1,5
 1031 60 1031 60 964 129 c 1,6,7
 900 59 900 59 806.5 19.5 c 128,-1,8
 713 -20 713 -20 594 -20 c 0,9,10
 348 -20 348 -20 215.5 137 c 128,-1,11
 83 294 83 294 83 530 c 2,12,-1
 83 551 l 2,13,14
 83 787 83 787 215.5 944.5 c 128,-1,15
 348 1102 348 1102 592 1102 c 0,16,17
 711 1102 711 1102 804.5 1062.5 c 128,-1,18
 898 1023 898 1023 963 954 c 1,19,20
 1025 1024 1025 1024 1113.5 1063.5 c 128,-1,21
 1202 1103 1202 1103 1311 1102 c 0,22,23
 1534 1102 1534 1102 1653 968.5 c 128,-1,24
 1772 835 1772 835 1772 613 c 2,25,-1
 1772 450 l 1,26,-1
 1117 450 l 1,27,28
 1131 350 1131 350 1192.5 281.5 c 128,-1,29
 1254 213 1254 213 1368 213 c 0,30,31
 1475 213 1475 213 1540.5 235.5 c 128,-1,32
 1606 258 1606 258 1668 290 c 1,33,-1
 1748 104 l 1,0,1
1311 869 m 0,34,35
 1227 869 1227 869 1180.5 806 c 128,-1,36
 1134 743 1134 743 1120 647 c 1,37,-1
 1488 647 l 1,38,-1
 1488 673 l 2,39,40
 1488 760 1488 760 1446.5 814.5 c 128,-1,41
 1405 869 1405 869 1311 869 c 0,34,35
372 551 m 2,42,-1
 372 530 l 2,43,44
 372 398 372 398 421.5 305.5 c 128,-1,45
 471 213 471 213 594 213 c 0,46,47
 715 213 715 213 764.5 305.5 c 128,-1,48
 814 398 814 398 814 530 c 2,49,-1
 814 551 l 2,50,51
 814 680 814 680 764.5 774.5 c 128,-1,52
 715 869 715 869 592 869 c 0,53,54
 471 869 471 869 421.5 774.5 c 128,-1,55
 372 680 372 680 372 551 c 2,42,-1
EndSplineSet
Substitution2: "'unic' Unicase lookup 2 subtable" OE
Substitution2: "'smcp' Lowercase to Small Capitals lookup 1 subtable" OE.smcp
EndChar

StartChar: longs
Encoding: 383 383 150
Width: 532
GlyphClass: 2
Flags: W
AnchorPoint: "Anchor-5" 532 1688 basechar 0
AnchorPoint: "Anchor-1" 271 10 basechar 0
AnchorPoint: "Anchor-0" 387 1688 basechar 0
LayerCount: 2
Fore
SplineSet
406 0 m 1,0,-1
 117 0 l 1,1,-1
 117 1176 l 2,2,3
 117 1361 117 1361 222.5 1459 c 128,-1,4
 328 1557 328 1557 516 1557 c 0,5,6
 556 1557 556 1557 595 1551 c 128,-1,7
 634 1545 634 1545 675 1536 c 1,8,-1
 651 1314 l 1,9,10
 629 1318 629 1318 607.5 1321 c 128,-1,11
 586 1324 586 1324 554 1324 c 0,12,13
 406 1324 406 1324 406 1176 c 2,14,-1
 406 0 l 1,0,-1
EndSplineSet
EndChar

StartChar: Bhook
Encoding: 385 385 152
Width: 1609
Flags: W
LayerCount: 2
Fore
SplineSet
37 1088 m 0,0,1
 37 1263 37 1263 140 1359.5 c 128,-1,2
 243 1456 243 1456 435 1456 c 1,3,-1
 435 1456 l 1,4,-1
 945 1456 l 2,5,6
 1198 1456 1198 1456 1341 1359 c 128,-1,7
 1484 1262 1484 1262 1484 1058 c 0,8,9
 1484 959 1484 959 1434 876 c 128,-1,10
 1384 793 1384 793 1276 750 c 1,11,12
 1404 718 1404 718 1460.5 626 c 128,-1,13
 1517 534 1517 534 1517 429 c 0,14,15
 1517 217 1517 217 1380.5 108.5 c 128,-1,16
 1244 0 1244 0 991 0 c 2,17,-1
 435 0 l 1,18,-1
 435 1213 l 1,19,20
 347 1212 347 1212 316 1155.5 c 128,-1,21
 285 1099 285 1099 285 1029 c 0,22,23
 285 1007 285 1007 287.5 986.5 c 128,-1,24
 290 966 290 966 294 943 c 1,25,-1
 54 943 l 1,26,27
 37 1012 37 1012 37 1088 c 0,0,1
735 1213 m 1,28,-1
 735 847 l 1,29,-1
 945 847 l 2,30,31
 1183 847 1183 847 1183 1027 c 0,32,33
 1183 1213 1183 1213 945 1213 c 2,34,-1
 735 1213 l 1,28,-1
1217 432 m 0,35,36
 1217 526 1217 526 1167.5 580.5 c 128,-1,37
 1118 635 1118 635 1003 635 c 2,38,-1
 735 635 l 1,39,-1
 735 242 l 1,40,-1
 991 242 l 2,41,42
 1106 242 1106 242 1161.5 296 c 128,-1,43
 1217 350 1217 350 1217 432 c 0,35,36
EndSplineSet
EndChar

StartChar: btopbar
Encoding: 387 387 154
Width: 1153
Flags: W
LayerCount: 2
Fore
SplineSet
111 0 m 1,0,-1
 111 1536 l 1,1,-1
 886 1536 l 1,2,-1
 886 1353 l 1,3,-1
 401 1353 l 1,4,-1
 401 986 l 1,5,6
 502 1102 502 1102 664 1102 c 0,7,8
 877 1102 877 1102 981.5 947 c 128,-1,9
 1086 792 1086 792 1086 552 c 2,10,-1
 1086 531 l 2,11,12
 1086 288 1086 288 981.5 134 c 128,-1,13
 877 -20 877 -20 666 -20 c 0,14,15
 573 -20 573 -20 504 15.5 c 128,-1,16
 435 51 435 51 385 115 c 1,17,-1
 372 0 l 1,18,-1
 111 0 l 1,0,-1
591 868 m 0,19,20
 454 868 454 868 401 755 c 1,21,-1
 401 327 l 1,22,23
 454 214 454 214 593 214 c 0,24,25
 715 214 715 214 756 304 c 128,-1,26
 797 394 797 394 797 531 c 2,27,-1
 797 552 l 2,28,29
 797 680 797 680 755.5 774 c 128,-1,30
 714 868 714 868 591 868 c 0,19,20
EndSplineSet
EndChar

StartChar: Tonesix
Encoding: 388 388 155
Width: 1406
Flags: W
LayerCount: 2
Fore
SplineSet
1347 471 m 256,0,1
 1347 262 1347 262 1198.5 131 c 128,-1,2
 1050 0 1050 0 794 0 c 2,3,-1
 253 0 l 1,4,-1
 253 967 l 1,5,-1
 69 1142 l 1,6,-1
 69 1280 l 1,7,-1
 253 1456 l 1,8,-1
 555 1456 l 1,9,-1
 555 932 l 1,10,-1
 794 932 l 2,11,12
 1050 932 1050 932 1198.5 806 c 128,-1,13
 1347 680 1347 680 1347 471 c 256,0,1
555 242 m 1,14,-1
 794 242 l 2,15,16
 921 242 921 242 983.5 310 c 128,-1,17
 1046 378 1046 378 1046 473 c 0,18,19
 1046 565 1046 565 983.5 627.5 c 128,-1,20
 921 690 921 690 794 690 c 2,21,-1
 555 690 l 1,22,-1
 555 242 l 1,14,-1
EndSplineSet
EndChar

StartChar: tonesix
Encoding: 389 389 156
Width: 1282
Flags: W
LayerCount: 2
Fore
SplineSet
1215 531 m 2,0,1
 1215 288 1215 288 1110.5 134 c 128,-1,2
 1006 -20 1006 -20 795 -20 c 0,3,4
 702 -20 702 -20 632.5 16 c 128,-1,5
 563 52 563 52 514 115 c 1,6,-1
 501 0 l 1,7,-1
 240 0 l 1,8,-1
 240 1047 l 1,9,-1
 56 1222 l 1,10,-1
 56 1360 l 1,11,-1
 240 1536 l 1,12,-1
 529 1536 l 1,13,-1
 529 985 l 1,14,15
 630 1102 630 1102 793 1102 c 0,16,17
 1006 1102 1006 1102 1110.5 947 c 128,-1,18
 1215 792 1215 792 1215 552 c 2,19,-1
 1215 531 l 2,0,1
720 868 m 0,20,21
 582 868 582 868 529 753 c 1,22,-1
 529 329 l 1,23,24
 582 214 582 214 722 214 c 0,25,26
 844 214 844 214 885 304 c 128,-1,27
 926 394 926 394 926 531 c 2,28,-1
 926 552 l 2,29,30
 926 680 926 680 884.5 774 c 128,-1,31
 843 868 843 868 720 868 c 0,20,21
EndSplineSet
EndChar

StartChar: Oopen
Encoding: 390 390 157
Width: 1341
Flags: W
LayerCount: 2
Fore
SplineSet
65 494 m 1,0,-1
 365 494 l 1,1,2
 376 364 376 364 438 294.5 c 128,-1,3
 500 225 500 225 649 225 c 0,4,5
 950 225 950 225 950 679 c 2,6,-1
 950 776 l 2,7,8
 950 1002 950 1002 881.5 1116 c 128,-1,9
 813 1230 813 1230 653 1230 c 0,10,11
 511 1230 511 1230 444.5 1165.5 c 128,-1,12
 378 1101 378 1101 367 971 c 1,13,-1
 67 971 l 1,14,15
 82 1193 82 1193 233 1334.5 c 128,-1,16
 384 1476 384 1476 653 1476 c 0,17,18
 933 1476 933 1476 1093.5 1287.5 c 128,-1,19
 1254 1099 1254 1099 1254 776 c 2,20,-1
 1254 681 l 2,21,22
 1254 358 1254 358 1089.5 168.5 c 128,-1,23
 925 -21 925 -21 649 -21 c 0,24,25
 376 -21 376 -21 231 124.5 c 128,-1,26
 86 270 86 270 65 494 c 1,0,-1
EndSplineSet
EndChar

StartChar: Chook
Encoding: 391 391 158
Width: 1479
Flags: W
LayerCount: 2
Fore
SplineSet
1469 1327 m 0,0,1
 1398 1327 1398 1327 1336.5 1299.5 c 128,-1,2
 1275 1272 1275 1272 1275 1174 c 2,3,-1
 1275 962 l 1,4,-1
 975 962 l 1,5,6
 965 1092 965 1092 902.5 1161.5 c 128,-1,7
 840 1231 840 1231 691 1231 c 0,8,9
 391 1231 391 1231 391 777 c 2,10,-1
 391 680 l 2,11,12
 391 454 391 454 459.5 340 c 128,-1,13
 528 226 528 226 688 226 c 0,14,15
 830 226 830 226 896.5 290.5 c 128,-1,16
 963 355 963 355 974 485 c 1,17,-1
 1274 485 l 1,18,19
 1259 263 1259 263 1107.5 121.5 c 128,-1,20
 956 -20 956 -20 688 -20 c 0,21,22
 408 -20 408 -20 247 168.5 c 128,-1,23
 86 357 86 357 86 680 c 2,24,-1
 86 775 l 2,25,26
 86 1098 86 1098 251 1287.5 c 128,-1,27
 416 1477 416 1477 691 1477 c 0,28,29
 918 1477 918 1477 1066 1367 c 1,30,31
 1152 1576 1152 1576 1411 1576 c 0,32,33
 1487 1576 1487 1576 1555 1559 c 1,34,-1
 1555 1318 l 1,35,36
 1512 1327 1512 1327 1469 1327 c 0,0,1
EndSplineSet
EndChar

StartChar: chook
Encoding: 392 392 159
Width: 1208
Flags: W
LayerCount: 2
Fore
SplineSet
1180 1000 m 0,0,1
 1120 1000 1120 1000 1067.5 971.5 c 128,-1,2
 1015 943 1015 943 1015 860 c 2,3,-1
 1015 679 l 1,4,-1
 743 679 l 1,5,6
 742 758 742 758 695 813.5 c 128,-1,7
 648 869 648 869 560 869 c 0,8,9
 433 869 433 869 394.5 772.5 c 128,-1,10
 356 676 356 676 356 555 c 2,11,-1
 356 527 l 2,12,13
 356 402 356 402 394.5 307.5 c 128,-1,14
 433 213 433 213 561 213 c 0,15,16
 640 213 640 213 691 256.5 c 128,-1,17
 742 300 742 300 743 374 c 1,18,-1
 1015 374 l 1,19,20
 1013 202 1013 202 883.5 91 c 128,-1,21
 754 -20 754 -20 566 -20 c 0,22,23
 315 -20 315 -20 190.5 138.5 c 128,-1,24
 66 297 66 297 66 527 c 2,25,-1
 66 555 l 2,26,27
 66 784 66 784 190 943 c 128,-1,28
 314 1102 314 1102 565 1102 c 0,29,30
 729 1102 729 1102 844 1024 c 1,31,32
 912 1202 912 1202 1130 1202 c 0,33,34
 1197 1202 1197 1202 1254 1187 c 1,35,-1
 1254 993 l 1,36,37
 1218 1000 1218 1000 1180 1000 c 0,0,1
EndSplineSet
EndChar

StartChar: Dhook
Encoding: 394 394 161
Width: 1637
Flags: W
LayerCount: 2
Fore
SplineSet
37 1088 m 0,0,1
 37 1263 37 1263 140 1359.5 c 128,-1,2
 243 1456 243 1456 436 1456 c 1,3,-1
 436 1456 l 1,4,-1
 885 1456 l 2,5,6
 1179 1456 1179 1456 1364.5 1264 c 128,-1,7
 1550 1072 1550 1072 1550 760 c 2,8,-1
 1550 695 l 2,9,10
 1550 383 1550 383 1364.5 191.5 c 128,-1,11
 1179 0 1179 0 881 0 c 2,12,-1
 436 0 l 1,13,-1
 436 1213 l 1,14,15
 347 1212 347 1212 316 1156 c 128,-1,16
 285 1100 285 1100 285 1029 c 0,17,18
 285 1007 285 1007 287.5 986.5 c 128,-1,19
 290 966 290 966 294 943 c 1,20,-1
 54 943 l 1,21,22
 37 1012 37 1012 37 1088 c 0,0,1
885 1213 m 2,23,-1
 737 1213 l 1,24,-1
 737 242 l 1,25,-1
 881 242 l 2,26,27
 1060 242 1060 242 1152.5 359.5 c 128,-1,28
 1245 477 1245 477 1245 695 c 2,29,-1
 1245 762 l 2,30,31
 1245 1213 1245 1213 885 1213 c 2,23,-1
EndSplineSet
EndChar

StartChar: Dtopbar
Encoding: 395 395 162
Width: 1283
Flags: W
LayerCount: 2
Fore
SplineSet
1171 0 m 1,0,-1
 630 0 l 2,1,2
 374 0 374 0 226 131 c 128,-1,3
 78 262 78 262 78 471 c 256,4,5
 78 680 78 680 226 806 c 128,-1,6
 374 932 374 932 630 932 c 2,7,-1
 870 932 l 1,8,-1
 870 1213 l 1,9,-1
 217 1213 l 1,10,-1
 217 1456 l 1,11,-1
 1171 1456 l 1,12,-1
 1171 0 l 1,0,-1
870 242 m 1,13,-1
 870 690 l 1,14,-1
 630 690 l 2,15,16
 503 690 503 690 440.5 627.5 c 128,-1,17
 378 565 378 565 378 473 c 0,18,19
 378 378 378 378 440.5 310 c 128,-1,20
 503 242 503 242 630 242 c 2,21,-1
 870 242 l 1,13,-1
EndSplineSet
EndChar

StartChar: dtopbar
Encoding: 396 396 163
Width: 1155
Flags: W
LayerCount: 2
Fore
SplineSet
266 1353 m 1,0,-1
 266 1536 l 1,1,-1
 1041 1536 l 1,2,-1
 1041 0 l 1,3,-1
 780 0 l 1,4,-1
 766 115 l 1,5,6
 716 52 716 52 647.5 16 c 128,-1,7
 579 -20 579 -20 489 -20 c 0,8,9
 288 -20 288 -20 177 136 c 128,-1,10
 66 292 66 292 66 528 c 2,11,-1
 66 549 l 2,12,13
 66 796 66 796 177 949 c 128,-1,14
 288 1102 288 1102 491 1102 c 0,15,16
 649 1102 649 1102 751 985 c 1,17,-1
 751 1353 l 1,18,-1
 266 1353 l 1,0,-1
356 528 m 2,19,20
 356 398 356 398 402 306.5 c 128,-1,21
 448 215 448 215 562 215 c 0,22,23
 694 215 694 215 751 327 c 1,24,-1
 751 756 l 1,25,26
 696 868 696 868 564 868 c 0,27,28
 451 868 451 868 403.5 775.5 c 128,-1,29
 356 683 356 683 356 549 c 2,30,-1
 356 528 l 2,19,20
EndSplineSet
EndChar

StartChar: deltaturn
Encoding: 397 397 164
Width: 1156
Flags: W
LayerCount: 2
Fore
SplineSet
962 -375 m 1,0,-1
 174 -375 l 1,1,-1
 174 -143 l 1,2,-1
 585 -143 l 1,3,4
 556 -120 556 -120 510 -86 c 128,-1,5
 464 -52 464 -52 408 -6 c 0,6,7
 262 114 262 114 165 248.5 c 128,-1,8
 68 383 68 383 68 550 c 2,9,-1
 68 571 l 2,10,11
 68 799 68 799 199.5 950.5 c 128,-1,12
 331 1102 331 1102 577 1102 c 256,13,14
 823 1102 823 1102 955 958.5 c 128,-1,15
 1087 815 1087 815 1087 600 c 2,16,-1
 1087 579 l 2,17,18
 1087 377 1087 377 973.5 242.5 c 128,-1,19
 860 108 860 108 686 80 c 0,20,21
 676 79 676 79 669 79 c 128,-1,22
 662 79 662 79 652 78 c 1,23,24
 720 18 720 18 815 -73 c 128,-1,25
 910 -164 910 -164 962 -221 c 1,26,-1
 962 -375 l 1,0,-1
798 550 m 2,27,-1
 798 571 l 2,28,29
 798 695 798 695 749 782 c 128,-1,30
 700 869 700 869 577 869 c 0,31,32
 456 869 456 869 406.5 782 c 128,-1,33
 357 695 357 695 357 571 c 2,34,-1
 357 550 l 2,35,36
 357 437 357 437 404.5 356.5 c 128,-1,37
 452 276 452 276 514 238 c 1,38,39
 539 231 539 231 573 231 c 0,40,41
 697 231 697 231 747.5 325.5 c 128,-1,42
 798 420 798 420 798 550 c 2,27,-1
EndSplineSet
EndChar

StartChar: Eturn
Encoding: 398 398 165
Width: 1152
Flags: W
LayerCount: 2
Fore
SplineSet
46 1214 m 1,0,-1
 46 1456 l 1,1,-1
 1022 1456 l 1,2,-1
 1022 0 l 1,3,-1
 48 0 l 1,4,-1
 48 243 l 1,5,-1
 721 243 l 1,6,-1
 721 590 l 1,7,-1
 146 590 l 1,8,-1
 146 825 l 1,9,-1
 721 825 l 1,10,-1
 721 1214 l 1,11,-1
 46 1214 l 1,0,-1
EndSplineSet
EndChar

StartChar: Schwa
Encoding: 399 399 166
Width: 1423
GlyphClass: 2
Flags: W
AnchorPoint: "Anchor-5" 1423 1600 basechar 0
AnchorPoint: "Anchor-1" 701 0 basechar 0
AnchorPoint: "Anchor-0" 691 1600 basechar 0
LayerCount: 2
Fore
SplineSet
1326 651 m 2,0,1
 1326 453 1326 453 1243 301.5 c 128,-1,2
 1160 150 1160 150 1019 64.5 c 128,-1,3
 878 -21 878 -21 702 -21 c 0,4,5
 394 -21 394 -21 234.5 164.5 c 128,-1,6
 75 350 75 350 75 664 c 2,7,-1
 75 827 l 1,8,-1
 1025 827 l 1,9,10
 1019 988 1019 988 928 1101 c 128,-1,11
 837 1214 837 1214 620 1214 c 0,12,13
 486 1214 486 1214 389 1192 c 128,-1,14
 292 1170 292 1170 234 1151 c 1,15,-1
 185 1398 l 1,16,17
 218 1414 218 1414 346 1445.5 c 128,-1,18
 474 1477 474 1477 635 1477 c 0,19,20
 974 1477 974 1477 1150 1287 c 128,-1,21
 1326 1097 1326 1097 1326 800 c 2,22,-1
 1326 651 l 2,0,1
702 241 m 0,23,24
 847 241 847 241 927 339.5 c 128,-1,25
 1007 438 1007 438 1023 583 c 1,26,-1
 375 583 l 1,27,-1
 375 552 l 2,28,29
 375 422 375 422 448.5 331.5 c 128,-1,30
 522 241 522 241 702 241 c 0,23,24
EndSplineSet
EndChar

StartChar: Epsilon1
Encoding: 400 400 167
Width: 1263
GlyphClass: 2
Flags: W
AnchorPoint: "Anchor-5" 1263 1600 basechar 0
AnchorPoint: "Anchor-1" 644 0 basechar 0
AnchorPoint: "Anchor-0" 644 1600 basechar 0
LayerCount: 2
Fore
SplineSet
638 860 m 2,0,-1
 815 860 l 1,1,-1
 815 625 l 1,2,-1
 638 625 l 2,3,4
 515 625 515 625 453 576.5 c 128,-1,5
 391 528 391 528 391 412 c 0,6,7
 391 312 391 312 463.5 267 c 128,-1,8
 536 222 536 222 654 222 c 0,9,10
 765 222 765 222 829.5 273 c 128,-1,11
 894 324 894 324 894 404 c 1,12,-1
 1194 404 l 1,13,14
 1194 255 1194 255 1113.5 161.5 c 128,-1,15
 1033 68 1033 68 909 24 c 128,-1,16
 785 -20 785 -20 654 -20 c 0,17,18
 407 -20 407 -20 248.5 82 c 128,-1,19
 90 184 90 184 90 408 c 0,20,21
 90 658 90 658 338 746 c 1,22,23
 235 791 235 791 174 871.5 c 128,-1,24
 113 952 113 952 113 1061 c 0,25,26
 113 1265 113 1265 262 1370.5 c 128,-1,27
 411 1476 411 1476 654 1476 c 0,28,29
 865 1476 865 1476 1019 1366.5 c 128,-1,30
 1173 1257 1173 1257 1173 1064 c 1,31,-1
 873 1064 l 1,32,33
 873 1146 873 1146 812 1189.5 c 128,-1,34
 751 1233 751 1233 654 1233 c 0,35,36
 527 1233 527 1233 470 1182.5 c 128,-1,37
 413 1132 413 1132 413 1057 c 0,38,39
 413 966 413 966 464.5 913 c 128,-1,40
 516 860 516 860 638 860 c 2,0,-1
EndSplineSet
EndChar

StartChar: Fhook
Encoding: 401 401 168
Width: 1222
Flags: W
LayerCount: 2
Fore
SplineSet
1178 1213 m 1,0,-1
 530 1213 l 1,1,-1
 530 837 l 1,2,-1
 1106 837 l 1,3,-1
 1106 595 l 1,4,-1
 530 595 l 1,5,-1
 530 -35 l 2,6,7
 530 -230 530 -230 425.5 -333.5 c 128,-1,8
 321 -437 321 -437 143 -437 c 0,9,10
 65 -437 65 -437 0 -420 c 1,11,-1
 15 -176 l 1,12,13
 60 -188 60 -188 106 -188 c 0,14,15
 230 -188 230 -188 230 -35 c 2,16,-1
 230 1456 l 1,17,-1
 1178 1456 l 1,18,-1
 1178 1213 l 1,0,-1
EndSplineSet
EndChar

StartChar: florin
Encoding: 402 402 169
Width: 739
Flags: W
LayerCount: 2
Fore
SplineSet
682 1082 m 1,0,-1
 682 871 l 1,1,-1
 474 871 l 1,2,-1
 474 -50 l 2,3,4
 474 -238 474 -238 376.5 -337.5 c 128,-1,5
 279 -437 279 -437 108 -437 c 0,6,7
 30 -437 30 -437 -35 -420 c 1,8,-1
 -20 -192 l 1,9,10
 20 -204 20 -204 71 -204 c 0,11,12
 185 -204 185 -204 185 -50 c 2,13,-1
 185 871 l 1,14,-1
 24 871 l 1,15,-1
 24 1082 l 1,16,-1
 185 1082 l 1,17,-1
 185 1176 l 2,18,19
 185 1361 185 1361 290.5 1459 c 128,-1,20
 396 1557 396 1557 583 1557 c 0,21,22
 624 1557 624 1557 663 1551 c 128,-1,23
 702 1545 702 1545 743 1536 c 1,24,-1
 718 1312 l 1,25,26
 671 1322 671 1322 619 1322 c 0,27,28
 474 1322 474 1322 474 1176 c 2,29,-1
 474 1082 l 1,30,-1
 682 1082 l 1,0,-1
EndSplineSet
EndChar

StartChar: Ghook
Encoding: 403 403 170
Width: 1484
Flags: W
LayerCount: 2
Fore
SplineSet
1284 1174 m 2,0,-1
 1284 993 l 1,1,-1
 990 993 l 1,2,3
 973 1103 973 1103 911 1169 c 128,-1,4
 849 1235 849 1235 713 1235 c 0,5,6
 399 1235 399 1235 399 773 c 2,7,-1
 399 684 l 2,8,9
 399 222 399 222 742 222 c 0,10,11
 850 222 850 222 904 246.5 c 128,-1,12
 958 271 958 271 982 294 c 1,13,-1
 982 545 l 1,14,-1
 710 545 l 1,15,-1
 710 765 l 1,16,-1
 1283 765 l 1,17,-1
 1283 184 l 1,18,19
 1231 122 1231 122 1098.5 51 c 128,-1,20
 966 -20 966 -20 726 -20 c 0,21,22
 443 -20 443 -20 268.5 163.5 c 128,-1,23
 94 347 94 347 94 684 c 2,24,-1
 94 771 l 2,25,26
 94 1108 94 1108 261 1292.5 c 128,-1,27
 428 1477 428 1477 705 1477 c 0,28,29
 826 1477 826 1477 918.5 1451 c 128,-1,30
 1011 1425 1011 1425 1079 1377 c 1,31,32
 1167 1576 1167 1576 1419 1576 c 0,33,34
 1495 1576 1495 1576 1563 1559 c 1,35,-1
 1563 1320 l 1,36,37
 1520 1329 1520 1329 1477 1329 c 0,38,39
 1407 1329 1407 1329 1345.5 1300.5 c 128,-1,40
 1284 1272 1284 1272 1284 1174 c 2,0,-1
EndSplineSet
EndChar

StartChar: Gamma1
Encoding: 404 404 171
Width: 1366
Flags: W
LayerCount: 2
Fore
SplineSet
1028 -160 m 0,0,1
 1028 -305 1028 -305 927 -371 c 128,-1,2
 826 -437 826 -437 683 -437 c 0,3,4
 539 -437 539 -437 434 -371 c 128,-1,5
 329 -305 329 -305 329 -160 c 0,6,7
 329 -98 329 -98 393.5 37.5 c 128,-1,8
 458 173 458 173 538 354 c 1,9,-1
 27 1456 l 1,10,-1
 372 1456 l 1,11,-1
 682 702 l 1,12,-1
 993 1456 l 1,13,-1
 1339 1456 l 1,14,-1
 828 352 l 1,15,16
 906 172 906 172 967 37 c 128,-1,17
 1028 -98 1028 -98 1028 -160 c 0,0,1
627 -149 m 0,18,19
 627 -180 627 -180 638.5 -202 c 128,-1,20
 650 -224 650 -224 683 -224 c 0,21,22
 717 -224 717 -224 727.5 -201.5 c 128,-1,23
 738 -179 738 -179 738 -149 c 0,24,25
 738 -89 738 -89 683 38 c 1,26,27
 627 -91 627 -91 627 -149 c 0,18,19
EndSplineSet
EndChar

StartChar: hv
Encoding: 405 405 172
Width: 1744
Flags: W
LayerCount: 2
Fore
SplineSet
683 1102 m 0,0,1
 826 1102 826 1102 903.5 1042 c 128,-1,2
 981 982 981 982 1010.5 884 c 128,-1,3
 1040 786 1040 786 1040 672 c 2,4,-1
 1040 426 l 2,5,6
 1040 310 1040 310 1083 262.5 c 128,-1,7
 1126 215 1126 215 1193 215 c 256,8,9
 1260 215 1260 215 1303.5 262.5 c 128,-1,10
 1347 310 1347 310 1347 426 c 2,11,-1
 1347 1082 l 1,12,-1
 1636 1082 l 1,13,-1
 1636 428 l 2,14,15
 1636 190 1636 190 1526.5 85 c 128,-1,16
 1417 -20 1417 -20 1193 -20 c 0,17,18
 970 -20 970 -20 860 85 c 128,-1,19
 750 190 750 190 750 428 c 2,20,-1
 750 672 l 2,21,22
 750 759 750 759 718.5 813.5 c 128,-1,23
 687 868 687 868 577 868 c 0,24,25
 451 868 451 868 394 771 c 1,26,-1
 394 0 l 1,27,-1
 105 0 l 1,28,-1
 105 1536 l 1,29,-1
 394 1536 l 1,30,-1
 394 965 l 1,31,32
 507 1102 507 1102 683 1102 c 0,0,1
EndSplineSet
EndChar

StartChar: Khook
Encoding: 408 408 174
Width: 1301
Flags: W
LayerCount: 2
Fore
SplineSet
961 0 m 1,0,-1
 588 583 l 1,1,-1
 431 410 l 1,2,-1
 431 0 l 1,3,-1
 130 0 l 1,4,-1
 130 1456 l 1,5,-1
 431 1456 l 1,6,-1
 431 784 l 1,7,-1
 562 977 l 1,8,-1
 732 1212 l 2,9,10
 813 1330 813 1330 884 1403.5 c 128,-1,11
 955 1477 955 1477 1082 1477 c 0,12,13
 1155 1477 1155 1477 1209 1459 c 128,-1,14
 1263 1441 1263 1441 1315 1415 c 1,15,-1
 1207 1196 l 1,16,17
 1184 1208 1184 1208 1167.5 1214.5 c 128,-1,18
 1151 1221 1151 1221 1125 1221 c 0,19,20
 1082 1221 1082 1221 1050.5 1187 c 128,-1,21
 1019 1153 1019 1153 978 1092 c 2,22,-1
 783 815 l 1,23,-1
 1318 0 l 1,24,-1
 961 0 l 1,0,-1
EndSplineSet
EndChar

StartChar: khook
Encoding: 409 409 175
Width: 1094
Flags: W
LayerCount: 2
Fore
SplineSet
566 1355 m 0,0,1
 506 1355 506 1355 453.5 1326.5 c 128,-1,2
 401 1298 401 1298 401 1214 c 2,3,-1
 401 686 l 1,4,-1
 457 758 l 1,5,-1
 733 1082 l 1,6,-1
 1080 1082 l 1,7,-1
 690 632 l 1,8,-1
 1115 0 l 1,9,-1
 782 0 l 1,10,-1
 504 434 l 1,11,-1
 401 331 l 1,12,-1
 401 0 l 1,13,-1
 112 0 l 1,14,-1
 112 1214 l 2,15,16
 112 1557 112 1557 489 1557 c 0,17,18
 520 1557 520 1557 564 1553.5 c 128,-1,19
 608 1550 608 1550 639 1542 c 1,20,-1
 639 1348 l 1,21,22
 595 1355 595 1355 566 1355 c 0,0,1
EndSplineSet
EndChar

StartChar: lambdabar
Encoding: 411 411 177
Width: 1124
Flags: W
AnchorPoint: "Anchor-5" 1039 1603 basechar 0
LayerCount: 2
Fore
SplineSet
1115 -12 m 1,0,1
 1076 -19 1076 -19 1006 -19 c 0,2,3
 882 -19 882 -19 814 38.5 c 128,-1,4
 746 96 746 96 707 205 c 2,5,-1
 540 664 l 1,6,-1
 320 0 l 1,7,-1
 8 0 l 1,8,-1
 390 1057 l 1,9,-1
 388 1063 l 1,10,-1
 192 998 l 1,11,-1
 192 1192 l 1,12,-1
 314 1233 l 1,13,14
 276 1312 276 1312 190 1312 c 0,15,16
 176 1312 176 1312 162 1311.5 c 128,-1,17
 148 1311 148 1311 131 1309 c 1,18,-1
 125 1525 l 1,19,20
 156 1535 156 1535 203.5 1540.5 c 128,-1,21
 251 1546 251 1546 287 1546 c 0,22,23
 396 1546 396 1546 461 1500.5 c 128,-1,24
 526 1455 526 1455 557 1374 c 2,25,-1
 578 1320 l 1,26,-1
 755 1379 l 1,27,-1
 755 1185 l 1,28,-1
 647 1149 l 1,29,-1
 975 325 l 2,30,31
 993 282 993 282 1016.5 249.5 c 128,-1,32
 1040 217 1040 217 1080 217 c 2,33,-1
 1114 217 l 1,34,-1
 1115 -12 l 1,0,1
EndSplineSet
EndChar

StartChar: mcapturn
Encoding: 412 412 178
Width: 1851
Flags: W
LayerCount: 2
Fore
SplineSet
1454 0 m 1,0,-1
 1441 116 l 1,1,2
 1331 -20 1331 -20 1140 -20 c 0,3,4
 1034 -20 1034 -20 954 20.5 c 128,-1,5
 874 61 874 61 829 157 c 1,6,7
 778 74 778 74 694.5 27 c 128,-1,8
 611 -20 611 -20 494 -20 c 0,9,10
 330 -20 330 -20 232.5 73.5 c 128,-1,11
 135 167 135 167 135 428 c 2,12,-1
 135 1456 l 1,13,-1
 424 1456 l 1,14,-1
 424 426 l 2,15,16
 424 310 424 310 467 262.5 c 128,-1,17
 510 215 510 215 578 215 c 0,18,19
 658 215 658 215 708.5 247.5 c 128,-1,20
 759 280 759 280 784 335 c 1,21,22
 780 379 780 379 780 428 c 2,23,-1
 780 1456 l 1,24,-1
 1069 1456 l 1,25,-1
 1069 426 l 2,26,27
 1069 310 1069 310 1112.5 262.5 c 128,-1,28
 1156 215 1156 215 1223 215 c 0,29,30
 1369 215 1369 215 1426 328 c 1,31,-1
 1426 1456 l 1,32,-1
 1716 1456 l 1,33,-1
 1716 0 l 1,34,-1
 1454 0 l 1,0,-1
EndSplineSet
EndChar

StartChar: Nhook
Encoding: 413 413 179
Width: 1548
Flags: W
LayerCount: 2
Fore
SplineSet
1114 0 m 1,0,-1
 530 959 l 1,1,-1
 530 -35 l 2,2,3
 530 -230 530 -230 425.5 -333.5 c 128,-1,4
 321 -437 321 -437 143 -437 c 0,5,6
 65 -437 65 -437 0 -420 c 1,7,-1
 15 -176 l 1,8,9
 60 -188 60 -188 106 -188 c 0,10,11
 230 -188 230 -188 230 -35 c 2,12,-1
 230 1456 l 1,13,-1
 530 1456 l 1,14,-1
 1115 496 l 1,15,-1
 1115 1456 l 1,16,-1
 1414 1456 l 1,17,-1
 1414 0 l 1,18,-1
 1114 0 l 1,0,-1
EndSplineSet
EndChar

StartChar: Ohorn
Encoding: 416 416 180
Width: 1436
GlyphClass: 2
Flags: W
AnchorPoint: "Anchor-5" 1436 1603 basechar 0
AnchorPoint: "Anchor-1" 683 0 basechar 0
AnchorPoint: "Anchor-0" 706 1603 basechar 0
LayerCount: 2
Fore
SplineSet
1321 695 m 2,0,1
 1321 362 1321 362 1149 171 c 128,-1,2
 977 -20 977 -20 702 -20 c 0,3,4
 428 -20 428 -20 254 171 c 128,-1,5
 80 362 80 362 80 695 c 2,6,-1
 80 760 l 2,7,8
 80 1093 80 1093 253 1284.5 c 128,-1,9
 426 1476 426 1476 700 1476 c 0,10,11
 976 1476 976 1476 1145 1288 c 1,12,13
 1218 1307 1218 1307 1245 1379.5 c 128,-1,14
 1272 1452 1272 1452 1272 1567 c 1,15,-1
 1467 1567 l 1,16,17
 1467 1223 1467 1223 1240 1146 c 1,18,19
 1321 981 1321 981 1321 760 c 2,20,-1
 1321 695 l 2,0,1
1017 695 m 2,21,-1
 1017 762 l 2,22,23
 1017 990 1017 990 934 1109 c 128,-1,24
 851 1228 851 1228 700 1228 c 256,25,26
 549 1228 549 1228 466.5 1109 c 128,-1,27
 384 990 384 990 384 762 c 2,28,-1
 384 695 l 2,29,30
 384 468 384 468 467.5 347.5 c 128,-1,31
 551 227 551 227 702 227 c 0,32,33
 854 227 854 227 935.5 347.5 c 128,-1,34
 1017 468 1017 468 1017 695 c 2,21,-1
EndSplineSet
EndChar

StartChar: ohorn
Encoding: 417 417 181
Width: 1191
GlyphClass: 2
Flags: W
AnchorPoint: "Anchor-5" 1191 1290 basechar 0
AnchorPoint: "Anchor-1" 578 -10 basechar 0
AnchorPoint: "Anchor-0" 578 1290 basechar 0
LayerCount: 2
Fore
SplineSet
1090 530 m 2,0,1
 1090 294 1090 294 956.5 137 c 128,-1,2
 823 -20 823 -20 578 -20 c 0,3,4
 332 -20 332 -20 198.5 137 c 128,-1,5
 65 294 65 294 65 530 c 2,6,-1
 65 551 l 2,7,8
 65 787 65 787 198.5 944.5 c 128,-1,9
 332 1102 332 1102 576 1102 c 0,10,11
 698 1102 698 1102 793 1061 c 128,-1,12
 888 1020 888 1020 954 948 c 1,13,14
 1000 977 1000 977 1016 1037.5 c 128,-1,15
 1032 1098 1032 1098 1032 1183 c 1,16,-1
 1207 1183 l 1,17,18
 1207 1053 1207 1053 1165 963.5 c 128,-1,19
 1123 874 1123 874 1031 832 c 1,20,21
 1090 709 1090 709 1090 551 c 2,22,-1
 1090 530 l 2,0,1
354 551 m 2,23,-1
 354 530 l 2,24,25
 354 398 354 398 404.5 305.5 c 128,-1,26
 455 213 455 213 578 213 c 0,27,28
 699 213 699 213 750 305.5 c 128,-1,29
 801 398 801 398 801 530 c 2,30,-1
 801 551 l 2,31,32
 801 680 801 680 750 774.5 c 128,-1,33
 699 869 699 869 576 869 c 0,34,35
 455 869 455 869 404.5 774.5 c 128,-1,36
 354 680 354 680 354 551 c 2,23,-1
EndSplineSet
EndChar

StartChar: OI
Encoding: 418 418 182
Width: 1837
Flags: W
LayerCount: 2
Fore
SplineSet
715 -20 m 0,0,1
 434 -20 434 -20 260 162.5 c 128,-1,2
 86 345 86 345 86 683 c 2,3,-1
 86 773 l 2,4,5
 86 1109 86 1109 260 1293 c 128,-1,6
 434 1477 434 1477 715 1477 c 0,7,8
 903 1477 903 1477 1023 1430 c 128,-1,9
 1143 1383 1143 1383 1208 1329 c 1,10,-1
 1486 1456 l 1,11,-1
 1705 1456 l 1,12,-1
 1705 -417 l 1,13,-1
 1416 -417 l 1,14,-1
 1416 1115 l 1,15,-1
 1267 1048 l 1,16,-1
 1267 186 l 1,17,18
 1217 124 1217 124 1086.5 52 c 128,-1,19
 956 -20 956 -20 715 -20 c 0,0,1
729 1235 m 0,20,21
 390 1235 390 1235 390 773 c 2,22,-1
 390 683 l 2,23,24
 390 465 390 465 474.5 343.5 c 128,-1,25
 559 222 559 222 732 222 c 0,26,27
 844 222 844 222 899 248 c 128,-1,28
 954 274 954 274 979 298 c 1,29,-1
 979 1159 l 1,30,31
 948 1189 948 1189 891.5 1212 c 128,-1,32
 835 1235 835 1235 729 1235 c 0,20,21
EndSplineSet
EndChar

StartChar: oi
Encoding: 419 419 183
Width: 1487
Flags: W
LayerCount: 2
Fore
SplineSet
1084 750 m 1,0,-1
 982 706 l 1,1,-1
 982 194 l 1,2,3
 926 106 926 106 828 43 c 128,-1,4
 730 -20 730 -20 566 -20 c 0,5,6
 315 -20 315 -20 190.5 138.5 c 128,-1,7
 66 297 66 297 66 527 c 2,8,-1
 66 555 l 2,9,10
 66 784 66 784 190 943 c 128,-1,11
 314 1102 314 1102 565 1102 c 0,12,13
 678 1102 678 1102 764.5 1060.5 c 128,-1,14
 851 1019 851 1019 908 962 c 1,15,-1
 1175 1082 l 1,16,-1
 1373 1082 l 1,17,-1
 1373 -417 l 1,18,-1
 1084 -417 l 1,19,-1
 1084 750 l 1,0,-1
561 213 m 0,20,21
 644 213 644 213 693 260 c 1,22,-1
 693 814 l 1,23,24
 643 869 643 869 560 869 c 0,25,26
 433 869 433 869 394.5 772.5 c 128,-1,27
 356 676 356 676 356 555 c 2,28,-1
 356 527 l 2,29,30
 356 390 356 390 399 301.5 c 128,-1,31
 442 213 442 213 561 213 c 0,20,21
EndSplineSet
EndChar

StartChar: Phook
Encoding: 420 420 184
Width: 1626
Flags: W
LayerCount: 2
Fore
SplineSet
37 1088 m 0,0,1
 37 1263 37 1263 140 1359.5 c 128,-1,2
 243 1456 243 1456 435 1456 c 1,3,-1
 435 1456 l 1,4,-1
 1003 1456 l 2,5,6
 1261 1456 1261 1456 1405.5 1320 c 128,-1,7
 1550 1184 1550 1184 1550 975 c 0,8,9
 1550 764 1550 764 1405.5 639 c 128,-1,10
 1261 514 1261 514 1003 514 c 2,11,-1
 735 514 l 1,12,-1
 735 0 l 1,13,-1
 435 0 l 1,14,-1
 435 1213 l 1,15,16
 347 1212 347 1212 316 1155.5 c 128,-1,17
 285 1099 285 1099 285 1029 c 0,18,19
 285 1007 285 1007 287.5 986.5 c 128,-1,20
 290 966 290 966 294 943 c 1,21,-1
 54 943 l 1,22,23
 37 1012 37 1012 37 1088 c 0,0,1
735 1213 m 1,24,-1
 735 756 l 1,25,-1
 1003 756 l 2,26,27
 1132 756 1132 756 1189.5 817 c 128,-1,28
 1247 878 1247 878 1247 973 c 256,29,30
 1247 1068 1247 1068 1189.5 1140.5 c 128,-1,31
 1132 1213 1132 1213 1003 1213 c 2,32,-1
 735 1213 l 1,24,-1
EndSplineSet
EndChar

StartChar: phook
Encoding: 421 421 185
Width: 1153
Flags: W
LayerCount: 2
Fore
SplineSet
666 -20 m 0,0,1
 504 -20 504 -20 401 95 c 1,2,-1
 401 -416 l 1,3,-1
 111 -416 l 1,4,-1
 111 1082 l 1,5,-1
 111 1082 l 1,6,7
 115 1219 115 1219 174 1289.5 c 128,-1,8
 233 1360 233 1360 318.5 1385 c 128,-1,9
 404 1410 404 1410 488 1410 c 0,10,11
 576 1410 576 1410 639 1395 c 1,12,-1
 639 1201 l 1,13,14
 595 1208 595 1208 566 1208 c 0,15,16
 506 1208 506 1208 453.5 1179.5 c 128,-1,17
 401 1151 401 1151 401 1067 c 2,18,-1
 401 989 l 1,19,20
 502 1102 502 1102 663 1102 c 0,21,22
 869 1102 869 1102 977.5 951 c 128,-1,23
 1086 800 1086 800 1086 553 c 2,24,-1
 1086 532 l 2,25,26
 1086 296 1086 296 977.5 138 c 128,-1,27
 869 -20 869 -20 666 -20 c 0,0,1
588 868 m 0,28,29
 453 868 453 868 401 763 c 1,30,-1
 401 320 l 1,31,32
 455 213 455 213 590 213 c 0,33,34
 703 213 703 213 750 307 c 128,-1,35
 797 401 797 401 797 532 c 2,36,-1
 797 553 l 2,37,38
 797 687 797 687 748.5 777.5 c 128,-1,39
 700 868 700 868 588 868 c 0,28,29
EndSplineSet
EndChar

StartChar: YR
Encoding: 422 422 186
Width: 1415
Flags: W
LayerCount: 2
Fore
SplineSet
1446 -338 m 1,0,-1
 1446 -352 l 1,1,-1
 1123 -352 l 1,2,-1
 670 534 l 1,3,-1
 431 534 l 1,4,-1
 431 0 l 1,5,-1
 130 0 l 1,6,-1
 130 1456 l 1,7,-1
 131 1456 l 1,8,-1
 131 1560 l 1,9,-1
 431 1560 l 1,10,-1
 431 1456 l 1,11,-1
 672 1456 l 2,12,13
 923 1456 923 1456 1066.5 1343.5 c 128,-1,14
 1210 1231 1210 1231 1210 1016 c 0,15,16
 1210 858 1210 858 1140 761 c 128,-1,17
 1070 664 1070 664 950 610 c 1,18,-1
 1446 -338 l 1,0,-1
431 1213 m 1,19,-1
 431 776 l 1,20,-1
 672 776 l 2,21,22
 790 776 790 776 849.5 835.5 c 128,-1,23
 909 895 909 895 909 993 c 0,24,25
 909 1094 909 1094 851 1153.5 c 128,-1,26
 793 1213 793 1213 672 1213 c 2,27,-1
 431 1213 l 1,19,-1
EndSplineSet
EndChar

StartChar: Tonetwo
Encoding: 423 423 187
Width: 1259
Flags: W
LayerCount: 2
Fore
SplineSet
373 382 m 0,0,1
 373 312 373 312 428.5 265 c 128,-1,2
 484 218 484 218 600 218 c 0,3,4
 729 218 729 218 808.5 272 c 128,-1,5
 888 326 888 326 888 459 c 1,6,-1
 1190 459 l 1,7,8
 1190 294 1190 294 1103 188 c 128,-1,9
 1016 82 1016 82 880.5 31 c 128,-1,10
 745 -20 745 -20 600 -20 c 0,11,12
 360 -20 360 -20 216 86.5 c 128,-1,13
 72 193 72 193 72 384 c 0,14,15
 72 564 72 564 195 674 c 128,-1,16
 318 784 318 784 556 857 c 0,17,18
 697 900 697 900 771 948 c 128,-1,19
 845 996 845 996 845 1068 c 0,20,21
 845 1138 845 1138 787.5 1187.5 c 128,-1,22
 730 1237 730 1237 613 1237 c 0,23,24
 491 1237 491 1237 432 1178 c 128,-1,25
 373 1119 373 1119 373 1027 c 1,26,-1
 73 1027 l 1,27,28
 73 1223 73 1223 219 1349.5 c 128,-1,29
 365 1476 365 1476 607 1476 c 0,30,31
 843 1476 843 1476 994 1364 c 128,-1,32
 1145 1252 1145 1252 1145 1069 c 0,33,34
 1145 880 1145 880 1001.5 778 c 128,-1,35
 858 676 858 676 658 612 c 0,36,37
 481 556 481 556 427 507 c 128,-1,38
 373 458 373 458 373 382 c 0,0,1
EndSplineSet
EndChar

StartChar: tonetwo
Encoding: 424 424 188
Width: 1054
Flags: W
LayerCount: 2
Fore
SplineSet
356 300 m 0,0,1
 356 186 356 186 524 186 c 0,2,3
 602 186 602 186 660.5 223 c 128,-1,4
 719 260 719 260 723 345 c 1,5,-1
 998 345 l 1,6,7
 998 213 998 213 878 96.5 c 128,-1,8
 758 -20 758 -20 530 -20 c 0,9,10
 322 -20 322 -20 198.5 74 c 128,-1,11
 75 168 75 168 75 311 c 0,12,13
 75 472 75 472 191.5 544 c 128,-1,14
 308 616 308 616 484 651 c 0,15,16
 597 673 597 673 641 703 c 128,-1,17
 685 733 685 733 685 780 c 0,18,19
 685 830 685 830 645 863.5 c 128,-1,20
 605 897 605 897 532 897 c 0,21,22
 447 897 447 897 407.5 856 c 128,-1,23
 368 815 368 815 368 753 c 1,24,-1
 79 753 l 1,25,26
 79 904 79 904 200 1003 c 128,-1,27
 321 1102 321 1102 532 1102 c 0,28,29
 734 1102 734 1102 848.5 1001.5 c 128,-1,30
 963 901 963 901 963 766 c 0,31,32
 963 626 963 626 853.5 549.5 c 128,-1,33
 744 473 744 473 578 438 c 0,34,35
 442 409 442 409 399 377.5 c 128,-1,36
 356 346 356 346 356 300 c 0,0,1
EndSplineSet
EndChar

StartChar: eshlooprev
Encoding: 426 426 190
Width: 1074
Flags: W
LayerCount: 2
Fore
SplineSet
1059 -412 m 1,0,1
 991 -429 991 -429 915 -429 c 0,2,3
 740 -429 740 -429 643 -325.5 c 128,-1,4
 546 -222 546 -222 546 -27 c 2,5,-1
 546 790 l 1,6,7
 491 774 491 774 434 774 c 0,8,9
 269 774 269 774 152 891 c 128,-1,10
 35 1008 35 1008 35 1174 c 256,11,12
 35 1340 35 1340 152 1457.5 c 128,-1,13
 269 1575 269 1575 434 1575 c 0,14,15
 600 1575 600 1575 718 1457.5 c 128,-1,16
 836 1340 836 1340 836 1174 c 2,17,-1
 836 -27 l 2,18,19
 836 -192 836 -192 973 -192 c 0,20,21
 1016 -192 1016 -192 1059 -183 c 1,22,-1
 1059 -412 l 1,0,1
436 1023 m 0,23,24
 496 1023 496 1023 538 1061 c 128,-1,25
 580 1099 580 1099 580 1175 c 0,26,27
 580 1252 580 1252 538 1290.5 c 128,-1,28
 496 1329 496 1329 436 1329 c 0,29,30
 374 1329 374 1329 331.5 1290.5 c 128,-1,31
 289 1252 289 1252 289 1175 c 0,32,33
 289 1099 289 1099 331.5 1061 c 128,-1,34
 374 1023 374 1023 436 1023 c 0,23,24
EndSplineSet
EndChar

StartChar: tpalatalhook
Encoding: 427 427 191
Width: 692
Flags: W
LayerCount: 2
Fore
SplineSet
569 218 m 0,0,1
 595 218 595 218 616.5 220.5 c 128,-1,2
 638 223 638 223 653 226 c 1,3,-1
 653 -58 l 2,4,5
 653 -224 653 -224 570.5 -312.5 c 128,-1,6
 488 -401 488 -401 339 -401 c 0,7,8
 273 -401 273 -401 216 -386 c 1,9,-1
 216 -192 l 1,10,11
 260 -199 260 -199 289 -199 c 0,12,13
 350 -199 350 -199 402.5 -170.5 c 128,-1,14
 455 -142 455 -142 455 -58 c 2,15,-1
 455 -19 l 1,16,17
 324 -14 324 -14 246.5 60.5 c 128,-1,18
 169 135 169 135 169 300 c 2,19,-1
 169 871 l 1,20,-1
 10 871 l 1,21,-1
 10 1082 l 1,22,-1
 169 1082 l 1,23,-1
 169 1349 l 1,24,-1
 458 1349 l 1,25,-1
 458 1082 l 1,26,-1
 642 1082 l 1,27,-1
 642 871 l 1,28,-1
 458 871 l 1,29,-1
 458 330 l 2,30,31
 458 262 458 262 486 240 c 128,-1,32
 514 218 514 218 569 218 c 0,0,1
EndSplineSet
EndChar

StartChar: Thook
Encoding: 428 428 192
Width: 1437
Flags: W
LayerCount: 2
Fore
SplineSet
30 1088 m 0,0,1
 30 1263 30 1263 133.5 1359.5 c 128,-1,2
 237 1456 237 1456 432 1456 c 2,3,-1
 1396 1456 l 1,4,-1
 1396 1213 l 1,5,-1
 951 1213 l 1,6,-1
 951 0 l 1,7,-1
 650 0 l 1,8,-1
 650 1213 l 1,9,-1
 432 1213 l 2,10,11
 341 1213 341 1213 309.5 1156.5 c 128,-1,12
 278 1100 278 1100 278 1029 c 0,13,14
 278 988 278 988 287 943 c 1,15,-1
 47 943 l 1,16,17
 30 1012 30 1012 30 1088 c 0,0,1
EndSplineSet
EndChar

StartChar: thook
Encoding: 429 429 193
Width: 746
Flags: W
LayerCount: 2
Fore
SplineSet
627 1373 m 0,0,1
 567 1373 567 1373 514.5 1344.5 c 128,-1,2
 462 1316 462 1316 462 1233 c 2,3,-1
 462 1082 l 1,4,-1
 647 1082 l 1,5,-1
 647 871 l 1,6,-1
 462 871 l 1,7,-1
 462 338 l 2,8,9
 462 267 462 267 490 242.5 c 128,-1,10
 518 218 518 218 573 218 c 0,11,12
 599 218 599 218 620.5 220.5 c 128,-1,13
 642 223 642 223 657 226 c 1,14,-1
 657 7 l 1,15,16
 621 -5 621 -5 578.5 -12.5 c 128,-1,17
 536 -20 536 -20 483 -20 c 0,18,19
 341 -20 341 -20 257 56 c 128,-1,20
 173 132 173 132 173 308 c 2,21,-1
 173 871 l 1,22,-1
 15 871 l 1,23,-1
 15 1082 l 1,24,-1
 173 1082 l 1,25,-1
 173 1233 l 2,26,27
 173 1376 173 1376 231.5 1450 c 128,-1,28
 290 1524 290 1524 377 1549.5 c 128,-1,29
 464 1575 464 1575 550 1575 c 0,30,31
 638 1575 638 1575 701 1560 c 1,32,-1
 701 1366 l 1,33,34
 666 1373 666 1373 627 1373 c 0,0,1
EndSplineSet
EndChar

StartChar: Trthook
Encoding: 430 430 194
Width: 1267
Flags: W
LayerCount: 2
Fore
SplineSet
41 1213 m 1,0,-1
 41 1456 l 1,1,-1
 1226 1456 l 1,2,-1
 1226 1213 l 1,3,-1
 781 1213 l 1,4,-1
 781 -35 l 2,5,6
 781 -191 781 -191 891 -191 c 0,7,8
 940 -191 940 -191 990 -179 c 1,9,-1
 1005 -420 l 1,10,11
 940 -437 940 -437 862 -437 c 0,12,13
 684 -437 684 -437 582.5 -333.5 c 128,-1,14
 481 -230 481 -230 481 -35 c 2,15,-1
 481 1213 l 1,16,-1
 41 1213 l 1,0,-1
EndSplineSet
EndChar

StartChar: Uhorn
Encoding: 431 431 195
Width: 1459
GlyphClass: 2
Flags: W
AnchorPoint: "Anchor-5" 1459 1612 basechar 0
AnchorPoint: "Anchor-1" 716 -10 basechar 0
AnchorPoint: "Anchor-0" 716 1612 basechar 0
LayerCount: 2
Fore
SplineSet
1233 496 m 2,0,1
 1233 242 1233 242 1075 111 c 128,-1,2
 917 -20 917 -20 675 -20 c 0,3,4
 430 -20 430 -20 273 111 c 128,-1,5
 116 242 116 242 116 496 c 2,6,-1
 116 1456 l 1,7,-1
 417 1456 l 1,8,-1
 417 496 l 2,9,10
 417 352 417 352 485.5 287 c 128,-1,11
 554 222 554 222 675 222 c 256,12,13
 796 222 796 222 864 287 c 128,-1,14
 932 352 932 352 932 496 c 2,15,-1
 932 1456 l 1,16,-1
 1233 1456 l 1,17,-1
 1233 1230 l 1,18,19
 1364 1240 1364 1240 1396 1320.5 c 128,-1,20
 1428 1401 1428 1401 1428 1537 c 1,21,-1
 1621 1537 l 1,22,23
 1621 1323 1621 1323 1538 1202 c 128,-1,24
 1455 1081 1455 1081 1233 1071 c 1,25,-1
 1233 496 l 2,0,1
EndSplineSet
EndChar

StartChar: uhorn
Encoding: 432 432 196
Width: 1249
GlyphClass: 2
Flags: W
AnchorPoint: "Anchor-5" 1249 1269 basechar 0
AnchorPoint: "Anchor-1" 572 0 basechar 0
AnchorPoint: "Anchor-0" 576 1269 basechar 0
LayerCount: 2
Fore
SplineSet
768 0 m 1,0,-1
 760 111 l 1,1,2
 654 -20 654 -20 464 -20 c 0,3,4
 304 -20 304 -20 204.5 74 c 128,-1,5
 105 168 105 168 105 382 c 2,6,-1
 105 1082 l 1,7,-1
 394 1082 l 1,8,-1
 394 380 l 2,9,10
 394 290 394 290 437 252.5 c 128,-1,11
 480 215 480 215 547 215 c 0,12,13
 626 215 626 215 675 242.5 c 128,-1,14
 724 270 724 270 750 318 c 1,15,-1
 750 1082 l 1,16,-1
 1040 1082 l 1,17,-1
 1040 944 l 1,18,19
 1122 962 1122 962 1142.5 1020 c 128,-1,20
 1163 1078 1163 1078 1163 1177 c 1,21,-1
 1335 1177 l 1,22,23
 1335 1011 1335 1011 1271 917 c 128,-1,24
 1207 823 1207 823 1040 804 c 1,25,-1
 1040 0 l 1,26,-1
 768 0 l 1,0,-1
EndSplineSet
EndChar

StartChar: Upsilon2
Encoding: 433 433 197
Width: 1365
Flags: W
LayerCount: 2
Fore
SplineSet
925 679 m 2,0,1
 925 926 925 926 871.5 1049 c 128,-1,2
 818 1172 818 1172 731 1206 c 1,3,-1
 731 1456 l 1,4,-1
 1243 1456 l 1,5,-1
 1243 1213 l 1,6,-1
 1023 1213 l 1,7,8
 1126 1121 1126 1121 1193 982 c 128,-1,9
 1260 843 1260 843 1260 679 c 2,10,-1
 1260 594 l 2,11,12
 1260 324 1260 324 1100 152 c 128,-1,13
 940 -20 940 -20 683 -20 c 256,14,15
 426 -20 426 -20 265.5 152 c 128,-1,16
 105 324 105 324 105 594 c 2,17,-1
 105 679 l 2,18,19
 105 843 105 843 172 982 c 128,-1,20
 239 1121 239 1121 341 1213 c 1,21,-1
 123 1213 l 1,22,-1
 123 1456 l 1,23,-1
 627 1456 l 1,24,-1
 627 1206 l 1,25,26
 544 1172 544 1172 492 1048 c 128,-1,27
 440 924 440 924 440 679 c 2,28,-1
 440 592 l 2,29,30
 440 410 440 410 504.5 317.5 c 128,-1,31
 569 225 569 225 683 225 c 0,32,33
 796 225 796 225 860.5 317.5 c 128,-1,34
 925 410 925 410 925 592 c 2,35,-1
 925 679 l 2,0,1
EndSplineSet
EndChar

StartChar: Vcursive
Encoding: 434 434 198
Width: 1350
Flags: W
LayerCount: 2
Fore
SplineSet
676 -20 m 0,0,1
 431 -20 431 -20 274 111 c 128,-1,2
 117 242 117 242 117 496 c 2,3,-1
 117 1456 l 1,4,-1
 418 1456 l 1,5,-1
 418 496 l 2,6,7
 418 352 418 352 486.5 287 c 128,-1,8
 555 222 555 222 676 222 c 0,9,10
 798 222 798 222 865.5 287 c 128,-1,11
 933 352 933 352 933 496 c 2,12,-1
 933 1073 l 2,13,14
 933 1164 933 1164 899.5 1195.5 c 128,-1,15
 866 1227 866 1227 795 1227 c 0,16,17
 756 1227 756 1227 710 1219 c 1,18,-1
 710 1458 l 1,19,20
 778 1475 778 1475 854 1475 c 0,21,22
 1029 1475 1029 1475 1131 1371.5 c 128,-1,23
 1233 1268 1233 1268 1233 1073 c 2,24,-1
 1233 496 l 2,25,26
 1233 242 1233 242 1075.5 111 c 128,-1,27
 918 -20 918 -20 676 -20 c 0,0,1
EndSplineSet
EndChar

StartChar: Yhook
Encoding: 435 435 199
Width: 1401
Flags: W
LayerCount: 2
Fore
SplineSet
1019 978 m 2,0,-1
 787 530 l 1,1,-1
 787 0 l 1,2,-1
 482 0 l 1,3,-1
 482 530 l 1,4,-1
 2 1456 l 1,5,-1
 332 1456 l 1,6,-1
 635 798 l 1,7,-1
 772 1096 l 2,8,9
 852 1272 852 1272 933.5 1374.5 c 128,-1,10
 1015 1477 1015 1477 1158 1477 c 0,11,12
 1237 1477 1237 1477 1296 1460 c 128,-1,13
 1355 1443 1355 1443 1409 1415 c 1,14,-1
 1302 1196 l 1,15,16
 1279 1208 1279 1208 1262.5 1214.5 c 128,-1,17
 1246 1221 1246 1221 1219 1221 c 0,18,19
 1160 1221 1160 1221 1120 1158.5 c 128,-1,20
 1080 1096 1080 1096 1019 978 c 2,0,-1
EndSplineSet
EndChar

StartChar: yhook
Encoding: 436 436 200
Width: 1225
Flags: W
LayerCount: 2
Fore
SplineSet
592 -162 m 2,0,1
 574 -216 574 -216 536.5 -280.5 c 128,-1,2
 499 -345 499 -345 429.5 -391 c 128,-1,3
 360 -437 360 -437 246 -437 c 0,4,5
 206 -437 206 -437 179 -432 c 128,-1,6
 152 -427 152 -427 118 -418 c 1,7,-1
 118 -199 l 1,8,9
 128 -200 128 -200 140 -200 c 128,-1,10
 152 -200 152 -200 163 -200 c 0,11,12
 248 -200 248 -200 288.5 -172.5 c 128,-1,13
 329 -145 329 -145 352 -83 c 2,14,-1
 383 -2 l 1,15,-1
 4 1082 l 1,16,-1
 315 1082 l 1,17,-1
 504 450 l 1,18,-1
 514 398 l 1,19,-1
 690 981 l 2,20,21
 732 1120 732 1120 794 1232 c 128,-1,22
 856 1344 856 1344 1010 1344 c 0,23,24
 1080 1344 1080 1344 1139.5 1318.5 c 128,-1,25
 1199 1293 1199 1293 1244 1257 c 1,26,-1
 1178 1077 l 1,27,28
 1154 1088 1154 1088 1132.5 1095.5 c 128,-1,29
 1111 1103 1111 1103 1086 1103 c 0,30,31
 1041 1103 1041 1103 1011 1056.5 c 128,-1,32
 981 1010 981 1010 946 905 c 2,33,-1
 592 -162 l 2,0,1
EndSplineSet
EndChar

StartChar: Zbar
Encoding: 437 437 201
Width: 1242
GlyphClass: 2
Flags: W
AnchorPoint: "Anchor-5" 1242 1600 basechar 0
AnchorPoint: "Anchor-1" 628 10 basechar 0
AnchorPoint: "Anchor-0" 629 1600 basechar 0
LayerCount: 2
Fore
SplineSet
74 1213 m 1,0,-1
 74 1456 l 1,1,-1
 1166 1456 l 1,2,-1
 1166 1284 l 1,3,-1
 857 835 l 1,4,-1
 1116 835 l 1,5,-1
 1116 652 l 1,6,-1
 731 652 l 1,7,-1
 449 242 l 1,8,-1
 1182 242 l 1,9,-1
 1182 0 l 1,10,-1
 74 0 l 1,11,-1
 74 176 l 1,12,-1
 405 652 l 1,13,-1
 140 652 l 1,14,-1
 140 835 l 1,15,-1
 532 835 l 1,16,-1
 794 1213 l 1,17,-1
 74 1213 l 1,0,-1
EndSplineSet
EndChar

StartChar: zbar
Encoding: 438 438 202
Width: 1048
GlyphClass: 2
Flags: W
AnchorPoint: "Anchor-5" 1048 1290 basechar 0
AnchorPoint: "Anchor-1" 525 10 basechar 0
AnchorPoint: "Anchor-0" 522 1290 basechar 0
LayerCount: 2
Fore
SplineSet
93 849 m 1,0,-1
 93 1082 l 1,1,-1
 960 1082 l 1,2,-1
 960 912 l 1,3,-1
 758 645 l 1,4,-1
 909 645 l 1,5,-1
 909 462 l 1,6,-1
 620 462 l 1,7,-1
 446 233 l 1,8,-1
 975 233 l 1,9,-1
 975 0 l 1,10,-1
 77 0 l 1,11,-1
 77 176 l 1,12,-1
 294 462 l 1,13,-1
 134 462 l 1,14,-1
 134 645 l 1,15,-1
 433 645 l 1,16,-1
 588 849 l 1,17,-1
 93 849 l 1,0,-1
EndSplineSet
EndChar

StartChar: uni01B7
Encoding: 439 439 203
Width: 1339
Flags: W
LayerCount: 2
Fore
SplineSet
75 1213 m 1,0,-1
 75 1456 l 1,1,-1
 1159 1456 l 1,2,-1
 1159 1288 l 1,3,-1
 754 817 l 1,4,5
 985 787 985 787 1121 629.5 c 128,-1,6
 1257 472 1257 472 1257 197 c 0,7,8
 1257 -108 1257 -108 1093.5 -269.5 c 128,-1,9
 930 -431 930 -431 653 -431 c 0,10,11
 385 -431 385 -431 234.5 -289.5 c 128,-1,12
 84 -148 84 -148 68 73 c 1,13,-1
 368 73 l 1,14,15
 381 -61 381 -61 447 -125 c 128,-1,16
 513 -189 513 -189 653 -189 c 0,17,18
 814 -189 814 -189 885.5 -94.5 c 128,-1,19
 957 0 957 0 957 197 c 0,20,21
 957 412 957 412 880.5 501 c 128,-1,22
 804 590 804 590 648 590 c 2,23,-1
 384 590 l 1,24,-1
 384 764 l 1,25,-1
 777 1213 l 1,26,-1
 75 1213 l 1,0,-1
EndSplineSet
EndChar

StartChar: uni01B8
Encoding: 440 440 204
Width: 1339
Flags: W
LayerCount: 2
Fore
SplineSet
958 764 m 1,0,-1
 958 590 l 1,1,-1
 690 590 l 2,2,3
 533 590 533 590 457 501 c 128,-1,4
 381 412 381 412 381 197 c 0,5,6
 381 0 381 0 452 -94.5 c 128,-1,7
 523 -189 523 -189 684 -189 c 0,8,9
 824 -189 824 -189 890.5 -125 c 128,-1,10
 957 -61 957 -61 969 73 c 1,11,-1
 1270 73 l 1,12,13
 1253 -148 1253 -148 1102.5 -289.5 c 128,-1,14
 952 -431 952 -431 684 -431 c 0,15,16
 407 -431 407 -431 244 -269.5 c 128,-1,17
 81 -108 81 -108 81 197 c 0,18,19
 81 473 81 473 218.5 631 c 128,-1,20
 356 789 356 789 588 817 c 1,21,-1
 183 1288 l 1,22,-1
 183 1456 l 1,23,-1
 1262 1456 l 1,24,-1
 1262 1213 l 1,25,-1
 565 1213 l 1,26,-1
 958 764 l 1,0,-1
EndSplineSet
EndChar

StartChar: uni01B9
Encoding: 441 441 205
Width: 1175
Flags: W
LayerCount: 2
Fore
SplineSet
429 849 m 1,0,-1
 766 493 l 1,1,-1
 766 310 l 1,2,-1
 630 310 l 2,3,4
 493 310 493 310 421 247 c 128,-1,5
 349 184 349 184 349 38 c 0,6,7
 349 -47 349 -47 412.5 -104.5 c 128,-1,8
 476 -162 476 -162 591 -162 c 0,9,10
 690 -162 690 -162 748.5 -106 c 128,-1,11
 807 -50 807 -50 807 29 c 1,12,-1
 1097 29 l 1,13,14
 1097 -120 1097 -120 1022 -213.5 c 128,-1,15
 947 -307 947 -307 831 -351 c 128,-1,16
 715 -395 715 -395 591 -395 c 0,17,18
 360 -395 360 -395 210 -283 c 128,-1,19
 60 -171 60 -171 60 33 c 0,20,21
 60 226 60 226 161 344 c 128,-1,22
 262 462 262 462 448 494 c 1,23,-1
 91 891 l 1,24,-1
 92 1082 l 1,25,-1
 1043 1082 l 1,26,-1
 1043 849 l 1,27,-1
 429 849 l 1,0,-1
EndSplineSet
EndChar

StartChar: uni01BA
Encoding: 442 442 206
Width: 1070
Flags: W
LayerCount: 2
Fore
SplineSet
673 364 m 0,0,1
 673 472 673 472 520 472 c 2,2,-1
 289 472 l 1,3,-1
 289 643 l 1,4,-1
 536 849 l 1,5,-1
 113 849 l 1,6,-1
 113 1082 l 1,7,-1
 991 1082 l 1,8,-1
 991 916 l 1,9,-1
 695 654 l 1,10,11
 817 617 817 617 883.5 534.5 c 128,-1,12
 950 452 950 452 950 350 c 0,13,14
 950 200 950 200 832.5 126 c 128,-1,15
 715 52 715 52 563 20 c 0,16,17
 428 -8 428 -8 386 -41 c 128,-1,18
 344 -74 344 -74 344 -116 c 0,19,20
 344 -171 344 -171 390 -200.5 c 128,-1,21
 436 -230 436 -230 512 -230 c 0,22,23
 583 -230 583 -230 644.5 -195.5 c 128,-1,24
 706 -161 706 -161 710 -71 c 1,25,-1
 985 -71 l 1,26,27
 985 -203 985 -203 865 -319.5 c 128,-1,28
 745 -436 745 -436 517 -436 c 0,29,30
 309 -436 309 -436 186 -342 c 128,-1,31
 63 -248 63 -248 63 -105 c 256,32,33
 63 38 63 38 163.5 115 c 128,-1,34
 264 192 264 192 458 230 c 0,35,36
 576 253 576 253 624.5 280.5 c 128,-1,37
 673 308 673 308 673 364 c 0,0,1
EndSplineSet
EndChar

StartChar: uni01BB
Encoding: 443 443 207
Width: 1226
Flags: W
LayerCount: 2
Fore
SplineSet
1097 233 m 1,0,-1
 1097 0 l 1,1,-1
 100 0 l 1,2,-1
 100 198 l 1,3,-1
 523 649 l 1,4,-1
 267 649 l 1,5,-1
 267 832 l 1,6,-1
 679 832 l 1,7,8
 723 894 723 894 741.5 942.5 c 128,-1,9
 760 991 760 991 760 1035 c 0,10,11
 760 1132 760 1132 711.5 1188 c 128,-1,12
 663 1244 663 1244 572 1244 c 0,13,14
 469 1244 469 1244 414.5 1174 c 128,-1,15
 360 1104 360 1104 360 998 c 1,16,-1
 71 998 l 1,17,18
 71 1195 71 1195 206.5 1336 c 128,-1,19
 342 1477 342 1477 577 1477 c 0,20,21
 806 1477 806 1477 928 1366.5 c 128,-1,22
 1050 1256 1050 1256 1050 1064 c 0,23,24
 1050 949 1050 949 988 832 c 1,25,-1
 1146 832 l 1,26,-1
 1146 649 l 1,27,-1
 861 649 l 1,28,29
 831 614 831 614 798 578 c 128,-1,30
 765 542 765 542 729 504 c 2,31,-1
 471 233 l 1,32,-1
 1097 233 l 1,0,-1
EndSplineSet
EndChar

StartChar: Tonefive
Encoding: 444 444 208
Width: 1248
Flags: W
LayerCount: 2
Fore
SplineSet
61 1216 m 1,0,-1
 61 1456 l 1,1,-1
 1120 1456 l 1,2,-1
 1120 1216 l 1,3,-1
 542 1216 l 1,4,-1
 506 902 l 1,5,6
 535 918 535 918 593.5 937.5 c 128,-1,7
 652 957 652 957 724 957 c 0,8,9
 936 957 936 957 1052 828 c 128,-1,10
 1168 699 1168 699 1168 468 c 0,11,12
 1168 274 1168 274 1048 127 c 128,-1,13
 928 -20 928 -20 677 -20 c 0,14,15
 488 -20 488 -20 338.5 92 c 128,-1,16
 189 204 189 204 184 406 c 1,17,-1
 470 406 l 1,18,19
 489 213 489 213 675 213 c 0,20,21
 784 213 784 213 831.5 291.5 c 128,-1,22
 879 370 879 370 879 484 c 0,23,24
 879 599 879 599 822 669.5 c 128,-1,25
 765 740 765 740 646 740 c 0,26,27
 566 740 566 740 523 714.5 c 128,-1,28
 480 689 480 689 451 660 c 1,29,-1
 221 716 l 1,30,-1
 277 1216 l 1,31,-1
 61 1216 l 1,0,-1
EndSplineSet
EndChar

StartChar: tonefive
Encoding: 445 445 209
Width: 1122
Flags: W
LayerCount: 2
Fore
SplineSet
53 852 m 1,0,-1
 53 1082 l 1,1,-1
 990 1082 l 1,2,-1
 990 852 l 1,3,-1
 485 852 l 1,4,-1
 458 665 l 1,5,6
 491 682 491 682 548.5 698 c 128,-1,7
 606 714 606 714 674 714 c 0,8,9
 858 715 858 715 960 619.5 c 128,-1,10
 1062 524 1062 524 1062 352 c 0,11,12
 1062 192 1062 192 953 87.5 c 128,-1,13
 844 -17 844 -17 597 -17 c 0,14,15
 479 -17 479 -17 370.5 18.5 c 128,-1,16
 262 54 262 54 193 128 c 128,-1,17
 124 202 124 202 124 319 c 1,18,-1
 411 336 l 1,19,20
 419 216 419 216 597 216 c 0,21,22
 689 216 689 216 731 257.5 c 128,-1,23
 773 299 773 299 773 368 c 0,24,25
 773 519 773 519 596 519 c 0,26,27
 527 519 527 519 488 501.5 c 128,-1,28
 449 484 449 484 429 462 c 1,29,-1
 170 475 l 1,30,-1
 219 852 l 1,31,-1
 53 852 l 1,0,-1
EndSplineSet
EndChar

StartChar: glottalstopbarinv
Encoding: 446 446 210
Width: 1054
Flags: W
LayerCount: 2
Fore
SplineSet
978 311 m 0,0,1
 978 168 978 168 855 74 c 128,-1,2
 732 -20 732 -20 523 -20 c 0,3,4
 296 -20 296 -20 176 96.5 c 128,-1,5
 56 213 56 213 56 345 c 1,6,-1
 331 345 l 1,7,8
 335 256 335 256 396.5 221 c 128,-1,9
 458 186 458 186 529 186 c 0,10,11
 606 186 606 186 651.5 216.5 c 128,-1,12
 697 247 697 247 697 300 c 0,13,14
 697 363 697 363 642 399.5 c 128,-1,15
 587 436 587 436 514.5 478 c 128,-1,16
 442 520 442 520 387 596.5 c 128,-1,17
 332 673 332 673 332 816 c 2,18,-1
 332 871 l 1,19,-1
 173 871 l 1,20,-1
 173 1082 l 1,21,-1
 332 1082 l 1,22,-1
 332 1349 l 1,23,-1
 621 1349 l 1,24,-1
 621 1082 l 1,25,-1
 805 1082 l 1,26,-1
 805 871 l 1,27,-1
 621 871 l 1,28,-1
 621 814 l 2,29,30
 621 710 621 710 675 661.5 c 128,-1,31
 729 613 729 613 799.5 579.5 c 128,-1,32
 870 546 870 546 924 489 c 128,-1,33
 978 432 978 432 978 311 c 0,0,1
EndSplineSet
EndChar

StartChar: wynn
Encoding: 447 447 211
Width: 1153
Flags: W
LayerCount: 2
Fore
SplineSet
1086 532 m 2,0,1
 1086 326 1086 326 1000 191.5 c 128,-1,2
 914 57 914 57 760 -28 c 128,-1,3
 606 -113 606 -113 401 -171 c 1,4,-1
 401 -416 l 1,5,-1
 111 -416 l 1,6,-1
 111 1082 l 1,7,-1
 379 1082 l 1,8,-1
 390 976 l 1,9,10
 493 1102 493 1102 663 1102 c 0,11,12
 869 1102 869 1102 977.5 951 c 128,-1,13
 1086 800 1086 800 1086 553 c 2,14,-1
 1086 532 l 2,0,1
588 868 m 0,15,16
 453 868 453 868 401 763 c 1,17,-1
 401 57 l 1,18,19
 578 106 578 106 687.5 222 c 128,-1,20
 797 338 797 338 797 532 c 2,21,-1
 797 553 l 2,22,23
 797 687 797 687 748.5 777.5 c 128,-1,24
 700 868 700 868 588 868 c 0,15,16
EndSplineSet
EndChar

StartChar: pipe
Encoding: 448 448 212
Width: 481
Flags: W
LayerCount: 2
Fore
SplineSet
328 1456 m 1,0,-1
 328 0 l 1,1,-1
 153 0 l 1,2,-1
 153 1456 l 1,3,-1
 328 1456 l 1,0,-1
EndSplineSet
EndChar

StartChar: uni01C5
Encoding: 453 453 217
Width: 2286
Flags: W
LayerCount: 2
Fore
SplineSet
1641 1525 m 1,0,-1
 1773 1387 l 1,1,-1
 1905 1525 l 1,2,-1
 2151 1525 l 1,3,-1
 2151 1509 l 1,4,-1
 1871 1252 l 1,5,-1
 1674 1252 l 1,6,-1
 1394 1509 l 1,7,-1
 1394 1525 l 1,8,-1
 1641 1525 l 1,0,-1
130 0 m 1,9,-1
 130 1456 l 1,10,-1
 579 1456 l 2,11,12
 873 1456 873 1456 1058.5 1264 c 128,-1,13
 1244 1072 1244 1072 1244 760 c 2,14,-1
 1244 695 l 2,15,16
 1244 383 1244 383 1058.5 191.5 c 128,-1,17
 873 0 873 0 575 0 c 2,18,-1
 130 0 l 1,9,-1
579 1213 m 2,19,-1
 431 1213 l 1,20,-1
 431 242 l 1,21,-1
 575 242 l 2,22,23
 754 242 754 242 846.5 359.5 c 128,-1,24
 939 477 939 477 939 695 c 2,25,-1
 939 762 l 2,26,27
 939 1213 939 1213 579 1213 c 2,19,-1
1334 849 m 1,28,-1
 1334 1082 l 1,29,-1
 2200 1082 l 1,30,-1
 2200 912 l 1,31,-1
 1687 233 l 1,32,-1
 2216 233 l 1,33,-1
 2216 0 l 1,34,-1
 1318 0 l 1,35,-1
 1318 176 l 1,36,-1
 1829 849 l 1,37,-1
 1334 849 l 1,28,-1
EndSplineSet
EndChar

StartChar: uni01C6
Encoding: 454 454 218
Width: 2096
Flags: W
LayerCount: 2
Fore
SplineSet
790 0 m 1,0,-1
 770 121 l 1,1,2
 720 55 720 55 650.5 17.5 c 128,-1,3
 581 -20 581 -20 489 -20 c 0,4,5
 288 -20 288 -20 177 136 c 128,-1,6
 66 292 66 292 66 528 c 2,7,-1
 66 549 l 2,8,9
 66 796 66 796 177 949 c 128,-1,10
 288 1102 288 1102 491 1102 c 0,11,12
 649 1102 649 1102 751 985 c 1,13,-1
 751 1560 l 1,14,-1
 1041 1560 l 1,15,-1
 1041 0 l 1,16,-1
 790 0 l 1,0,-1
1451 1525 m 1,17,-1
 1583 1387 l 1,18,-1
 1715 1525 l 1,19,-1
 1961 1525 l 1,20,-1
 1961 1509 l 1,21,-1
 1681 1252 l 1,22,-1
 1484 1252 l 1,23,-1
 1204 1509 l 1,24,-1
 1204 1525 l 1,25,-1
 1451 1525 l 1,17,-1
1144 849 m 1,26,-1
 1144 1082 l 1,27,-1
 2010 1082 l 1,28,-1
 2010 912 l 1,29,-1
 1497 233 l 1,30,-1
 2026 233 l 1,31,-1
 2026 0 l 1,32,-1
 1128 0 l 1,33,-1
 1128 176 l 1,34,-1
 1639 849 l 1,35,-1
 1144 849 l 1,26,-1
356 528 m 2,36,37
 356 398 356 398 402 306.5 c 128,-1,38
 448 215 448 215 562 215 c 0,39,40
 694 215 694 215 751 327 c 1,41,-1
 751 756 l 1,42,43
 696 868 696 868 564 868 c 0,44,45
 451 868 451 868 403.5 775.5 c 128,-1,46
 356 683 356 683 356 549 c 2,47,-1
 356 528 l 2,36,37
EndSplineSet
EndChar

StartChar: Gbar
Encoding: 484 484 219
Width: 1447
GlyphClass: 2
Flags: W
AnchorPoint: "Anchor-5" 1447 1609 basechar 0
AnchorPoint: "Anchor-1" 710 -3 basechar 0
AnchorPoint: "Anchor-0" 695 1609 basechar 0
LayerCount: 2
Fore
SplineSet
1283 184 m 1,0,1
 1231 122 1231 122 1098.5 51 c 128,-1,2
 966 -20 966 -20 726 -20 c 0,3,4
 443 -20 443 -20 268.5 163.5 c 128,-1,5
 94 347 94 347 94 684 c 2,6,-1
 94 771 l 2,7,8
 94 1108 94 1108 261 1292.5 c 128,-1,9
 428 1477 428 1477 705 1477 c 0,10,11
 988 1477 988 1477 1123 1341 c 128,-1,12
 1258 1205 1258 1205 1282 993 c 1,13,-1
 990 993 l 1,14,15
 973 1103 973 1103 911 1169 c 128,-1,16
 849 1235 849 1235 713 1235 c 0,17,18
 399 1235 399 1235 399 773 c 2,19,-1
 399 684 l 2,20,21
 399 222 399 222 742 222 c 0,22,23
 850 222 850 222 904 246.5 c 128,-1,24
 958 271 958 271 982 294 c 1,25,-1
 982 326 l 1,26,-1
 748 326 l 1,27,-1
 748 483 l 1,28,-1
 982 483 l 1,29,-1
 982 545 l 1,30,-1
 710 545 l 1,31,-1
 710 765 l 1,32,-1
 1283 765 l 1,33,-1
 1283 483 l 1,34,-1
 1448 483 l 1,35,-1
 1448 326 l 1,36,-1
 1283 326 l 1,37,-1
 1283 184 l 1,0,1
EndSplineSet
EndChar

StartChar: gbar
Encoding: 485 485 220
Width: 1170
GlyphClass: 2
Flags: W
AnchorPoint: "Anchor-9" 589 -124 basechar 0
AnchorPoint: "Anchor-5" 1170 1290 basechar 0
AnchorPoint: "Anchor-1" 558 -487 basechar 0
AnchorPoint: "Anchor-0" 558 1290 basechar 0
LayerCount: 2
Fore
SplineSet
1161 -189 m 1,0,-1
 1050 -189 l 1,1,2
 1014 -355 1014 -355 878 -443 c 128,-1,3
 742 -531 742 -531 542 -531 c 0,4,5
 445 -531 445 -531 336.5 -502.5 c 128,-1,6
 228 -474 228 -474 138 -386 c 1,7,-1
 251 -216 l 1,8,9
 308 -265 308 -265 379 -286.5 c 128,-1,10
 450 -308 450 -308 529 -308 c 0,11,12
 696 -308 696 -308 751 -189 c 1,13,-1
 44 -189 l 1,14,-1
 44 -54 l 1,15,-1
 773 -54 l 1,16,-1
 773 95 l 1,17,18
 671 -20 671 -20 509 -20 c 0,19,20
 308 -20 308 -20 190.5 136 c 128,-1,21
 73 292 73 292 73 528 c 2,22,-1
 73 549 l 2,23,24
 73 796 73 796 190.5 949 c 128,-1,25
 308 1102 308 1102 511 1102 c 0,26,27
 606 1102 606 1102 674 1070 c 128,-1,28
 742 1038 742 1038 789 980 c 1,29,-1
 800 1082 l 1,30,-1
 1062 1082 l 1,31,-1
 1062 -54 l 1,32,-1
 1161 -54 l 1,33,-1
 1161 -189 l 1,0,-1
362 528 m 2,34,35
 362 398 362 398 415.5 306.5 c 128,-1,36
 469 215 469 215 583 215 c 0,37,38
 715 215 715 215 773 315 c 1,39,-1
 773 768 l 1,40,41
 716 868 716 868 585 868 c 0,42,43
 472 868 472 868 417 775.5 c 128,-1,44
 362 683 362 683 362 549 c 2,45,-1
 362 528 l 2,34,35
EndSplineSet
EndChar

StartChar: uni01EF
Encoding: 495 495 222
Width: 1186
Flags: W
LayerCount: 2
Fore
SplineSet
460 1525 m 1,0,-1
 592 1387 l 1,1,-1
 724 1525 l 1,2,-1
 971 1525 l 1,3,-1
 971 1509 l 1,4,-1
 691 1252 l 1,5,-1
 493 1252 l 1,6,-1
 213 1509 l 1,7,-1
 213 1525 l 1,8,-1
 460 1525 l 1,0,-1
550 310 m 2,9,-1
 414 310 l 1,10,-1
 414 493 l 1,11,-1
 751 849 l 1,12,-1
 137 849 l 1,13,-1
 137 1082 l 1,14,-1
 1088 1082 l 1,15,-1
 1089 891 l 1,16,-1
 731 494 l 1,17,18
 917 462 917 462 1018.5 344.5 c 128,-1,19
 1120 227 1120 227 1120 33 c 0,20,21
 1120 -171 1120 -171 970 -283 c 128,-1,22
 820 -395 820 -395 589 -395 c 0,23,24
 465 -395 465 -395 349 -351 c 128,-1,25
 233 -307 233 -307 158 -213.5 c 128,-1,26
 83 -120 83 -120 83 29 c 1,27,-1
 373 29 l 1,28,29
 373 -50 373 -50 431.5 -106 c 128,-1,30
 490 -162 490 -162 589 -162 c 0,31,32
 704 -162 704 -162 767.5 -104.5 c 128,-1,33
 831 -47 831 -47 831 38 c 0,34,35
 831 184 831 184 759 247 c 128,-1,36
 687 310 687 310 550 310 c 2,9,-1
EndSplineSet
EndChar

StartChar: uni01F6
Encoding: 502 502 223
Width: 2189
Flags: W
LayerCount: 2
Fore
SplineSet
1016 1456 m 1,0,-1
 1316 1456 l 1,1,-1
 1316 496 l 2,2,3
 1316 352 1316 352 1370 287 c 128,-1,4
 1424 222 1424 222 1545 222 c 256,5,6
 1666 222 1666 222 1720 287 c 128,-1,7
 1774 352 1774 352 1774 496 c 2,8,-1
 1774 1082 l 1,9,-1
 2074 1082 l 1,10,-1
 2074 496 l 2,11,12
 2074 242 2074 242 1930.5 111 c 128,-1,13
 1787 -20 1787 -20 1545 -20 c 0,14,15
 1300 -20 1300 -20 1158 111 c 128,-1,16
 1016 242 1016 242 1016 496 c 2,17,-1
 1016 624 l 1,18,-1
 431 624 l 1,19,-1
 431 0 l 1,20,-1
 130 0 l 1,21,-1
 130 1456 l 1,22,-1
 431 1456 l 1,23,-1
 431 866 l 1,24,-1
 1016 866 l 1,25,-1
 1016 1456 l 1,0,-1
EndSplineSet
EndChar

StartChar: uni01F7
Encoding: 503 503 224
Width: 1369
Flags: W
LayerCount: 2
Fore
SplineSet
1281 787 m 2,0,1
 1281 471 1281 471 1056.5 223.5 c 128,-1,2
 832 -24 832 -24 429 -149 c 1,3,-1
 429 -417 l 1,4,-1
 130 -417 l 1,5,-1
 130 1456 l 1,6,-1
 429 1456 l 1,7,-1
 429 1423 l 1,8,9
 534 1477 534 1477 676 1477 c 0,10,11
 951 1477 951 1477 1116 1314.5 c 128,-1,12
 1281 1152 1281 1152 1281 841 c 2,13,-1
 1281 787 l 2,0,1
676 1234 m 0,14,15
 527 1234 527 1234 429 1126 c 1,16,-1
 429 102 l 1,17,18
 705 206 705 206 841 390.5 c 128,-1,19
 977 575 977 575 977 787 c 2,20,-1
 977 843 l 2,21,22
 977 1022 977 1022 914.5 1128 c 128,-1,23
 852 1234 852 1234 676 1234 c 0,14,15
EndSplineSet
EndChar

StartChar: uni021C
Encoding: 540 540 225
Width: 1233
Flags: W
LayerCount: 2
Fore
SplineSet
1147 342 m 0,0,1
 1147 116 1147 116 1020 -42 c 128,-1,2
 893 -200 893 -200 672.5 -297 c 128,-1,3
 452 -394 452 -394 170 -436 c 1,4,-1
 170 -196 l 1,5,6
 500 -131 500 -131 673 2.5 c 128,-1,7
 846 136 846 136 846 348 c 0,8,9
 846 487 846 487 774 529 c 1,10,11
 657 461 657 461 505 406 c 128,-1,12
 353 351 353 351 170 305 c 1,13,-1
 169 531 l 1,14,15
 416 606 416 606 560 674 c 128,-1,16
 704 742 704 742 766 825 c 128,-1,17
 828 908 828 908 828 1026 c 0,18,19
 828 1117 828 1117 772.5 1175 c 128,-1,20
 717 1233 717 1233 587 1233 c 0,21,22
 498 1233 498 1233 431 1188.5 c 128,-1,23
 364 1144 364 1144 364 1062 c 1,24,-1
 64 1062 l 1,25,26
 64 1259 64 1259 221.5 1367 c 128,-1,27
 379 1475 379 1475 587 1475 c 0,28,29
 832 1475 832 1475 978.5 1370 c 128,-1,30
 1125 1265 1125 1265 1125 1061 c 0,31,32
 1125 836 1125 836 963 672 c 1,33,34
 1147 570 1147 570 1147 342 c 0,0,1
EndSplineSet
EndChar

StartChar: uni021D
Encoding: 541 541 226
Width: 1037
Flags: W
LayerCount: 2
Fore
SplineSet
965 186 m 0,0,1
 965 -67 965 -67 751.5 -217 c 128,-1,2
 538 -367 538 -367 180 -436 c 1,3,-1
 180 -219 l 1,4,5
 432 -136 432 -136 554 -46 c 128,-1,6
 676 44 676 44 676 207 c 0,7,8
 676 285 676 285 642 337 c 1,9,10
 467 236 467 236 180 161 c 1,11,-1
 180 372 l 1,12,13
 399 442 399 442 528 527.5 c 128,-1,14
 657 613 657 613 657 748 c 0,15,16
 657 804 657 804 627 843.5 c 128,-1,17
 597 883 597 883 513 883 c 0,18,19
 442 883 442 883 397.5 853.5 c 128,-1,20
 353 824 353 824 353 771 c 1,21,-1
 64 771 l 1,22,23
 64 926 64 926 192 1013.5 c 128,-1,24
 320 1101 320 1101 498 1101 c 0,25,26
 703 1101 703 1101 824.5 1020.5 c 128,-1,27
 946 940 946 940 946 786 c 0,28,29
 946 605 946 605 816 469 c 1,30,31
 965 383 965 383 965 186 c 0,0,1
EndSplineSet
EndChar

StartChar: uni0220
Encoding: 544 544 227
Width: 1315
Flags: W
LayerCount: 2
Fore
SplineSet
1199 1021 m 2,0,-1
 1199 -417 l 1,1,-1
 908 -417 l 1,2,-1
 908 1021 l 2,3,4
 908 1243 908 1243 671 1243 c 0,5,6
 539 1243 539 1243 419 1169 c 1,7,-1
 419 0 l 1,8,-1
 130 0 l 1,9,-1
 130 1456 l 1,10,-1
 419 1456 l 1,11,-1
 419 1406 l 1,12,13
 480 1438 480 1438 551.5 1457.5 c 128,-1,14
 623 1477 623 1477 704 1477 c 0,15,16
 910 1477 910 1477 1054.5 1359 c 128,-1,17
 1199 1241 1199 1241 1199 1021 c 2,0,-1
EndSplineSet
EndChar

StartChar: uni0221
Encoding: 545 545 228
Width: 1517
Flags: W
LayerCount: 2
Fore
SplineSet
751 1536 m 1,0,-1
 1041 1536 l 1,1,-1
 1041 109 l 1,2,3
 1096 118 1096 118 1158 118 c 0,4,5
 1315 118 1315 118 1401 44 c 128,-1,6
 1487 -30 1487 -30 1487 -157 c 0,7,8
 1487 -281 1487 -281 1397.5 -358.5 c 128,-1,9
 1308 -436 1308 -436 1134 -436 c 0,10,11
 994 -436 994 -436 912 -388 c 128,-1,12
 830 -340 830 -340 792 -263 c 1,13,-1
 624 -410 l 1,14,-1
 492 -233 l 1,15,-1
 752 -15 l 1,16,-1
 752 98 l 1,17,18
 648 -20 648 -20 489 -20 c 0,19,20
 288 -20 288 -20 177 136 c 128,-1,21
 66 292 66 292 66 528 c 2,22,-1
 66 549 l 2,23,24
 66 796 66 796 177 949 c 128,-1,25
 288 1102 288 1102 491 1102 c 0,26,27
 649 1102 649 1102 751 985 c 1,28,-1
 751 1536 l 1,0,-1
356 528 m 2,29,30
 356 398 356 398 402 306.5 c 128,-1,31
 448 215 448 215 562 215 c 0,32,33
 694 215 694 215 751 327 c 1,34,-1
 751 756 l 1,35,36
 696 868 696 868 564 868 c 0,37,38
 451 868 451 868 403.5 775.5 c 128,-1,39
 356 683 356 683 356 549 c 2,40,-1
 356 528 l 2,29,30
1041 -134 m 2,41,42
 1041 -246 1041 -246 1137 -246 c 0,43,44
 1174 -246 1174 -246 1202 -226 c 128,-1,45
 1230 -206 1230 -206 1230 -164 c 0,46,47
 1230 -84 1230 -84 1127 -84 c 0,48,49
 1084 -84 1084 -84 1041 -98 c 1,50,-1
 1041 -134 l 2,41,42
EndSplineSet
EndChar

StartChar: uni0222
Encoding: 546 546 229
Width: 1304
Flags: W
LayerCount: 2
Fore
SplineSet
1216 461 m 0,0,1
 1216 226 1216 226 1058.5 103 c 128,-1,2
 901 -20 901 -20 662 -20 c 2,3,-1
 641 -20 l 2,4,5
 402 -20 402 -20 244 102.5 c 128,-1,6
 86 225 86 225 86 459 c 0,7,8
 86 580 86 580 131 668.5 c 128,-1,9
 176 757 176 757 256 814 c 1,10,11
 177 859 177 859 131.5 932 c 128,-1,12
 86 1005 86 1005 86 1110 c 0,13,14
 86 1298 86 1298 206 1386 c 128,-1,15
 326 1474 326 1474 513 1476 c 1,16,-1
 513 1244 l 1,17,18
 452 1230 452 1230 421 1202 c 128,-1,19
 390 1174 390 1174 390 1110 c 0,20,21
 390 1020 390 1020 453.5 984.5 c 128,-1,22
 517 949 517 949 637 949 c 2,23,-1
 665 949 l 2,24,25
 785 949 785 949 848.5 984.5 c 128,-1,26
 912 1020 912 1020 912 1110 c 0,27,28
 912 1174 912 1174 881 1202 c 128,-1,29
 850 1230 850 1230 790 1244 c 1,30,-1
 790 1476 l 1,31,32
 976 1474 976 1474 1096 1386 c 128,-1,33
 1216 1298 1216 1298 1216 1110 c 0,34,35
 1216 1005 1216 1005 1170.5 932 c 128,-1,36
 1125 859 1125 859 1046 815 c 1,37,38
 1125 758 1125 758 1170.5 670 c 128,-1,39
 1216 582 1216 582 1216 461 c 0,0,1
662 702 m 2,40,-1
 641 702 l 2,41,42
 525 702 525 702 457.5 638.5 c 128,-1,43
 390 575 390 575 390 459 c 0,44,45
 390 346 390 346 457.5 284 c 128,-1,46
 525 222 525 222 641 222 c 2,47,-1
 662 222 l 2,48,49
 780 222 780 222 846 284 c 128,-1,50
 912 346 912 346 912 461 c 0,51,52
 912 575 912 575 846 638.5 c 128,-1,53
 780 702 780 702 662 702 c 2,40,-1
EndSplineSet
EndChar

StartChar: uni0223
Encoding: 547 547 230
Width: 1254
Flags: W
LayerCount: 2
Fore
SplineSet
1184 455 m 0,0,1
 1184 220 1184 220 1030 100 c 128,-1,2
 876 -20 876 -20 637 -20 c 2,3,-1
 616 -20 l 2,4,5
 378 -20 378 -20 223.5 100 c 128,-1,6
 69 220 69 220 69 453 c 0,7,8
 69 576 69 576 114 664 c 128,-1,9
 159 752 159 752 239 807 c 1,10,11
 160 856 160 856 114.5 939 c 128,-1,12
 69 1022 69 1022 69 1144 c 0,13,14
 69 1344 69 1344 186 1449.5 c 128,-1,15
 303 1555 303 1555 489 1557 c 1,16,-1
 489 1333 l 1,17,18
 431 1312 431 1312 394.5 1268 c 128,-1,19
 358 1224 358 1224 358 1139 c 0,20,21
 358 1025 358 1025 423.5 976.5 c 128,-1,22
 489 928 489 928 613 928 c 2,23,-1
 641 928 l 2,24,25
 765 928 765 928 830.5 976.5 c 128,-1,26
 896 1025 896 1025 896 1139 c 0,27,28
 896 1224 896 1224 860 1268 c 128,-1,29
 824 1312 824 1312 765 1333 c 1,30,-1
 765 1557 l 1,31,32
 951 1555 951 1555 1068 1449.5 c 128,-1,33
 1185 1344 1185 1344 1185 1144 c 0,34,35
 1185 1022 1185 1022 1139.5 939 c 128,-1,36
 1094 856 1094 856 1015 806 c 1,37,38
 1095 751 1095 751 1139.5 664 c 128,-1,39
 1184 577 1184 577 1184 455 c 0,0,1
637 695 m 2,40,-1
 616 695 l 2,41,42
 497 695 497 695 428 631.5 c 128,-1,43
 359 568 359 568 359 453 c 0,44,45
 359 341 359 341 428 277 c 128,-1,46
 497 213 497 213 616 213 c 2,47,-1
 637 213 l 2,48,49
 759 213 759 213 827 277 c 128,-1,50
 895 341 895 341 895 455 c 0,51,52
 895 568 895 568 827 631.5 c 128,-1,53
 759 695 759 695 637 695 c 2,40,-1
EndSplineSet
EndChar

StartChar: uni0224
Encoding: 548 548 231
Width: 1316
Flags: W
LayerCount: 2
Fore
SplineSet
74 1213 m 1,0,-1
 74 1456 l 1,1,-1
 1166 1456 l 1,2,-1
 1166 1284 l 1,3,-1
 449 242 l 1,4,-1
 883 242 l 2,5,6
 1078 242 1078 242 1181.5 141 c 128,-1,7
 1285 40 1285 40 1285 -135 c 0,8,9
 1285 -211 1285 -211 1268 -280 c 1,10,-1
 1027 -280 l 1,11,12
 1031 -258 1031 -258 1033.5 -237 c 128,-1,13
 1036 -216 1036 -216 1036 -194 c 0,14,15
 1036 -124 1036 -124 1008.5 -62 c 128,-1,16
 981 0 981 0 883 0 c 2,17,-1
 74 0 l 1,18,-1
 74 176 l 1,19,-1
 794 1213 l 1,20,-1
 74 1213 l 1,0,-1
EndSplineSet
EndChar

StartChar: uni0225
Encoding: 549 549 232
Width: 1147
Flags: W
LayerCount: 2
Fore
SplineSet
957 912 m 1,0,-1
 443 233 l 1,1,-1
 711 233 l 2,2,3
 906 233 906 233 1009.5 139.5 c 128,-1,4
 1113 46 1113 46 1113 -127 c 0,5,6
 1113 -203 1113 -203 1096 -272 c 1,7,-1
 867 -272 l 1,8,9
 871 -250 871 -250 873.5 -229 c 128,-1,10
 876 -208 876 -208 876 -186 c 0,11,12
 876 -118 876 -118 842 -59 c 128,-1,13
 808 0 808 0 711 0 c 2,14,-1
 74 0 l 1,15,-1
 74 176 l 1,16,-1
 585 849 l 1,17,-1
 90 849 l 1,18,-1
 90 1082 l 1,19,-1
 957 1082 l 1,20,-1
 957 912 l 1,0,-1
EndSplineSet
EndChar

StartChar: uni0234
Encoding: 564 564 233
Width: 1045
Flags: W
LayerCount: 2
Fore
SplineSet
279 1536 m 1,0,-1
 569 1536 l 1,1,-1
 569 109 l 1,2,3
 624 118 624 118 686 118 c 0,4,5
 843 118 843 118 929 44 c 128,-1,6
 1015 -30 1015 -30 1015 -157 c 0,7,8
 1015 -281 1015 -281 925.5 -358.5 c 128,-1,9
 836 -436 836 -436 662 -436 c 0,10,11
 521 -436 521 -436 439.5 -388 c 128,-1,12
 358 -340 358 -340 320 -263 c 1,13,-1
 152 -410 l 1,14,-1
 20 -233 l 1,15,-1
 280 -15 l 1,16,-1
 280 0 l 1,17,-1
 279 0 l 1,18,-1
 279 1536 l 1,0,-1
569 -134 m 2,19,20
 569 -246 569 -246 665 -246 c 0,21,22
 702 -246 702 -246 730 -226 c 128,-1,23
 758 -206 758 -206 758 -164 c 0,24,25
 758 -84 758 -84 655 -84 c 0,26,27
 612 -84 612 -84 569 -98 c 1,28,-1
 569 -134 l 2,19,20
EndSplineSet
EndChar

StartChar: uni0235
Encoding: 565 565 234
Width: 1516
Flags: W
LayerCount: 2
Fore
SplineSet
698 1102 m 0,0,1
 852 1102 852 1102 946 1010 c 128,-1,2
 1040 918 1040 918 1040 689 c 2,3,-1
 1040 109 l 1,4,5
 1095 118 1095 118 1156 118 c 0,6,7
 1313 118 1313 118 1399.5 44 c 128,-1,8
 1486 -30 1486 -30 1486 -157 c 0,9,10
 1486 -281 1486 -281 1396 -358.5 c 128,-1,11
 1306 -436 1306 -436 1132 -436 c 0,12,13
 992 -436 992 -436 910.5 -388 c 128,-1,14
 829 -340 829 -340 791 -263 c 1,15,-1
 623 -410 l 1,16,-1
 491 -233 l 1,17,-1
 750 -16 l 1,18,-1
 750 690 l 2,19,20
 750 794 750 794 705.5 831 c 128,-1,21
 661 868 661 868 578 868 c 0,22,23
 455 868 455 868 395 764 c 1,24,-1
 395 0 l 1,25,-1
 106 0 l 1,26,-1
 106 1082 l 1,27,-1
 377 1082 l 1,28,-1
 387 958 l 1,29,30
 503 1102 503 1102 698 1102 c 0,0,1
1040 -134 m 2,31,32
 1040 -246 1040 -246 1136 -246 c 0,33,34
 1174 -246 1174 -246 1201.5 -226 c 128,-1,35
 1229 -206 1229 -206 1229 -164 c 0,36,37
 1229 -84 1229 -84 1126 -84 c 0,38,39
 1083 -84 1083 -84 1040 -98 c 1,40,-1
 1040 -134 l 2,31,32
EndSplineSet
EndChar

StartChar: uni0236
Encoding: 566 566 235
Width: 1045
Flags: W
LayerCount: 2
Fore
SplineSet
1015 259 m 0,0,1
 1015 135 1015 135 925.5 57.5 c 128,-1,2
 836 -20 836 -20 662 -20 c 0,3,4
 521 -20 521 -20 439.5 28 c 128,-1,5
 358 76 358 76 320 153 c 1,6,-1
 152 6 l 1,7,-1
 20 183 l 1,8,-1
 280 401 l 1,9,-1
 280 871 l 1,10,-1
 122 871 l 1,11,-1
 122 1082 l 1,12,-1
 280 1082 l 1,13,-1
 280 1349 l 1,14,-1
 569 1349 l 1,15,-1
 569 1082 l 1,16,-1
 754 1082 l 1,17,-1
 754 871 l 1,18,-1
 569 871 l 1,19,-1
 569 525 l 1,20,21
 626 534 626 534 686 534 c 0,22,23
 843 534 843 534 929 460 c 128,-1,24
 1015 386 1015 386 1015 259 c 0,0,1
569 282 m 2,25,26
 569 171 569 171 665 171 c 0,27,28
 702 171 702 171 730 190.5 c 128,-1,29
 758 210 758 210 758 253 c 0,30,31
 758 332 758 332 655 332 c 0,32,33
 612 332 612 332 569 318 c 1,34,-1
 569 282 l 2,25,26
EndSplineSet
EndChar

StartChar: uni0237
Encoding: 567 567 236
Width: 577
GlyphClass: 2
Flags: W
AnchorPoint: "Anchor-5" 577 1264 basechar 0
AnchorPoint: "Anchor-0" 274 1264 basechar 0
LayerCount: 2
Fore
SplineSet
151 1082 m 1,0,-1
 440 1082 l 1,1,-1
 440 -35 l 2,2,3
 440 -230 440 -230 338.5 -333.5 c 128,-1,4
 237 -437 237 -437 60 -437 c 0,5,6
 -17 -437 -17 -437 -84 -420 c 1,7,-1
 -69 -192 l 1,8,9
 -26 -204 -26 -204 30 -204 c 0,10,11
 151 -204 151 -204 151 -35 c 2,12,-1
 151 1082 l 1,0,-1
EndSplineSet
EndChar

StartChar: uni0238
Encoding: 568 568 237
Width: 1859
Flags: W
LayerCount: 2
Fore
SplineSet
1760 531 m 2,0,1
 1760 288 1760 288 1655 134 c 128,-1,2
 1550 -20 1550 -20 1339 -20 c 0,3,4
 1176 -20 1176 -20 1074 97 c 1,5,-1
 1074 0 l 1,6,-1
 813 0 l 1,7,-1
 799 115 l 1,8,9
 749 52 749 52 680 16 c 128,-1,10
 611 -20 611 -20 521 -20 c 0,11,12
 321 -20 321 -20 210 136 c 128,-1,13
 99 292 99 292 99 528 c 2,14,-1
 99 549 l 2,15,16
 99 796 99 796 210 949 c 128,-1,17
 321 1102 321 1102 523 1102 c 0,18,19
 682 1102 682 1102 784 985 c 1,20,-1
 784 1536 l 1,21,-1
 1074 1536 l 1,22,-1
 1074 986 l 1,23,24
 1175 1102 1175 1102 1337 1102 c 0,25,26
 1550 1102 1550 1102 1655 947 c 128,-1,27
 1760 792 1760 792 1760 552 c 2,28,-1
 1760 531 l 2,0,1
1265 868 m 0,29,30
 1127 868 1127 868 1074 755 c 1,31,-1
 1074 328 l 1,32,33
 1127 214 1127 214 1267 214 c 0,34,35
 1388 214 1388 214 1429.5 304 c 128,-1,36
 1471 394 1471 394 1471 531 c 2,37,-1
 1471 552 l 2,38,39
 1471 680 1471 680 1429.5 774 c 128,-1,40
 1388 868 1388 868 1265 868 c 0,29,30
388 528 m 2,41,42
 388 398 388 398 434.5 306.5 c 128,-1,43
 481 215 481 215 595 215 c 0,44,45
 728 215 728 215 784 328 c 1,46,-1
 784 756 l 1,47,48
 729 868 729 868 597 868 c 0,49,50
 484 868 484 868 436 775.5 c 128,-1,51
 388 683 388 683 388 549 c 2,52,-1
 388 528 l 2,41,42
EndSplineSet
EndChar

StartChar: uni0239
Encoding: 569 569 238
Width: 1793
Flags: W
LayerCount: 2
Fore
SplineSet
1306 -20 m 0,0,1
 1144 -20 1144 -20 1041 95 c 1,2,-1
 1041 -416 l 1,3,-1
 751 -416 l 1,4,-1
 751 92 l 1,5,6
 649 -20 649 -20 490 -20 c 0,7,8
 287 -20 287 -20 176.5 137 c 128,-1,9
 66 294 66 294 66 530 c 2,10,-1
 66 551 l 2,11,12
 66 798 66 798 176 950 c 128,-1,13
 286 1102 286 1102 492 1102 c 0,14,15
 665 1102 665 1102 769 971 c 1,16,-1
 787 1082 l 1,17,-1
 1020 1082 l 1,18,-1
 1031 976 l 1,19,20
 1134 1102 1134 1102 1304 1102 c 0,21,22
 1510 1102 1510 1102 1618.5 951 c 128,-1,23
 1727 800 1727 800 1727 553 c 2,24,-1
 1727 532 l 2,25,26
 1727 296 1727 296 1618.5 138 c 128,-1,27
 1510 -20 1510 -20 1306 -20 c 0,0,1
356 530 m 2,28,29
 356 400 356 400 402.5 306.5 c 128,-1,30
 449 213 449 213 563 213 c 0,31,32
 695 213 695 213 751 319 c 1,33,-1
 751 767 l 1,34,35
 697 869 697 869 565 869 c 0,36,37
 452 869 452 869 404 777.5 c 128,-1,38
 356 686 356 686 356 551 c 2,39,-1
 356 530 l 2,28,29
1228 868 m 0,40,41
 1094 868 1094 868 1041 763 c 1,42,-1
 1041 322 l 1,43,44
 1066 271 1066 271 1112 242 c 128,-1,45
 1158 213 1158 213 1230 213 c 0,46,47
 1344 213 1344 213 1391 307 c 128,-1,48
 1438 401 1438 401 1438 532 c 2,49,-1
 1438 553 l 2,50,51
 1438 687 1438 687 1389.5 777.5 c 128,-1,52
 1341 868 1341 868 1228 868 c 0,40,41
EndSplineSet
EndChar

StartChar: uni023A
Encoding: 570 570 239
Width: 1379
Flags: W
LayerCount: 2
Fore
SplineSet
-203 -198 m 1,0,-1
 44 97 l 1,1,-1
 550 1456 l 1,2,-1
 828 1456 l 1,3,-1
 937 1164 l 1,4,-1
 1220 1502 l 1,5,-1
 1420 1502 l 1,6,-1
 999 999 l 1,7,-1
 1373 0 l 1,8,-1
 1053 0 l 1,9,-1
 953 300 l 1,10,-1
 426 300 l 1,11,-1
 326 0 l 1,12,-1
 163 0 l 1,13,-1
 -3 -198 l 1,14,-1
 -203 -198 l 1,0,-1
690 1090 m 1,15,-1
 567 722 l 1,16,-1
 742 931 l 1,17,-1
 690 1090 l 1,15,-1
617 543 m 1,18,-1
 872 543 l 1,19,-1
 799 760 l 1,20,-1
 617 543 l 1,18,-1
EndSplineSet
EndChar

StartChar: uni023B
Encoding: 571 571 240
Width: 1341
Flags: W
LayerCount: 2
Fore
SplineSet
688 -20 m 0,0,1
 594 -20 594 -20 512 2 c 1,2,-1
 469 -125 l 1,3,-1
 298 -125 l 1,4,-1
 363 67 l 1,5,6
 86 243 86 243 86 680 c 2,7,-1
 86 775 l 2,8,9
 86 1098 86 1098 251 1287.5 c 128,-1,10
 416 1477 416 1477 691 1477 c 0,11,12
 768 1477 768 1477 837 1464 c 1,13,-1
 875 1575 l 1,14,-1
 1046 1575 l 1,15,-1
 991 1413 l 1,16,17
 1119 1349 1119 1349 1190 1231 c 128,-1,18
 1261 1113 1261 1113 1275 962 c 1,19,-1
 975 962 l 1,20,21
 965 1095 965 1095 905 1159 c 1,22,-1
 592 239 l 1,23,24
 635 226 635 226 688 226 c 0,25,26
 830 226 830 226 896.5 290.5 c 128,-1,27
 963 355 963 355 974 485 c 1,28,-1
 1274 485 l 1,29,30
 1259 263 1259 263 1107.5 121.5 c 128,-1,31
 956 -20 956 -20 688 -20 c 0,0,1
391 680 m 2,32,33
 391 453 391 453 457 344 c 1,34,-1
 757 1227 l 1,35,36
 726 1231 726 1231 691 1231 c 0,37,38
 391 1231 391 1231 391 777 c 2,39,-1
 391 680 l 2,32,33
EndSplineSet
EndChar

StartChar: uni023C
Encoding: 572 572 241
Width: 1069
Flags: W
LayerCount: 2
Fore
SplineSet
566 -20 m 0,0,1
 496 -20 496 -20 434 -6 c 1,2,-1
 292 -417 l 1,3,-1
 121 -417 l 1,4,-1
 284 56 l 1,5,6
 175 127 175 127 120.5 251 c 128,-1,7
 66 375 66 375 66 527 c 2,8,-1
 66 555 l 2,9,10
 66 784 66 784 190 943 c 128,-1,11
 314 1102 314 1102 565 1102 c 0,12,13
 605 1102 605 1102 643 1097 c 1,14,-1
 767 1456 l 1,15,-1
 937 1456 l 1,16,-1
 798 1051 l 1,17,18
 898 1000 898 1000 955.5 905 c 128,-1,19
 1013 810 1013 810 1015 679 c 1,20,-1
 743 679 l 1,21,22
 742 747 742 747 709 795 c 1,23,-1
 511 218 l 1,24,25
 534 213 534 213 561 213 c 0,26,27
 640 213 640 213 691 256.5 c 128,-1,28
 742 300 742 300 743 374 c 1,29,-1
 1015 374 l 1,30,31
 1013 202 1013 202 883.5 91 c 128,-1,32
 754 -20 754 -20 566 -20 c 0,0,1
356 527 m 2,33,34
 356 475 356 475 361.5 426.5 c 128,-1,35
 367 378 367 378 381 338 c 1,36,-1
 565 869 l 1,37,-1
 560 869 l 2,38,39
 433 869 433 869 394.5 772.5 c 128,-1,40
 356 676 356 676 356 555 c 2,41,-1
 356 527 l 2,33,34
EndSplineSet
EndChar

StartChar: uni023E
Encoding: 574 574 243
Width: 1267
Flags: W
LayerCount: 2
Fore
SplineSet
41 1213 m 1,0,-1
 41 1456 l 1,1,-1
 996 1456 l 1,2,-1
 1056 1575 l 1,3,-1
 1228 1575 l 1,4,-1
 1168 1456 l 1,5,-1
 1226 1456 l 1,6,-1
 1226 1213 l 1,7,-1
 1045 1213 l 1,8,-1
 781 689 l 1,9,-1
 781 0 l 1,10,-1
 481 0 l 1,11,-1
 481 95 l 1,12,-1
 370 -125 l 1,13,-1
 198 -125 l 1,14,-1
 481 436 l 1,15,-1
 481 1213 l 1,16,-1
 41 1213 l 1,0,-1
781 1213 m 1,17,-1
 781 1030 l 1,18,-1
 873 1213 l 1,19,-1
 781 1213 l 1,17,-1
EndSplineSet
EndChar

StartChar: uni023F
Encoding: 575 575 244
Width: 1047
Flags: W
LayerCount: 2
Fore
SplineSet
691 300 m 0,0,1
 691 344 691 344 648 377 c 128,-1,2
 605 410 605 410 472 437 c 0,3,4
 318 469 318 469 201.5 544.5 c 128,-1,5
 85 620 85 620 85 766 c 0,6,7
 85 901 85 901 199.5 1001.5 c 128,-1,8
 314 1102 314 1102 516 1102 c 0,9,10
 727 1102 727 1102 848 1003 c 128,-1,11
 969 904 969 904 969 753 c 1,12,-1
 680 753 l 1,13,14
 680 815 680 815 640 856 c 128,-1,15
 600 897 600 897 515 897 c 0,16,17
 443 897 443 897 402.5 863.5 c 128,-1,18
 362 830 362 830 362 780 c 0,19,20
 362 714 362 714 432 688 c 128,-1,21
 502 662 502 662 585 646 c 0,22,23
 772 608 772 608 872 531 c 128,-1,24
 972 454 972 454 972 311 c 256,25,26
 972 168 972 168 849 74 c 128,-1,27
 726 -20 726 -20 517 -20 c 0,28,29
 488 -20 488 -20 446 -14 c 1,30,31
 488 -95 488 -95 526 -156.5 c 128,-1,32
 564 -218 564 -218 626 -218 c 0,33,34
 673 -218 673 -218 719 -194 c 128,-1,35
 765 -170 765 -170 795 -143 c 1,36,-1
 892 -310 l 1,37,38
 842 -354 842 -354 774 -395 c 128,-1,39
 706 -436 706 -436 616 -436 c 0,40,41
 486 -436 486 -436 406 -353.5 c 128,-1,42
 326 -271 326 -271 268 -162 c 2,43,-1
 55 231 l 1,44,-1
 306 339 l 1,45,46
 339 254 339 254 391.5 220 c 128,-1,47
 444 186 444 186 523 186 c 0,48,49
 691 186 691 186 691 300 c 0,0,1
EndSplineSet
EndChar

StartChar: uni0240
Encoding: 576 576 245
Width: 1224
Flags: W
LayerCount: 2
Fore
SplineSet
90 849 m 1,0,-1
 90 1082 l 1,1,-1
 957 1082 l 1,2,-1
 957 912 l 1,3,-1
 443 233 l 1,4,-1
 494 233 l 2,5,6
 623 233 623 233 700 165 c 128,-1,7
 777 97 777 97 827 7.5 c 128,-1,8
 877 -82 877 -82 922.5 -150 c 128,-1,9
 968 -218 968 -218 1033 -218 c 0,10,11
 1078 -218 1078 -218 1120 -191.5 c 128,-1,12
 1162 -165 1162 -165 1188 -143 c 1,13,-1
 1284 -310 l 1,14,15
 1237 -356 1237 -356 1164 -396 c 128,-1,16
 1091 -436 1091 -436 1004 -436 c 0,17,18
 878 -436 878 -436 808 -370 c 128,-1,19
 738 -304 738 -304 688.5 -218 c 128,-1,20
 639 -132 639 -132 578.5 -66 c 128,-1,21
 518 0 518 0 413 0 c 2,22,-1
 74 0 l 1,23,-1
 74 176 l 1,24,-1
 585 849 l 1,25,-1
 90 849 l 1,0,-1
EndSplineSet
EndChar

StartChar: uni0241
Encoding: 577 577 246
Width: 1078
Flags: W
LayerCount: 2
Fore
SplineSet
378 0 m 1,0,-1
 378 504 l 1,1,-1
 514 504 l 2,2,3
 642 504 642 504 681 595.5 c 128,-1,4
 720 687 720 687 720 804 c 2,5,-1
 720 929 l 2,6,7
 720 1043 720 1043 681 1136 c 128,-1,8
 642 1229 642 1229 516 1229 c 0,9,10
 428 1229 428 1229 381 1175 c 128,-1,11
 334 1121 334 1121 332 1039 c 1,12,-1
 46 1039 l 1,13,14
 48 1237 48 1237 180 1356.5 c 128,-1,15
 312 1476 312 1476 511 1476 c 0,16,17
 761 1476 761 1476 892.5 1317 c 128,-1,18
 1024 1158 1024 1158 1024 929 c 2,19,-1
 1024 804 l 2,20,21
 1024 617 1024 617 936 474 c 128,-1,22
 848 331 848 331 678 280 c 1,23,-1
 678 0 l 1,24,-1
 378 0 l 1,0,-1
EndSplineSet
EndChar

StartChar: uni0242
Encoding: 578 578 247
Width: 1039
Flags: W
LayerCount: 2
Fore
SplineSet
392 0 m 1,0,-1
 392 484 l 1,1,-1
 502 484 l 2,2,3
 613 484 613 484 650.5 545 c 128,-1,4
 688 606 688 606 688 683 c 0,5,6
 688 758 688 758 655 813.5 c 128,-1,7
 622 869 622 869 524 869 c 0,8,9
 458 869 458 869 417.5 820.5 c 128,-1,10
 377 772 377 772 377 690 c 1,11,-1
 88 690 l 1,12,13
 88 864 88 864 205.5 983 c 128,-1,14
 323 1102 323 1102 524 1102 c 0,15,16
 760 1102 760 1102 868.5 982 c 128,-1,17
 977 862 977 862 977 687 c 0,18,19
 977 537 977 537 899 446 c 128,-1,20
 821 355 821 355 681 331 c 1,21,-1
 681 0 l 1,22,-1
 392 0 l 1,0,-1
EndSplineSet
EndChar

StartChar: uni0244
Encoding: 580 580 249
Width: 1607
GlyphClass: 2
Flags: W
AnchorPoint: "Anchor-5" 1607 1600 basechar 0
AnchorPoint: "Anchor-1" 804 0 basechar 0
AnchorPoint: "Anchor-0" 804 1600 basechar 0
LayerCount: 2
Fore
SplineSet
1362 496 m 2,0,1
 1362 242 1362 242 1204.5 111 c 128,-1,2
 1047 -20 1047 -20 805 -20 c 0,3,4
 560 -20 560 -20 403 111 c 128,-1,5
 246 242 246 242 246 496 c 2,6,-1
 246 656 l 1,7,-1
 37 656 l 1,8,-1
 37 839 l 1,9,-1
 246 839 l 1,10,-1
 246 1456 l 1,11,-1
 547 1456 l 1,12,-1
 547 839 l 1,13,-1
 1062 839 l 1,14,-1
 1062 1456 l 1,15,-1
 1362 1456 l 1,16,-1
 1362 839 l 1,17,-1
 1570 839 l 1,18,-1
 1570 656 l 1,19,-1
 1362 656 l 1,20,-1
 1362 496 l 2,0,1
547 496 m 2,21,22
 547 352 547 352 615.5 287 c 128,-1,23
 684 222 684 222 805 222 c 256,24,25
 926 222 926 222 994 287 c 128,-1,26
 1062 352 1062 352 1062 496 c 2,27,-1
 1062 656 l 1,28,-1
 547 656 l 1,29,-1
 547 496 l 2,21,22
EndSplineSet
EndChar

StartChar: uni0245
Encoding: 581 581 250
Width: 1340
Flags: W
LayerCount: 2
Fore
SplineSet
7 0 m 1,0,-1
 512 1456 l 1,1,-1
 825 1456 l 1,2,-1
 1333 0 l 1,3,-1
 999 0 l 1,4,-1
 668 1094 l 1,5,-1
 340 0 l 1,6,-1
 7 0 l 1,0,-1
EndSplineSet
EndChar

StartChar: uni0246
Encoding: 582 582 251
Width: 1152
Flags: W
LayerCount: 2
Fore
SplineSet
130 0 m 1,0,-1
 130 1456 l 1,1,-1
 835 1456 l 1,2,-1
 870 1575 l 1,3,-1
 1040 1575 l 1,4,-1
 1005 1456 l 1,5,-1
 1104 1456 l 1,6,-1
 1104 1213 l 1,7,-1
 935 1213 l 1,8,-1
 834 866 l 1,9,-1
 1006 866 l 1,10,-1
 1006 631 l 1,11,-1
 766 631 l 1,12,-1
 653 242 l 1,13,-1
 1107 242 l 1,14,-1
 1107 0 l 1,15,-1
 582 0 l 1,16,-1
 546 -125 l 1,17,-1
 376 -125 l 1,18,-1
 412 0 l 1,19,-1
 130 0 l 1,0,-1
431 866 m 1,20,-1
 664 866 l 1,21,-1
 765 1213 l 1,22,-1
 431 1213 l 1,23,-1
 431 866 l 1,20,-1
431 242 m 1,24,-1
 483 242 l 1,25,-1
 596 631 l 1,26,-1
 431 631 l 1,27,-1
 431 242 l 1,24,-1
EndSplineSet
EndChar

StartChar: uni0247
Encoding: 583 583 252
Width: 1107
Flags: W
LayerCount: 2
Fore
SplineSet
610 -20 m 0,0,1
 530 -20 530 -20 459 -3 c 1,2,-1
 316 -417 l 1,3,-1
 144 -417 l 1,4,-1
 308 59 l 1,5,6
 195 129 195 129 134 246 c 128,-1,7
 73 363 73 363 73 504 c 2,8,-1
 73 543 l 2,9,10
 73 788 73 788 209.5 945 c 128,-1,11
 346 1102 346 1102 578 1102 c 0,12,13
 624 1102 624 1102 667 1096 c 1,14,-1
 791 1456 l 1,15,-1
 962 1456 l 1,16,-1
 821 1046 l 1,17,18
 936 984 936 984 995.5 860.5 c 128,-1,19
 1055 737 1055 737 1055 570 c 2,20,-1
 1055 447 l 1,21,-1
 614 447 l 1,22,-1
 536 222 l 1,23,24
 576 213 576 213 621 213 c 0,25,26
 790 213 790 213 889 334 c 1,27,-1
 1032 176 l 1,28,29
 980 102 980 102 874 41 c 128,-1,30
 768 -20 768 -20 610 -20 c 0,0,1
562 869 m 0,31,32
 463 869 463 869 407 805 c 128,-1,33
 351 741 351 741 343 645 c 1,34,-1
 511 645 l 1,35,-1
 588 868 l 1,36,37
 575 869 575 869 562 869 c 0,31,32
785 667 m 2,38,39
 785 751 785 751 737 804 c 1,40,-1
 682 645 l 1,41,-1
 785 645 l 1,42,-1
 785 667 l 2,38,39
341 447 m 1,43,44
 345 365 345 365 394 306 c 1,45,-1
 442 447 l 1,46,-1
 341 447 l 1,43,44
EndSplineSet
EndChar

